<svg width="324" height="152" viewBox="0 0 324 152" fill="none" xmlns="http://www.w3.org/2000/svg">
<rect x="0.241699" y="37.2129" width="194.826" height="44.1609" rx="22.0805" transform="rotate(-10.9951 0.241699 37.2129)" fill="#97CF26"/>
<path d="M24.3429 52.5242C25.1674 52.3636 25.9291 52.5291 26.6279 53.0206C27.3252 53.5042 27.7579 54.178 27.9261 55.0417C28.0943 55.9055 27.9467 56.6963 27.4834 57.4141C27.0185 58.124 26.3738 58.5593 25.5493 58.7198C24.5756 58.9094 23.7578 58.6652 23.096 57.9872L23.752 61.3559L22.7272 61.5554L21.1218 53.3103L22.1465 53.1108L22.3438 54.1237C22.7028 53.2469 23.3692 52.7138 24.3429 52.5242ZM25.2271 57.7556C25.816 57.6409 26.2717 57.3444 26.5942 56.8659C26.9152 56.3796 27.0176 55.8381 26.9014 55.2413C26.7852 54.6445 26.4878 54.1848 26.0094 53.8623C25.5294 53.532 24.9949 53.4241 24.406 53.5388C23.8092 53.655 23.3503 53.9563 23.0293 54.4426C22.7068 54.921 22.6037 55.4587 22.7199 56.0555C22.8361 56.6522 23.1342 57.1158 23.6142 57.4462C24.0926 57.7687 24.6303 57.8718 25.2271 57.7556ZM34.5484 56.0384C34.06 56.7529 33.3839 57.1943 32.5201 57.3625C31.6563 57.5307 30.864 57.3752 30.1432 56.8962C29.4302 56.4156 28.9888 55.7395 28.8191 54.8679C28.6494 53.9962 28.8048 53.2039 29.2854 52.4909C29.7739 51.7764 30.45 51.335 31.3137 51.1668C32.1775 50.9987 32.9698 51.1541 33.6907 51.6332C34.4115 52.1122 34.8568 52.7876 35.0265 53.6592C35.1962 54.5308 35.0369 55.3239 34.5484 56.0384ZM32.3252 56.3613C32.9141 56.2466 33.3698 55.9501 33.6923 55.4716C34.0148 54.9931 34.118 54.4555 34.0018 53.8587C33.8856 53.2619 33.5882 52.8023 33.1098 52.4798C32.6313 52.1573 32.0976 52.0534 31.5087 52.168C30.9276 52.2812 30.4758 52.577 30.1533 53.0554C29.8308 53.5339 29.7277 54.0715 29.8439 54.6683C29.9601 55.2651 30.2574 55.7248 30.7359 56.0473C31.2143 56.3698 31.7441 56.4744 32.3252 56.3613ZM39.5116 56.0012C38.6399 56.1709 37.8656 56.0242 37.1886 55.561C36.5116 55.0979 36.0852 54.4148 35.9094 53.5117C35.7137 52.5066 35.7083 51.7049 35.8934 51.1065C36.0863 50.5065 36.5954 49.898 37.4206 49.2809C37.5702 49.1703 37.7742 49.0246 38.0324 48.8439C38.2985 48.6617 38.4921 48.5262 38.6134 48.4374C38.7331 48.3407 38.8647 48.2214 39.0082 48.0793C39.1502 47.9294 39.2475 47.7801 39.3 47.6313C39.3588 47.4731 39.3903 47.2999 39.3944 47.1117L40.3107 47.4223C40.3116 47.5525 40.3031 47.6764 40.2852 47.794C40.2659 47.9037 40.2268 48.0173 40.1682 48.1347C40.1159 48.2426 40.0691 48.3373 40.0279 48.4187C39.9867 48.5001 39.9077 48.5969 39.7911 48.7093C39.6807 48.8123 39.598 48.8896 39.5428 48.941C39.4955 48.991 39.3931 49.0721 39.2356 49.1842C39.086 49.2949 38.9828 49.372 38.9261 49.4157C38.8757 49.4499 38.7569 49.5301 38.5695 49.6562C38.3807 49.7745 38.265 49.85 38.2224 49.8828C37.7328 50.2145 37.3853 50.5226 37.1799 50.8071C36.9823 51.09 36.8637 51.4228 36.8241 51.8055C37.0142 51.4424 37.2832 51.1496 37.6311 50.927C37.979 50.7044 38.3414 50.5564 38.7183 50.4831C39.4564 50.3393 40.1296 50.4691 40.7379 50.8722C41.354 51.2739 41.7393 51.8713 41.8937 52.6644C42.0497 53.4653 41.9041 54.1824 41.4568 54.8155C41.0081 55.4408 40.3596 55.836 39.5116 56.0012ZM37.8399 54.7618C38.2762 55.0355 38.7692 55.1188 39.3189 55.0117C39.8686 54.9047 40.2872 54.648 40.5749 54.2415C40.8703 53.8335 40.9684 53.3743 40.869 52.8639C40.7665 52.3378 40.5105 51.9434 40.1007 51.6809C39.6973 51.409 39.2169 51.3273 38.6593 51.4359C38.1568 51.5337 37.7327 51.7834 37.387 52.1849C37.0477 52.5769 36.9285 53.0321 37.0294 53.5504C37.1334 54.0844 37.4035 54.4882 37.8399 54.7618ZM46.62 48.3454L47.4445 48.1849L48.5913 54.0743L47.5783 54.2715L46.7733 50.1372L44.3156 54.9068L43.491 55.0674L42.3443 49.178L43.3573 48.9807L44.1623 53.1151L46.62 48.3454ZM53.3861 47.028L53.5787 48.0174L51.5764 48.4073L52.5304 53.3073L51.5057 53.5068L50.5516 48.6068L48.5374 48.999L48.3448 48.0096L53.3861 47.028ZM58.5598 46.0206L59.3843 45.86L60.5311 51.7494L59.5181 51.9467L58.7131 47.8123L56.2554 52.582L55.4309 52.7425L54.2841 46.8531L55.2971 46.6559L56.1021 50.7902L58.5598 46.0206ZM68.9891 43.9899L70.1359 49.8793L69.1111 50.0788L68.1547 45.167L65.104 45.7611L66.0604 50.6728L65.0357 50.8723L63.8889 44.9829L68.9891 43.9899ZM76.5219 47.8656C76.0334 48.5801 75.3573 49.0215 74.4936 49.1897C73.6298 49.3579 72.8375 49.2024 72.1166 48.7234C71.4036 48.2428 70.9623 47.5667 70.7926 46.6951C70.6228 45.8234 70.7783 45.0311 71.2589 44.3181C71.7473 43.6036 72.4234 43.1622 73.2872 42.994C74.151 42.8259 74.9433 42.9813 75.6641 43.4604C76.385 43.9394 76.8303 44.6148 77 45.4864C77.1697 46.358 77.0103 47.1511 76.5219 47.8656ZM74.2986 48.1885C74.8876 48.0738 75.3433 47.7773 75.6658 47.2988C75.9883 46.8203 76.0914 46.2827 75.9752 45.6859C75.859 45.0891 75.5617 44.6295 75.0832 44.307C74.6048 43.9845 74.0711 43.8806 73.4821 43.9952C72.901 44.1084 72.4493 44.4042 72.1268 44.8826C71.8043 45.3611 71.7011 45.8987 71.8173 46.4955C71.9335 47.0923 72.2308 47.552 72.7093 47.8745C73.1878 48.197 73.7175 48.3016 74.2986 48.1885ZM83.7638 47.2257L82.4917 47.4734L79.2626 45.2048L79.8062 47.9963L78.7814 48.1959L77.6347 42.3065L78.6594 42.1069L79.1663 44.71L81.2036 41.6115L82.5229 41.3547L80.2628 44.7533L83.7638 47.2257ZM87.5083 40.3839L88.6038 40.1706L87.4187 46.893C87.2974 47.6094 87.0427 48.1847 86.6545 48.6189C86.2679 49.061 85.7802 49.3189 85.1914 49.3928L85.0057 48.4387C85.7388 48.353 86.1924 47.8572 86.3664 46.9512L86.4194 46.7209L82.7144 41.3174L83.798 41.1064L86.7112 45.3315L87.5083 40.3839ZM94.5597 39.0109L95.7064 44.9003L94.6817 45.0999L93.7253 40.1881L90.6746 40.7821L91.631 45.6939L90.6062 45.8934L89.4595 40.004L94.5597 39.0109ZM102.249 43.6265L100.977 43.8742L97.7475 41.6055L98.291 44.3971L97.2663 44.5966L96.1195 38.7072L97.1443 38.5077L97.6512 41.1108L99.6885 38.0123L101.008 37.7554L98.7476 41.154L102.249 43.6265ZM106.331 36.719L107.155 36.5584L108.302 42.4478L107.289 42.6451L106.484 38.5107L104.026 43.2804L103.202 43.4409L102.055 37.5515L103.068 37.3543L103.873 41.4886L106.331 36.719ZM116.139 37.7798C116.793 37.9134 117.184 38.31 117.312 38.9696C117.407 39.4564 117.32 39.889 117.052 40.2673C116.789 40.6363 116.356 40.8796 115.751 40.9973L112.806 41.5707L111.66 35.6813L114.369 35.1538C114.958 35.0391 115.442 35.0997 115.822 35.3354C116.201 35.5632 116.437 35.9167 116.53 36.3957C116.64 36.961 116.51 37.4224 116.139 37.7798ZM114.501 36.0817L112.84 36.4051L113.14 37.9481L114.801 37.6248C115.398 37.5086 115.645 37.1874 115.543 36.6613C115.445 36.1587 115.097 35.9655 114.501 36.0817ZM115.511 40.0783C115.809 40.0202 116.023 39.9052 116.153 39.7332C116.29 39.5598 116.334 39.3435 116.283 39.0844C116.236 38.8409 116.117 38.6685 115.926 38.5671C115.741 38.4564 115.5 38.43 115.201 38.4881L113.317 38.8551L113.626 40.4452L115.511 40.0783ZM126.429 32.8055L127.576 38.6949L126.575 38.8898L125.742 34.6141L124.457 37.9942L124.327 38.0194L121.867 35.3687L122.7 39.6444L121.687 39.8416L120.54 33.9522L121.635 33.7389L124.065 36.3589L125.334 33.0188L126.429 32.8055ZM132.87 31.5514L133.895 31.3519L135.042 37.2413L134.017 37.4408L133.82 36.4278C133.46 37.3046 132.794 37.8378 131.82 38.0274C130.996 38.1879 130.235 38.0264 129.538 37.5427C128.839 37.0512 128.405 36.3736 128.237 35.5098C128.069 34.646 128.217 33.8592 128.682 33.1492C129.146 32.4314 129.789 31.9923 130.614 31.8317C131.588 31.6421 132.405 31.8863 133.067 32.5644L132.87 31.5514ZM131.757 37.0127C132.354 36.8965 132.814 36.5992 133.136 36.1207C133.457 35.6344 133.56 35.0929 133.443 34.4961C133.327 33.8993 133.03 33.4396 132.551 33.1171C132.071 32.7868 131.533 32.6797 130.936 32.7959C130.347 32.9106 129.892 33.2111 129.571 33.6974C129.249 34.1759 129.146 34.7135 129.262 35.3103C129.378 35.9071 129.676 36.3706 130.156 36.701C130.635 37.0235 131.168 37.1274 131.757 37.0127ZM139.311 30.2973L139.503 31.2867L136.665 31.8394L137.619 36.7394L136.594 36.9389L135.447 31.0495L139.311 30.2973ZM144.856 29.2176L145.881 29.018L147.027 34.9074L146.003 35.107L145.805 34.094C145.446 34.9708 144.78 35.504 143.806 35.6936C142.982 35.8541 142.221 35.6926 141.524 35.2089C140.825 34.7174 140.391 34.0398 140.223 33.176C140.055 32.3122 140.203 31.5254 140.668 30.8154C141.131 30.0976 141.775 29.6585 142.6 29.4979C143.574 29.3083 144.391 29.5525 145.053 30.2306L144.856 29.2176ZM143.743 34.6789C144.34 34.5627 144.8 34.2654 145.122 33.7869C145.443 33.3006 145.545 32.7591 145.429 32.1623C145.313 31.5655 145.016 31.1058 144.537 30.7833C144.057 30.453 143.519 30.3459 142.922 30.4621C142.333 30.5768 141.878 30.8773 141.557 31.3636C141.235 31.8421 141.132 32.3797 141.248 32.9765C141.364 33.5733 141.662 34.0368 142.142 34.3672C142.62 34.6897 143.154 34.7936 143.743 34.6789ZM151.173 30.9705C151.877 31.1106 152.294 31.5144 152.424 32.1818C152.52 32.6765 152.405 33.1349 152.08 33.5568C151.753 33.971 151.229 34.2483 150.506 34.389C149.328 34.6184 148.447 34.3009 147.863 33.4365L148.625 32.7626C148.978 33.3622 149.547 33.5855 150.332 33.4326C150.725 33.3562 151.011 33.2149 151.191 33.0087C151.377 32.7931 151.444 32.5518 151.392 32.2848C151.346 32.0493 151.219 31.8745 151.009 31.7604C150.807 31.6449 150.557 31.6161 150.259 31.6742L149.399 31.8417L149.218 30.9111L149.854 30.7873C150.152 30.7292 150.37 30.6134 150.507 30.44C150.643 30.2587 150.687 30.0424 150.638 29.7911C150.589 29.5398 150.451 29.3548 150.224 29.2359C150.005 29.1156 149.727 29.0883 149.389 29.154C148.729 29.2824 148.336 29.6484 148.209 30.2518L147.279 29.9317C147.527 28.9869 148.169 28.4135 149.206 28.2117C149.849 28.0863 150.388 28.1526 150.821 28.4106C151.262 28.667 151.53 29.0347 151.623 29.5137C151.739 30.1105 151.589 30.5961 151.173 30.9705ZM156.977 26.8574L157.802 26.6969L158.948 32.5863L157.935 32.7835L157.13 28.6491L154.673 33.4188L153.848 33.5793L152.701 27.6899L153.714 27.4927L154.519 31.6271L156.977 26.8574ZM163.437 25.5996L164.462 25.4001L165.608 31.2894L164.584 31.489L164.104 29.0272L161.054 29.6212L161.533 32.083L160.508 32.2825L159.362 26.3931L160.386 26.1936L160.863 28.6436L163.914 28.0496L163.437 25.5996ZM170.898 24.1468L171.923 23.9473L173.07 29.8367L172.045 30.0362L171.848 29.0232C171.488 29.9 170.822 30.4332 169.848 30.6228C169.024 30.7834 168.263 30.6218 167.566 30.1382C166.867 29.6467 166.433 28.969 166.265 28.1052C166.097 27.2415 166.245 26.4546 166.71 25.7447C167.174 25.0269 167.817 24.5877 168.642 24.4272C169.616 24.2376 170.433 24.4818 171.095 25.1598L170.898 24.1468ZM169.785 29.6082C170.382 29.492 170.842 29.1946 171.164 28.7162C171.485 28.2299 171.588 27.6883 171.471 27.0915C171.355 26.4947 171.058 26.0351 170.579 25.7126C170.099 25.3822 169.561 25.2752 168.964 25.3914C168.375 25.506 167.92 25.8065 167.599 26.2928C167.277 26.7713 167.174 27.3089 167.29 27.9057C167.406 28.5025 167.704 28.9661 168.184 29.2964C168.663 29.6189 169.196 29.7228 169.785 29.6082ZM179.734 28.539L178.533 28.7729L176.45 26.8678L175.223 29.4174L174.021 29.6513L175.693 26.1838L173.004 23.7367L174.217 23.5005L176.136 25.2541L177.256 22.9088L178.458 22.6748L176.893 25.9381L179.734 28.539Z" fill="white"/>
<rect x="86.1971" y="48.2246" width="228.924" height="45" rx="22.5" transform="rotate(1.39254 86.1971 48.2246)" fill="#612B8B"/>
<path d="M101.307 69.159L101.163 75.1572L100.119 75.1323L100.239 70.1297L97.1319 70.0555L97.0124 75.058L95.9687 75.0331L96.112 69.0348L101.307 69.159ZM106.21 69.1201C107.05 69.1402 107.758 69.4652 108.335 70.0952C108.913 70.7171 109.191 71.468 109.17 72.3478C109.149 73.2275 108.835 73.9682 108.228 74.5699C107.622 75.1636 106.899 75.4504 106.059 75.4303C105.067 75.4066 104.321 74.9927 103.82 74.1885L103.738 77.6195L102.695 77.5945L102.895 69.1969L103.939 69.2219L103.914 70.2536C104.453 69.4742 105.218 69.0964 106.21 69.1201ZM105.951 74.4194C106.551 74.4338 107.06 74.2419 107.478 73.8437C107.895 73.4376 108.112 72.9306 108.126 72.3228C108.141 71.715 107.949 71.2023 107.551 70.7846C107.153 70.359 106.654 70.139 106.054 70.1247C105.446 70.1101 104.933 70.3059 104.515 70.7121C104.098 71.1102 103.882 71.6132 103.867 72.221C103.853 72.8288 104.044 73.3456 104.442 73.7712C104.841 74.1888 105.343 74.4049 105.951 74.4194ZM111.135 72.8749C111.227 73.4132 111.461 73.8349 111.837 74.14C112.222 74.4453 112.699 74.6047 113.266 74.6183C114.058 74.6372 114.641 74.3591 115.015 73.7838L115.891 74.3089C115.285 75.1987 114.395 75.6295 113.219 75.6014C112.267 75.5787 111.498 75.2642 110.913 74.6581C110.335 74.0441 110.057 73.2812 110.079 72.3695C110.101 71.4658 110.411 70.7209 111.009 70.1351C111.607 69.5492 112.37 69.2673 113.298 69.2895C114.177 69.3106 114.886 69.6396 115.423 70.2766C115.968 70.9058 116.23 71.6563 116.209 72.528C116.206 72.68 116.19 72.8356 116.162 72.995L111.135 72.8749ZM113.274 70.2732C112.714 70.2599 112.247 70.4087 111.871 70.7198C111.496 71.023 111.258 71.4374 111.157 71.9631L115.164 72.0589C115.09 71.489 114.876 71.0517 114.523 70.7472C114.17 70.4427 113.754 70.2847 113.274 70.2732ZM122.286 74.6658L123.113 74.6856L123.051 77.2889L122.019 77.2642L122.058 75.6567L117.559 75.5491L117.521 77.1567L116.489 77.132L116.551 74.5288L117.283 74.5463C117.68 74.0276 117.889 73.2924 117.912 72.3407L117.978 69.5574L122.405 69.6633L122.286 74.6658ZM118.471 74.5746L121.254 74.6412L121.35 70.6103L118.987 70.5538L118.944 72.3653C118.922 73.2611 118.765 73.9975 118.471 74.5746ZM126.796 75.926C125.892 75.9044 125.147 75.5865 124.562 74.9723C123.976 74.3501 123.695 73.5912 123.716 72.6954C123.737 71.7997 124.055 71.0591 124.669 70.4736C125.284 69.8801 126.043 69.5942 126.946 69.6158C127.538 69.6299 128.067 69.7866 128.532 70.0858C128.997 70.377 129.34 70.7653 129.56 71.2507L128.672 71.7336C128.528 71.4101 128.298 71.1485 127.983 70.9489C127.676 70.7495 127.322 70.645 126.922 70.6355C126.322 70.6211 125.814 70.813 125.396 71.2112C124.986 71.6095 124.774 72.1126 124.76 72.7204C124.745 73.3202 124.933 73.8289 125.323 74.2463C125.721 74.6639 126.22 74.8799 126.82 74.8943C127.22 74.9038 127.582 74.8204 127.907 74.6441C128.231 74.4598 128.481 74.2097 128.657 73.8938L129.532 74.4309C129.265 74.8967 128.888 75.2678 128.401 75.5442C127.915 75.8127 127.379 75.9399 126.796 75.926ZM135.041 69.9653L135.017 70.973L132.978 70.9243L132.859 75.9148L131.815 75.8899L131.934 70.8993L129.883 70.8503L129.907 69.8426L135.041 69.9653ZM140.688 70.1003L141.732 70.1252L141.589 76.1235L140.545 76.0986L140.57 75.0669C140.031 75.8462 139.266 76.224 138.274 76.2003C137.434 76.1802 136.726 75.8592 136.148 75.2372C135.571 74.6073 135.293 73.8524 135.314 72.9727C135.335 72.0929 135.649 71.3562 136.255 70.7625C136.862 70.1608 137.585 69.87 138.425 69.8901C139.416 69.9138 140.163 70.3278 140.664 71.132L140.688 70.1003ZM138.43 75.1958C139.038 75.2103 139.551 75.0185 139.968 74.6203C140.386 74.2142 140.602 73.7072 140.617 73.0994C140.631 72.4916 140.439 71.9789 140.041 71.5612C139.643 71.1356 139.14 70.9155 138.533 70.901C137.933 70.8866 137.424 71.0825 137.006 71.4887C136.589 71.8868 136.372 72.3898 136.358 72.9976C136.343 73.6054 136.535 74.1222 136.933 74.5478C137.331 74.9654 137.83 75.1814 138.43 75.1958ZM147.239 73.1737C147.848 73.4443 148.145 73.9155 148.129 74.5873C148.117 75.0832 147.939 75.4871 147.596 75.799C147.261 76.103 146.785 76.2477 146.169 76.233L143.17 76.1613L143.313 70.163L146.073 70.229C146.672 70.2433 147.133 70.4063 147.453 70.7181C147.774 71.0218 147.929 71.4177 147.917 71.9055C147.903 72.4814 147.677 72.9041 147.239 73.1737ZM146.002 71.1635L144.311 71.1231L144.273 72.6947L145.965 72.7351C146.573 72.7496 146.883 72.489 146.896 71.9531C146.908 71.4413 146.61 71.1781 146.002 71.1635ZM146.132 75.2838C146.436 75.2911 146.669 75.2247 146.833 75.0845C147.004 74.9446 147.093 74.7426 147.099 74.4787C147.105 74.2308 147.026 74.0368 146.861 73.8969C146.705 73.7491 146.474 73.6715 146.171 73.6643L144.251 73.6184L144.212 75.2379L146.132 75.2838ZM153.713 70.4116L154.553 70.4317L154.41 76.43L153.378 76.4053L153.479 72.1945L150.055 76.3259L149.215 76.3058L149.359 70.3075L150.39 70.3322L150.29 74.543L153.713 70.4116ZM160.604 70.5763L160.58 71.584L158.541 71.5353L158.422 76.5258L157.378 76.5009L157.497 71.5103L155.446 71.4613L155.47 70.4536L160.604 70.5763ZM165.874 70.7023L166.714 70.7223L166.57 76.7206L165.539 76.696L165.639 72.4852L162.216 76.6165L161.376 76.5965L161.519 70.5982L162.551 70.6228L162.45 74.8336L165.874 70.7023ZM170.974 76.9819C170.071 76.9603 169.326 76.6424 168.741 76.0283C168.155 75.4061 167.873 74.6472 167.895 73.7514C167.916 72.8557 168.234 72.1151 168.848 71.5296C169.462 70.9361 170.222 70.6501 171.125 70.6717C171.717 70.6859 172.246 70.8426 172.71 71.1418C173.176 71.4329 173.518 71.8213 173.739 72.3067L172.851 72.7896C172.707 72.466 172.477 72.2045 172.162 72.0049C171.854 71.8055 171.501 71.701 171.101 71.6914C170.501 71.6771 169.992 71.869 169.575 72.2671C169.165 72.6655 168.953 73.1685 168.938 73.7764C168.924 74.3762 169.112 74.8848 169.502 75.3023C169.9 75.7199 170.399 75.9359 170.999 75.9502C171.399 75.9598 171.761 75.8764 172.085 75.7001C172.41 75.5158 172.66 75.2657 172.836 74.9498L173.711 75.4869C173.444 75.9526 173.067 76.3237 172.58 76.6002C172.093 76.8686 171.558 76.9959 170.974 76.9819ZM179.221 71.0213L179.077 77.0196L178.046 76.9949L178.097 74.8355L177.222 74.8146L175.49 76.9338L174.219 76.9034L176.023 74.7259C175.578 74.6033 175.22 74.3706 174.948 74.028C174.676 73.6854 174.545 73.2902 174.556 72.8423C174.569 72.2905 174.776 71.8353 175.177 71.4768C175.577 71.1183 176.074 70.9461 176.666 70.9602L179.221 71.0213ZM176.632 73.8642L178.12 73.8998L178.166 71.9683L176.678 71.9328C176.382 71.9257 176.128 72.0077 175.916 72.1786C175.704 72.3496 175.594 72.5831 175.587 72.879C175.581 73.1669 175.679 73.4013 175.883 73.5822C176.086 73.7632 176.336 73.8572 176.632 73.8642ZM184.356 70.0517C184.156 70.0469 183.989 69.9749 183.857 69.8357C183.724 69.6965 183.66 69.5309 183.665 69.339C183.669 69.147 183.741 68.9847 183.88 68.852C184.02 68.7113 184.189 68.6433 184.389 68.6481C184.581 68.6527 184.743 68.7286 184.876 68.8758C185.009 69.015 185.073 69.1806 185.068 69.3725C185.064 69.5645 184.992 69.7268 184.852 69.8595C184.713 69.9922 184.548 70.0563 184.356 70.0517ZM183.658 77.1291L183.802 71.1308L184.846 71.1557L184.702 77.154L183.658 77.1291ZM193.588 71.3647L194.631 71.3896L194.488 77.3879L193.444 77.363L193.504 74.8557L190.397 74.7814L190.337 77.2887L189.294 77.2638L189.437 71.2655L190.481 71.2904L190.421 73.7857L193.528 73.86L193.588 71.3647ZM201.187 71.5463L202.23 71.5713L202.087 77.5696L201.043 77.5446L201.068 76.5129C200.529 77.2922 199.764 77.6701 198.772 77.6464C197.933 77.6263 197.224 77.3053 196.647 76.6833C196.07 76.0533 195.792 75.2985 195.813 74.4187C195.834 73.539 196.147 72.8023 196.754 72.2086C197.36 71.6069 198.083 71.3161 198.923 71.3362C199.915 71.3599 200.661 71.7738 201.162 72.578L201.187 71.5463ZM198.928 76.6418C199.536 76.6563 200.049 76.4645 200.467 76.0664C200.884 75.6603 201.101 75.1533 201.115 74.5455C201.13 73.9376 200.938 73.4249 200.54 73.0073C200.142 72.5816 199.639 72.3616 199.031 72.347C198.431 72.3327 197.922 72.5286 197.505 72.9347C197.087 73.3329 196.871 73.8358 196.856 74.4437C196.842 75.0515 197.033 75.5682 197.431 75.9939C197.83 76.4115 198.328 76.6275 198.928 76.6418ZM207.737 74.6197C208.347 74.8904 208.643 75.3616 208.627 76.0334C208.616 76.5293 208.438 76.9331 208.094 77.245C207.759 77.5491 207.283 77.6938 206.667 77.679L203.668 77.6074L203.812 71.6091L206.571 71.675C207.171 71.6894 207.631 71.8524 207.952 72.1641C208.272 72.4679 208.427 72.8637 208.415 73.3516C208.402 73.9274 208.175 74.3501 207.737 74.6197ZM206.501 72.6096L204.809 72.5692L204.772 74.1407L206.463 74.1812C207.071 74.1957 207.381 73.935 207.394 73.3992C207.406 72.8873 207.108 72.6241 206.501 72.6096ZM206.63 76.7299C206.934 76.7371 207.168 76.6707 207.331 76.5306C207.503 76.3906 207.591 76.1887 207.598 75.9248C207.604 75.6768 207.524 75.4829 207.36 75.3429C207.203 75.1951 206.973 75.1176 206.669 75.1103L204.749 75.0645L204.711 76.684L206.63 76.7299ZM213.495 71.8405L214.539 71.8655L214.396 77.8638L213.352 77.8388L213.403 75.6794C212.919 75.8759 212.376 75.967 211.776 75.9526C211.009 75.9343 210.417 75.7401 210.002 75.3701C209.595 74.9922 209.4 74.4474 209.417 73.7356L209.464 71.7442L210.508 71.7691L210.462 73.7006C210.451 74.1484 210.564 74.4712 210.799 74.6689C211.042 74.8668 211.4 74.9713 211.872 74.9826C212.44 74.9962 212.958 74.9046 213.427 74.7077L213.495 71.8405ZM220.479 72.0075L221.319 72.0275L221.176 78.0258L220.144 78.0012L220.245 73.7904L216.821 77.9217L215.981 77.9017L216.125 71.9034L217.156 71.928L217.056 76.1388L220.479 72.0075ZM227.371 72.1722L227.346 73.1799L225.307 73.1311L225.188 78.1217L224.144 78.0968L224.263 73.1062L222.212 73.0572L222.236 72.0494L227.371 72.1722ZM232.64 72.2981L233.48 72.3182L233.336 78.3165L232.305 78.2918L232.405 74.081L228.982 78.2124L228.142 78.1923L228.285 72.194L229.317 72.2187L229.216 76.4295L232.64 72.2981ZM237.741 78.5778C236.837 78.5562 236.092 78.2383 235.507 77.6241C234.921 77.002 234.639 76.243 234.661 75.3473C234.682 74.4515 235 73.7109 235.614 73.1254C236.229 72.5319 236.988 72.246 237.891 72.2676C238.483 72.2817 239.012 72.4384 239.477 72.7376C239.942 73.0288 240.285 73.4171 240.505 73.9025L239.617 74.3854C239.473 74.0619 239.243 73.8003 238.928 73.6007C238.62 73.4013 238.267 73.2969 237.867 73.2873C237.267 73.273 236.758 73.4649 236.341 73.863C235.931 74.2613 235.719 74.7644 235.705 75.3722C235.69 75.9721 235.878 76.4807 236.268 76.8981C236.666 77.3158 237.165 77.5318 237.765 77.5461C238.165 77.5557 238.527 77.4723 238.851 77.296C239.176 77.1117 239.426 76.8616 239.602 76.5457L240.477 77.0828C240.21 77.5485 239.833 77.9196 239.346 78.1961C238.86 78.4645 238.324 78.5918 237.741 78.5778ZM245.987 72.6171L245.844 78.6154L244.812 78.5908L244.863 76.4314L243.988 76.4105L242.257 78.5297L240.985 78.4993L242.789 76.3218C242.344 76.1991 241.986 75.9665 241.714 75.6239C241.442 75.2813 241.311 74.8861 241.322 74.4382C241.335 73.8864 241.542 73.4312 241.943 73.0726C242.344 72.7141 242.84 72.5419 243.432 72.5561L245.987 72.6171ZM243.398 75.4601L244.886 75.4957L244.932 73.5642L243.444 73.5287C243.148 73.5216 242.894 73.6035 242.682 73.7745C242.47 73.9455 242.361 74.1789 242.353 74.4749C242.347 74.7628 242.445 74.9972 242.649 75.1781C242.852 75.359 243.102 75.453 243.398 75.4601ZM253.883 72.6498C254.722 72.6699 255.431 72.9949 256.008 73.6249C256.585 74.2469 256.863 74.9977 256.842 75.8775C256.821 76.7572 256.508 77.4979 255.901 78.0996C255.295 78.6933 254.572 78.9801 253.732 78.96C252.74 78.9363 251.994 78.5224 251.493 77.7182L251.411 81.1492L250.367 81.1242L250.568 72.7266L251.612 72.7516L251.587 73.7833C252.126 73.0039 252.891 72.6261 253.883 72.6498ZM253.624 77.9492C254.224 77.9635 254.733 77.7716 255.15 77.3735C255.568 76.9673 255.784 76.4604 255.799 75.8525C255.813 75.2447 255.621 74.732 255.223 74.3143C254.825 73.8887 254.326 73.6687 253.727 73.6544C253.119 73.6399 252.606 73.8357 252.188 74.2418C251.771 74.6399 251.554 75.1429 251.54 75.7507C251.525 76.3586 251.717 76.8753 252.115 77.3009C252.513 77.7186 253.016 77.9346 253.624 77.9492ZM263.126 73.0268L264.17 73.0518L264.026 79.05L262.983 79.0251L263.007 77.9934C262.469 78.7727 261.703 79.1506 260.712 79.1269C259.872 79.1068 259.163 78.7858 258.586 78.1638C258.009 77.5338 257.731 76.779 257.752 75.8992C257.773 75.0195 258.087 74.2828 258.693 73.6891C259.3 73.0874 260.023 72.7966 260.862 72.8167C261.854 72.8404 262.6 73.2543 263.101 74.0585L263.126 73.0268ZM260.868 78.1223C261.475 78.1368 261.988 77.945 262.406 77.5469C262.824 77.1408 263.04 76.6338 263.054 76.026C263.069 75.4181 262.877 74.9054 262.479 74.4878C262.081 74.0621 261.578 73.8421 260.97 73.8275C260.37 73.8132 259.862 74.0091 259.444 74.4152C259.026 74.8134 258.81 75.3163 258.796 75.9242C258.781 76.532 258.973 77.0487 259.371 77.4743C259.769 77.892 260.268 78.108 260.868 78.1223ZM270.814 79.2123L269.591 79.183L267.965 76.8755L266.22 79.1025L264.996 79.0732L267.373 76.0452L265.271 73.0781L266.507 73.1076L268.005 75.232L269.602 73.1816L270.826 73.2109L268.597 76.0624L270.814 79.2123ZM276.112 73.3372L277.228 73.3639L274.628 79.6756C274.356 80.3492 273.984 80.8565 273.511 81.1973C273.039 81.5461 272.507 81.6935 271.916 81.6393L271.94 80.6676C272.674 80.7412 273.223 80.3542 273.588 79.5067L273.689 79.293L271.229 73.2205L272.333 73.2469L274.272 77.9986L276.112 73.3372ZM282.024 76.3954C282.634 76.666 282.931 77.1372 282.915 77.809C282.903 78.3049 282.725 78.7088 282.382 79.0206C282.046 79.3247 281.571 79.4694 280.955 79.4547L277.956 79.383L278.099 73.3847L280.858 73.4507C281.458 73.465 281.918 73.628 282.239 73.9398C282.56 74.2435 282.714 74.6393 282.703 75.1272C282.689 75.703 282.463 76.1258 282.024 76.3954ZM280.788 74.3852L279.096 74.3448L279.059 75.9164L280.75 75.9568C281.358 75.9713 281.669 75.7107 281.681 75.1748C281.694 74.663 281.396 74.3998 280.788 74.3852ZM280.918 78.5055C281.221 78.5128 281.455 78.4463 281.619 78.3062C281.79 78.1663 281.879 77.9643 281.885 77.7004C281.891 77.4525 281.812 77.2585 281.647 77.1185C281.49 76.9708 281.26 76.8932 280.956 76.886L279.037 76.8401L278.998 78.4596L280.918 78.5055ZM289.111 73.6479L290.155 73.6729L290.011 79.6711L288.967 79.6462L288.992 78.6145C288.453 79.3938 287.688 79.7717 286.696 79.748C285.857 79.7279 285.148 79.4069 284.571 78.7849C283.994 78.1549 283.716 77.4001 283.737 76.5203C283.758 75.6406 284.071 74.9038 284.678 74.3102C285.284 73.7085 286.007 73.4177 286.847 73.4378C287.839 73.4615 288.585 73.8754 289.086 74.6796L289.111 73.6479ZM286.852 78.7434C287.46 78.7579 287.973 78.5661 288.391 78.168C288.808 77.7619 289.025 77.2549 289.039 76.6471C289.054 76.0392 288.862 75.5265 288.464 75.1089C288.066 74.6832 287.563 74.4632 286.955 74.4486C286.355 74.4343 285.846 74.6302 285.429 75.0363C285.011 75.4345 284.795 75.9374 284.78 76.5453C284.766 77.1531 284.958 77.6698 285.355 78.0954C285.754 78.5131 286.253 78.7291 286.852 78.7434ZM296.199 73.8173L296.174 74.825L294.135 74.7763L294.016 79.7669L292.972 79.7419L293.091 74.7513L291.04 74.7023L291.064 73.6946L296.199 73.8173ZM301.468 73.9433L302.308 73.9633L302.164 79.9616L301.133 79.937L301.233 75.7262L297.81 79.8575L296.97 79.8375L297.113 73.8392L298.145 73.8638L298.044 78.0746L301.468 73.9433Z" fill="white"/>
<rect x="35" y="107.297" width="180.856" height="45" rx="22.5" transform="rotate(-10.609 35 107.297)" fill="#00AAFF"/>
<path d="M77.83 125.259C77.3368 125.97 76.6577 126.407 75.7928 126.569C74.928 126.731 74.1367 126.571 73.4191 126.087C72.7094 125.601 72.2726 124.922 72.1087 124.049C71.9449 123.177 72.1057 122.385 72.591 121.676C73.0843 120.964 73.7633 120.528 74.6282 120.365C75.4931 120.203 76.2844 120.364 77.002 120.848C77.7196 121.332 78.1603 122.01 78.3242 122.883C78.488 123.755 78.3233 124.547 77.83 125.259ZM75.6046 125.566C76.1943 125.456 76.6521 125.162 76.9778 124.686C77.3035 124.21 77.4103 123.673 77.2981 123.075C77.1859 122.478 76.8917 122.016 76.4154 121.69C75.9391 121.365 75.4061 121.257 74.8164 121.368C74.2346 121.477 73.7808 121.77 73.4551 122.246C73.1294 122.722 73.0226 123.259 73.1348 123.857C73.247 124.454 73.5412 124.916 74.0175 125.242C74.4938 125.567 75.0228 125.676 75.6046 125.566ZM82.7933 125.255C81.9206 125.419 81.1472 125.267 80.4734 124.799C79.7995 124.331 79.3777 123.645 79.208 122.741C79.019 121.735 79.0191 120.933 79.2082 120.336C79.4051 119.737 79.9183 119.132 80.7477 118.521C80.898 118.411 81.1029 118.267 81.3624 118.088C81.6297 117.907 81.8243 117.773 81.9461 117.685C82.0665 117.589 82.1989 117.471 82.3434 117.33C82.4863 117.181 82.5846 117.032 82.6381 116.884C82.698 116.726 82.7307 116.553 82.7361 116.365L83.6502 116.681C83.6502 116.812 83.6409 116.936 83.6223 117.053C83.6021 117.163 83.5624 117.276 83.5029 117.393C83.4499 117.5 83.4025 117.595 83.3607 117.676C83.319 117.757 83.2394 117.853 83.1219 117.965C83.0109 118.067 82.9276 118.144 82.8721 118.195C82.8244 118.245 82.7215 118.325 82.5633 118.436C82.4129 118.546 82.3092 118.622 82.2522 118.665C82.2016 118.699 82.0822 118.779 81.894 118.904C81.7044 119.021 81.5882 119.095 81.5454 119.128C81.0536 119.456 80.704 119.762 80.4967 120.045C80.2972 120.327 80.1764 120.659 80.1342 121.041C80.3268 120.679 80.5977 120.388 80.9471 120.168C81.2964 119.948 81.6598 119.802 82.0372 119.731C82.7763 119.593 83.4486 119.727 84.0542 120.134C84.6676 120.54 85.0488 121.14 85.1979 121.934C85.3485 122.736 85.198 123.452 84.7465 124.082C84.2935 124.705 83.6425 125.095 82.7933 125.255ZM81.13 124.004C81.5645 124.281 82.0569 124.367 82.6073 124.264C83.1577 124.161 83.5781 123.907 83.8684 123.502C84.1666 123.096 84.2678 122.638 84.1718 122.127C84.0729 121.6 83.8195 121.204 83.4116 120.939C83.01 120.664 82.5301 120.579 81.9718 120.684C81.4686 120.778 81.0429 121.025 80.6945 121.424C80.3526 121.814 80.2303 122.268 80.3277 122.787C80.4281 123.322 80.6955 123.728 81.13 124.004ZM89.5404 117.725L89.7264 118.715L86.884 119.249L87.8051 124.155L86.779 124.348L85.672 118.451L89.5404 117.725ZM96.1545 121.819C95.6612 122.53 94.9822 122.967 94.1173 123.129C93.2524 123.291 92.4611 123.131 91.7435 122.647C91.0338 122.161 90.597 121.482 90.4332 120.609C90.2693 119.737 90.4301 118.945 90.9155 118.236C91.4087 117.524 92.0878 117.088 92.9527 116.925C93.8176 116.763 94.6088 116.924 95.3264 117.408C96.044 117.892 96.4847 118.57 96.6486 119.443C96.8124 120.315 96.6477 121.107 96.1545 121.819ZM93.9291 122.126C94.5188 122.016 94.9765 121.722 95.3022 121.246C95.6279 120.77 95.7347 120.233 95.6225 119.635C95.5103 119.038 95.2161 118.576 94.7398 118.25C94.2636 117.925 93.7306 117.817 93.1409 117.928C92.559 118.037 92.1053 118.33 91.7795 118.806C91.4538 119.282 91.3471 119.819 91.4592 120.417C91.5714 121.014 91.8656 121.476 92.3419 121.802C92.8182 122.127 93.3472 122.236 93.9291 122.126ZM101.77 118.396C102.423 118.534 102.811 118.933 102.935 119.593C103.027 120.081 102.937 120.513 102.666 120.889C102.401 121.256 101.966 121.497 101.36 121.61L98.4117 122.164L97.3047 116.267L100.017 115.758C100.607 115.647 101.091 115.711 101.47 115.949C101.847 116.18 102.08 116.535 102.17 117.014C102.276 117.58 102.143 118.041 101.77 118.396ZM100.143 116.687L98.4799 116.999L98.7699 118.544L100.433 118.232C101.03 118.119 101.28 117.8 101.181 117.273C101.086 116.77 100.74 116.574 100.143 116.687ZM101.126 120.69C101.425 120.634 101.64 120.52 101.771 120.349C101.909 120.177 101.954 119.961 101.905 119.701C101.86 119.457 101.742 119.284 101.551 119.182C101.368 119.07 101.126 119.042 100.827 119.098L98.9404 119.452L99.2393 121.044L101.126 120.69ZM109.192 119.371C108.699 120.082 108.02 120.519 107.155 120.681C106.29 120.844 105.499 120.683 104.781 120.199C104.072 119.714 103.635 119.035 103.471 118.162C103.307 117.289 103.468 116.498 103.953 115.788C104.447 115.077 105.126 114.64 105.991 114.478C106.855 114.315 107.647 114.476 108.364 114.96C109.082 115.444 109.523 116.122 109.686 116.995C109.85 117.868 109.686 118.66 109.192 119.371ZM106.967 119.679C107.557 119.568 108.014 119.275 108.34 118.798C108.666 118.322 108.773 117.785 108.66 117.188C108.548 116.59 108.254 116.128 107.778 115.803C107.301 115.477 106.768 115.369 106.179 115.48C105.597 115.589 105.143 115.882 104.817 116.358C104.492 116.835 104.385 117.372 104.497 117.969C104.609 118.567 104.904 119.028 105.38 119.354C105.856 119.68 106.385 119.788 106.967 119.679ZM113.569 113.055C114.394 112.9 115.155 113.071 115.851 113.567C116.545 114.055 116.973 114.732 117.135 115.597C117.297 116.462 117.145 117.251 116.676 117.966C116.207 118.673 115.559 119.104 114.734 119.259C113.759 119.442 112.942 119.192 112.285 118.51L112.918 121.883L111.892 122.075L110.343 113.819L111.369 113.627L111.559 114.641C111.924 113.767 112.594 113.238 113.569 113.055ZM114.418 118.292C115.007 118.182 115.465 117.888 115.791 117.412C116.115 116.928 116.221 116.387 116.109 115.789C115.997 115.192 115.703 114.73 115.226 114.404C114.749 114.071 114.215 113.959 113.625 114.07C113.028 114.182 112.567 114.48 112.242 114.965C111.917 115.441 111.81 115.978 111.922 116.575C112.034 117.173 112.329 117.638 112.807 117.972C113.283 118.298 113.82 118.404 114.418 118.292ZM122.931 111.297C123.796 111.135 124.583 111.297 125.293 111.782C126.011 112.266 126.451 112.944 126.615 113.817C126.779 114.69 126.614 115.482 126.121 116.193C125.636 116.903 124.961 117.339 124.096 117.501C123.317 117.647 122.599 117.526 121.939 117.137C121.28 116.748 120.825 116.186 120.573 115.452L119.476 115.658L119.939 118.123L118.913 118.315L117.806 112.418L118.832 112.226L119.293 114.679L120.389 114.473C120.358 113.697 120.579 113.013 121.054 112.419C121.535 111.816 122.161 111.442 122.931 111.297ZM123.908 116.499C124.489 116.389 124.943 116.097 125.269 115.62C125.595 115.144 125.701 114.607 125.589 114.01C125.477 113.412 125.183 112.95 124.706 112.625C124.23 112.299 123.701 112.191 123.119 112.3C122.53 112.411 122.072 112.704 121.746 113.18C121.42 113.657 121.314 114.194 121.426 114.791C121.538 115.389 121.832 115.85 122.309 116.176C122.785 116.502 123.318 116.609 123.908 116.499ZM131.75 112.768C132.403 112.905 132.791 113.305 132.915 113.965C133.007 114.453 132.917 114.885 132.646 115.261C132.381 115.628 131.946 115.869 131.34 115.982L128.392 116.536L127.285 110.639L129.997 110.13C130.587 110.019 131.071 110.083 131.45 110.321C131.827 110.551 132.06 110.906 132.15 111.386C132.257 111.952 132.123 112.413 131.75 112.768ZM130.123 111.058L128.46 111.371L128.75 112.916L130.413 112.603C131.011 112.491 131.26 112.172 131.161 111.645C131.067 111.142 130.721 110.946 130.123 111.058ZM131.107 115.062C131.405 115.006 131.62 114.892 131.751 114.721C131.889 114.548 131.934 114.332 131.885 114.073C131.84 113.829 131.722 113.656 131.532 113.553C131.348 113.441 131.106 113.413 130.808 113.469L128.921 113.824L129.219 115.416L131.107 115.062ZM138.111 108.607L139.137 108.414L140.244 114.311L139.218 114.504L139.027 113.489C138.662 114.364 137.992 114.892 137.017 115.075C136.192 115.23 135.432 115.064 134.738 114.575C134.043 114.079 133.614 113.399 133.451 112.534C133.289 111.669 133.443 110.883 133.912 110.176C134.38 109.461 135.027 109.027 135.853 108.872C136.828 108.689 137.644 108.938 138.301 109.621L138.111 108.607ZM136.961 114.06C137.559 113.948 138.02 113.654 138.346 113.178C138.67 112.693 138.776 112.153 138.664 111.555C138.552 110.957 138.258 110.496 137.781 110.17C137.304 109.837 136.766 109.726 136.169 109.838C135.579 109.949 135.122 110.246 134.798 110.73C134.472 111.207 134.365 111.743 134.477 112.341C134.589 112.939 134.884 113.404 135.362 113.738C135.838 114.063 136.371 114.171 136.961 114.06ZM145.079 107.298L145.265 108.289L143.26 108.666L144.181 113.572L143.155 113.764L142.234 108.858L140.217 109.237L140.031 108.246L145.079 107.298ZM150.259 106.326L151.085 106.171L152.192 112.068L151.177 112.258L150.4 108.119L147.91 112.872L147.085 113.027L145.978 107.13L146.992 106.939L147.769 111.079L150.259 106.326ZM161.682 105.097C162.338 105.56 162.743 106.196 162.895 107.006C163.047 107.816 162.901 108.556 162.457 109.225C162.012 109.895 161.34 110.367 160.439 110.642L160.86 112.883L159.846 113.073L159.425 110.832C158.486 110.903 157.688 110.706 157.031 110.244C156.375 109.781 155.97 109.145 155.818 108.335C155.666 107.525 155.812 106.785 156.256 106.116C156.701 105.446 157.373 104.974 158.274 104.699L157.853 102.458L158.867 102.268L159.288 104.509C160.227 104.438 161.025 104.635 161.682 105.097ZM156.833 108.144C156.934 108.687 157.198 109.114 157.622 109.425C158.055 109.734 158.594 109.873 159.239 109.841L158.46 105.69C157.845 105.887 157.393 106.208 157.102 106.653C156.819 107.097 156.729 107.594 156.833 108.144ZM160.253 109.651C160.866 109.446 161.314 109.122 161.597 108.678C161.88 108.235 161.97 107.741 161.869 107.199C161.767 106.656 161.504 106.23 161.079 105.919C160.654 105.608 160.119 105.468 159.474 105.5L160.253 109.651ZM163.871 102.659C163.675 102.696 163.497 102.661 163.338 102.552C163.179 102.443 163.082 102.295 163.047 102.106C163.011 101.917 163.048 101.744 163.157 101.585C163.264 101.418 163.416 101.316 163.612 101.28C163.801 101.244 163.975 101.285 164.135 101.401C164.294 101.51 164.391 101.658 164.427 101.847C164.462 102.036 164.426 102.209 164.317 102.368C164.208 102.527 164.06 102.624 163.871 102.659ZM164.661 109.727L163.554 103.83L164.58 103.638L165.687 109.535L164.661 109.727ZM171.063 102.42L172.17 108.317L171.144 108.51L170.223 103.604L167.9 104.04L168.351 106.446C168.533 107.413 168.463 108.126 168.142 108.585C167.828 109.035 167.311 109.295 166.592 109.365L166.41 108.398C166.821 108.377 167.104 108.235 167.258 107.97C167.418 107.696 167.439 107.244 167.321 106.615L166.688 103.242L171.063 102.42ZM175.505 103.784C176.095 103.674 176.615 103.759 177.067 104.04C177.525 104.313 177.807 104.728 177.911 105.286C178.016 105.844 177.905 106.337 177.579 106.765C177.258 107.183 176.803 107.448 176.214 107.558L173.725 108.025L172.618 102.129L173.644 101.936L174.043 104.059L175.505 103.784ZM176.034 106.603C176.325 106.548 176.553 106.42 176.719 106.218C176.891 106.007 176.95 105.76 176.897 105.476C176.844 105.193 176.699 104.985 176.462 104.85C176.233 104.714 175.973 104.673 175.682 104.728L174.22 105.002L174.572 106.878L176.034 106.603ZM184.159 99.962L185.266 105.859L184.263 106.047L183.459 101.766L182.151 105.137L182.021 105.162L179.579 102.494L180.383 106.776L179.369 106.966L178.262 101.069L179.358 100.863L181.77 103.499L183.062 100.168L184.159 99.962Z" fill="white"/>
</svg>
