<svg width="127" height="199" viewBox="0 0 127 199" fill="none" xmlns="http://www.w3.org/2000/svg">
<circle cx="63.5" cy="135.5" r="63.5" fill="#00AAFF"/>
<path d="M39.6014 129.592H40.8014V133.144H39.3134V131H31.4734V119.8H32.9614V129.592H38.1134V119.8H39.6014V129.592ZM43.0398 127.64C43.1785 128.355 43.5038 128.909 44.0158 129.304C44.5385 129.699 45.1785 129.896 45.9358 129.896C46.9918 129.896 47.7598 129.507 48.2398 128.728L49.4238 129.4C48.6451 130.605 47.4718 131.208 45.9038 131.208C44.6345 131.208 43.5998 130.813 42.7998 130.024C42.0105 129.224 41.6158 128.216 41.6158 127C41.6158 125.795 42.0051 124.792 42.7838 123.992C43.5625 123.192 44.5705 122.792 45.8078 122.792C46.9811 122.792 47.9358 123.208 48.6718 124.04C49.4185 124.861 49.7918 125.853 49.7918 127.016C49.7918 127.219 49.7758 127.427 49.7438 127.64H43.0398ZM45.8078 124.104C45.0611 124.104 44.4425 124.317 43.9518 124.744C43.4611 125.16 43.1571 125.72 43.0398 126.424H48.3838C48.2665 125.667 47.9678 125.091 47.4878 124.696C47.0078 124.301 46.4478 124.104 45.8078 124.104ZM60.9279 123H62.3199V131H60.9279V127.656H56.7839V131H55.3919V123H56.7839V126.328H60.9279V123ZM71.0628 123H72.4548V131H71.0628V129.624C70.3695 130.68 69.3615 131.208 68.0388 131.208C66.9188 131.208 65.9641 130.803 65.1748 129.992C64.3855 129.171 63.9908 128.173 63.9908 127C63.9908 125.827 64.3855 124.835 65.1748 124.024C65.9641 123.203 66.9188 122.792 68.0388 122.792C69.3615 122.792 70.3695 123.32 71.0628 124.376V123ZM68.2148 129.864C69.0255 129.864 69.7028 129.592 70.2468 129.048C70.7908 128.493 71.0628 127.811 71.0628 127C71.0628 126.189 70.7908 125.512 70.2468 124.968C69.7028 124.413 69.0255 124.136 68.2148 124.136C67.4148 124.136 66.7428 124.413 66.1988 124.968C65.6548 125.512 65.3828 126.189 65.3828 127C65.3828 127.811 65.6548 128.493 66.1988 129.048C66.7428 129.592 67.4148 129.864 68.2148 129.864ZM84.1318 123H85.5238V131H74.5638V123H75.9558V129.672H79.3478V123H80.7398V129.672H84.1318V123ZM94.2816 123H95.6736V131H94.2816V129.624C93.5882 130.68 92.5802 131.208 91.2576 131.208C90.1376 131.208 89.1829 130.803 88.3936 129.992C87.6042 129.171 87.2096 128.173 87.2096 127C87.2096 125.827 87.6042 124.835 88.3936 124.024C89.1829 123.203 90.1376 122.792 91.2576 122.792C92.5802 122.792 93.5882 123.32 94.2816 124.376V123ZM91.4336 129.864C92.2442 129.864 92.9216 129.592 93.4656 129.048C94.0096 128.493 94.2816 127.811 94.2816 127C94.2816 126.189 94.0096 125.512 93.4656 124.968C92.9216 124.413 92.2442 124.136 91.4336 124.136C90.6336 124.136 89.9616 124.413 89.4176 124.968C88.8736 125.512 88.6016 126.189 88.6016 127C88.6016 127.811 88.8736 128.493 89.4176 129.048C89.9616 129.592 90.6336 129.864 91.4336 129.864ZM32.2668 147.888C33.0881 148.229 33.4988 148.848 33.4988 149.744C33.4988 150.405 33.2748 150.949 32.8268 151.376C32.3895 151.792 31.7601 152 30.9388 152H26.9388V144H30.6188C31.4188 144 32.0375 144.203 32.4748 144.608C32.9121 145.003 33.1308 145.525 33.1308 146.176C33.1308 146.944 32.8428 147.515 32.2668 147.888ZM30.5548 145.248H28.2988V147.344H30.5548C31.3655 147.344 31.7708 146.987 31.7708 146.272C31.7708 145.589 31.3655 145.248 30.5548 145.248ZM30.8588 150.736C31.2641 150.736 31.5735 150.64 31.7868 150.448C32.0108 150.256 32.1228 149.984 32.1228 149.632C32.1228 149.301 32.0108 149.045 31.7868 148.864C31.5735 148.672 31.2641 148.576 30.8588 148.576H28.2988V150.736H30.8588ZM39.8538 144H41.2458V152H39.8538V149.12C39.2138 149.397 38.4938 149.536 37.6938 149.536C36.6698 149.536 35.8751 149.296 35.3098 148.816C34.7551 148.325 34.4778 147.605 34.4778 146.656V144H35.8698V146.576C35.8698 147.173 36.0298 147.6 36.3498 147.856C36.6805 148.112 37.1605 148.24 37.7898 148.24C38.5471 148.24 39.2351 148.101 39.8538 147.824V144ZM49.1687 144H50.2887V152H48.9127V146.384L44.4807 152H43.3607V144H44.7367V149.616L49.1687 144ZM58.3596 144V145.344H55.6396V152H54.2476V145.344H51.5116V144H58.3596ZM60.2429 148.64C60.3816 149.355 60.7069 149.909 61.2189 150.304C61.7416 150.699 62.3816 150.896 63.1389 150.896C64.1949 150.896 64.9629 150.507 65.4429 149.728L66.6269 150.4C65.8483 151.605 64.6749 152.208 63.1069 152.208C61.8376 152.208 60.8029 151.813 60.0029 151.024C59.2136 150.224 58.8189 149.216 58.8189 148C58.8189 146.795 59.2083 145.792 59.9869 144.992C60.7656 144.192 61.7736 143.792 63.0109 143.792C64.1843 143.792 65.1389 144.208 65.8749 145.04C66.6216 145.861 66.9949 146.853 66.9949 148.016C66.9949 148.219 66.9789 148.427 66.9469 148.64H60.2429ZM63.0109 145.104C62.2643 145.104 61.6456 145.317 61.1549 145.744C60.6643 146.16 60.3603 146.72 60.2429 147.424H65.5869C65.4696 146.667 65.1709 146.091 64.6909 145.696C64.2109 145.301 63.6509 145.104 63.0109 145.104ZM74.9546 144V152H73.5626V145.344H70.4106V148.608C70.4106 149.92 70.1439 150.837 69.6106 151.36C69.0879 151.872 68.3466 152.085 67.3866 152V150.688C67.9306 150.763 68.3359 150.645 68.6026 150.336C68.8799 150.016 69.0186 149.429 69.0186 148.576V144H74.9546ZM80.4398 146.88C81.2398 146.88 81.9011 147.12 82.4238 147.6C82.9571 148.069 83.2238 148.683 83.2238 149.44C83.2238 150.197 82.9571 150.816 82.4238 151.296C81.9011 151.765 81.2398 152 80.4398 152H77.0638V144H78.4558V146.88H80.4398ZM80.4398 150.704C80.8345 150.704 81.1651 150.592 81.4318 150.368C81.7091 150.133 81.8478 149.824 81.8478 149.44C81.8478 149.056 81.7091 148.747 81.4318 148.512C81.1651 148.277 80.8345 148.16 80.4398 148.16H78.4558V150.704H80.4398ZM91.4881 152H89.7601L86.1121 148.208V152H84.7201V144H86.1121V147.536L89.5681 144H91.3601L87.5361 147.872L91.4881 152ZM98.6722 144H100.064V152H98.6722V150.624C97.9789 151.68 96.9709 152.208 95.6482 152.208C94.5282 152.208 93.5735 151.803 92.7842 150.992C91.9949 150.171 91.6002 149.173 91.6002 148C91.6002 146.827 91.9949 145.835 92.7842 145.024C93.5735 144.203 94.5282 143.792 95.6482 143.792C96.9709 143.792 97.9789 144.32 98.6722 145.376V144ZM95.8242 150.864C96.6349 150.864 97.3122 150.592 97.8562 150.048C98.4002 149.493 98.6722 148.811 98.6722 148C98.6722 147.189 98.4002 146.512 97.8562 145.968C97.3122 145.413 96.6349 145.136 95.8242 145.136C95.0242 145.136 94.3522 145.413 93.8082 145.968C93.2642 146.512 92.9922 147.189 92.9922 148C92.9922 148.811 93.2642 149.493 93.8082 150.048C94.3522 150.592 95.0242 150.864 95.8242 150.864Z" fill="white"/>
<g clip-path="url(#clip0_250_338)">
<path d="M10.199 71.7427C12.8987 60.3783 20.2961 50.4938 29.0908 43.0585C36.7325 36.6867 45.6057 31.9589 55.1564 29.17C64.7072 26.3812 74.7303 25.5913 84.5999 26.8497C78.7378 22.8355 72.8854 18.814 67.0429 14.7852C65.2241 13.5396 67.5363 11.0255 69.3257 12.2563L92.1779 27.9028C93.3587 28.6988 92.5836 30.3497 91.5689 30.7955L64.2902 42.816C62.2904 43.6488 61.218 40.4437 63.2179 39.5742L84.4526 30.2503C66.5801 27.6237 47.9324 33.1194 33.5549 43.9061C25.0812 50.1387 18.5552 58.653 14.7386 68.4551C12.9412 73.1728 12.2365 78.2366 12.6773 83.2659C13.101 87.5051 14.5358 92.8411 18.6076 94.9439C19.0104 95.1464 19.3162 95.5007 19.4578 95.9287C19.5994 96.3568 19.5652 96.8235 19.3626 97.2263C19.1601 97.6291 18.8058 97.9349 18.3778 98.0765C17.9497 98.2181 17.483 98.1839 17.0802 97.9813C8.21748 93.4142 8.2187 80.0678 10.199 71.7427Z" fill="white"/>
</g>
<defs>
<clipPath id="clip0_250_338">
<rect width="100.059" height="55.9258" fill="white" transform="matrix(-0.449263 0.893399 0.893399 0.449263 44.9526 0)"/>
</clipPath>
</defs>
</svg>
