<svg width="40" height="40" viewBox="0 0 40 40" fill="none" xmlns="http://www.w3.org/2000/svg">
<circle cx="20" cy="20" r="20" fill="#612B8B"/>
<path d="M27.4844 25.1905L22.6711 20.3869C22.5649 20.2863 22.5047 20.1462 22.5047 19.9999C22.5047 19.8536 22.5649 19.7137 22.6711 19.6129L27.4844 14.8092C27.8081 14.4997 27.9939 14.0732 27.9998 13.6257C28.0058 13.1782 27.8317 12.7472 27.5164 12.4289C27.1988 12.1339 26.775 11.9799 26.3417 12.0021C25.9084 12.0243 25.5027 12.2206 25.2167 12.5463L20.4035 17.35C20.3027 17.4561 20.1624 17.5161 20.0158 17.5161C19.8692 17.5161 19.729 17.4561 19.628 17.35L14.8148 12.5463C14.5047 12.2232 14.0773 12.0378 13.6289 12.0319C13.1806 12.0259 12.7487 12.1996 12.4297 12.5142C12.1341 12.8313 11.9799 13.2543 12.0021 13.6867C12.0243 14.119 12.221 14.5241 12.5474 14.8093L17.3606 19.6129C17.4669 19.7137 17.527 19.8536 17.527 19.9999C17.527 20.1462 17.4669 20.2863 17.3606 20.3869L12.5474 25.1906C12.2237 25.5003 12.0379 25.9266 12.0319 26.3741C12.026 26.8216 12.2 27.2528 12.5152 27.5712C12.833 27.8659 13.2568 28.0199 13.6901 27.9979C14.1232 27.9758 14.5291 27.7794 14.8148 27.4537L19.628 22.65C19.729 22.544 19.8692 22.4839 20.0158 22.4839C20.1624 22.4839 20.3028 22.544 20.4035 22.65L25.2167 27.4537C25.5028 27.7794 25.9084 27.9758 26.3417 27.9979C26.775 28.0199 27.1988 27.8659 27.5164 27.5712C27.8318 27.2528 28.0058 26.8216 27.9999 26.3741C27.9939 25.9266 27.8081 25.5003 27.4844 25.1906L27.4844 25.1905Z" fill="white"/>
</svg>
