<svg width="370" height="247" viewBox="0 0 370 247" fill="none" xmlns="http://www.w3.org/2000/svg">
<rect x="43.337" y="51.8862" width="271.632" height="63.8808" rx="30" transform="rotate(-10.9951 43.337 51.8862)" fill="#97CF26"/>
<path d="M87.7686 73.0761C88.7992 72.8754 89.7513 73.0823 90.6248 73.6966C91.4964 74.3012 92.0374 75.1433 92.2476 76.2231C92.4578 77.3028 92.2734 78.2913 91.6942 79.1885C91.1131 80.0759 90.3072 80.62 89.2765 80.8207C88.0594 81.0577 87.0372 80.7524 86.21 79.9049L87.0299 84.1158L85.749 84.3652L83.7422 74.0588L85.0231 73.8093L85.2697 75.0756C85.7185 73.9796 86.5514 73.3131 87.7686 73.0761ZM88.8738 79.6154C89.6099 79.4721 90.1796 79.1014 90.5827 78.5033C90.9839 77.8954 91.1119 77.2185 90.9667 76.4725C90.8214 75.7265 90.4497 75.1519 89.8517 74.7488C89.2517 74.3359 88.5836 74.2011 87.8474 74.3444C87.1014 74.4897 86.5278 74.8662 86.1266 75.4741C85.7235 76.0722 85.5946 76.7442 85.7398 77.4902C85.8851 78.2362 86.2577 78.8157 86.8577 79.2286C87.4557 79.6317 88.1278 79.7607 88.8738 79.6154ZM100.525 77.4689C99.9149 78.3621 99.0698 78.9138 97.9901 79.124C96.9104 79.3342 95.92 79.14 95.0189 78.5411C94.1277 77.9404 93.576 77.0953 93.3638 76.0057C93.1517 74.9162 93.346 73.9258 93.9467 73.0345C94.5573 72.1414 95.4024 71.5897 96.4821 71.3795C97.5618 71.1692 98.5522 71.3635 99.4533 71.9623C100.354 72.5612 100.911 73.4053 101.123 74.4949C101.335 75.5844 101.136 76.5758 100.525 77.4689ZM97.7464 77.8725C98.4826 77.7292 99.0522 77.3585 99.4554 76.7604C99.8585 76.1623 99.9874 75.4903 99.8422 74.7443C99.6969 73.9983 99.3252 73.4238 98.7272 73.0206C98.1291 72.6175 97.462 72.4876 96.7258 72.631C95.9994 72.7724 95.4347 73.1421 95.0316 73.7402C94.6284 74.3383 94.4995 75.0103 94.6448 75.7563C94.79 76.5023 95.1617 77.0768 95.7598 77.48C96.3578 77.8831 97.02 78.0139 97.7464 77.8725ZM106.729 77.4223C105.64 77.6345 104.672 77.4511 103.826 76.8722C102.979 76.2932 102.446 75.4394 102.227 74.3106C101.982 73.0542 101.975 72.052 102.207 71.304C102.448 70.5541 103.084 69.7934 104.116 69.022C104.303 68.8837 104.558 68.7017 104.88 68.4758C105.213 68.248 105.455 68.0787 105.607 67.9676C105.756 67.8468 105.921 67.6976 106.1 67.5201C106.278 67.3327 106.399 67.146 106.465 66.96C106.538 66.7623 106.578 66.5458 106.583 66.3105L107.728 66.6988C107.729 66.8615 107.719 67.0164 107.696 67.1634C107.672 67.3006 107.623 67.4425 107.55 67.5892C107.485 67.7242 107.426 67.8426 107.375 67.9443C107.323 68.046 107.225 68.1671 107.079 68.3075C106.941 68.4363 106.837 68.5328 106.768 68.5972C106.709 68.6597 106.581 68.761 106.384 68.9012C106.197 69.0395 106.068 69.1359 105.998 69.1905C105.935 69.2333 105.786 69.3335 105.552 69.4912C105.316 69.639 105.171 69.7334 105.118 69.7743C104.506 70.189 104.072 70.5741 103.815 70.9297C103.568 71.2834 103.42 71.6994 103.37 72.1777C103.608 71.7239 103.944 71.3579 104.379 71.0797C104.814 70.8014 105.267 70.6165 105.738 70.5247C106.66 70.3451 107.502 70.5072 108.262 71.0112C109.032 71.5132 109.514 72.26 109.707 73.2513C109.902 74.2525 109.72 75.1489 109.161 75.9403C108.6 76.7219 107.789 77.2159 106.729 77.4223ZM104.64 75.8732C105.185 76.2152 105.801 76.3194 106.489 76.1856C107.176 76.0518 107.699 75.7309 108.059 75.2228C108.428 74.7128 108.55 74.1388 108.426 73.5008C108.298 72.8431 107.978 72.3502 107.466 72.022C106.962 71.6822 106.361 71.5801 105.664 71.7158C105.036 71.8381 104.506 72.1502 104.074 72.652C103.65 73.1421 103.501 73.711 103.627 74.3589C103.757 75.0263 104.094 75.5311 104.64 75.8732ZM115.615 67.8527L116.646 67.652L118.079 75.0138L116.813 75.2603L115.807 70.0924L112.734 76.0544L111.704 76.2551L110.27 68.8934L111.537 68.6468L112.543 73.8148L115.615 67.8527ZM124.073 66.2059L124.313 67.4427L121.81 67.93L123.003 74.055L121.722 74.3044L120.529 68.1794L118.012 68.6697L117.771 67.4329L124.073 66.2059ZM130.54 64.9466L131.57 64.746L133.004 72.1077L131.738 72.3543L130.731 67.1863L127.659 73.1484L126.629 73.3491L125.195 65.9873L126.461 65.7408L127.468 70.9087L130.54 64.9466ZM143.576 62.4082L145.01 69.77L143.729 70.0194L142.533 63.8797L138.72 64.6222L139.915 70.7619L138.635 71.0113L137.201 63.6496L143.576 62.4082ZM152.992 67.2529C152.382 68.1461 151.537 68.6978 150.457 68.908C149.377 69.1182 148.387 68.924 147.486 68.3251C146.594 67.7244 146.043 66.8793 145.831 65.7897C145.618 64.7002 145.813 63.7098 146.414 62.8185C147.024 61.9254 147.869 61.3737 148.949 61.1635C150.029 60.9532 151.019 61.1475 151.92 61.7463C152.821 62.3452 153.378 63.1893 153.59 64.2789C153.802 65.3684 153.603 66.3598 152.992 67.2529ZM150.213 67.6565C150.949 67.5132 151.519 67.1425 151.922 66.5444C152.325 65.9463 152.454 65.2743 152.309 64.5283C152.164 63.7823 151.792 63.2078 151.194 62.8046C150.596 62.4015 149.929 62.2716 149.193 62.415C148.466 62.5564 147.901 62.9261 147.498 63.5242C147.095 64.1223 146.966 64.7943 147.112 65.5403C147.257 66.2863 147.628 66.8608 148.227 67.264C148.825 67.6671 149.487 67.7979 150.213 67.6565ZM162.045 66.453L160.455 66.7627L156.418 63.9268L157.098 67.4163L155.817 67.6657L154.383 60.304L155.664 60.0546L156.298 63.3085L158.844 59.4353L160.494 59.1142L157.668 63.3625L162.045 66.453ZM166.725 57.9008L168.095 57.6342L166.613 66.0372C166.462 66.9327 166.143 67.6518 165.658 68.1945C165.175 68.7471 164.565 69.0696 163.829 69.1619L163.597 67.9693C164.513 67.8622 165.08 67.2424 165.298 66.1099L165.364 65.822L160.733 59.0676L162.087 58.8039L165.729 64.0852L166.725 57.9008ZM175.54 56.1846L176.973 63.5463L175.692 63.7957L174.497 57.656L170.683 58.3985L171.879 64.5382L170.598 64.7877L169.164 57.4259L175.54 56.1846ZM185.151 61.954L183.561 62.2636L179.524 59.4278L180.204 62.9172L178.923 63.1666L177.489 55.8049L178.77 55.5555L179.404 58.8094L181.951 54.9362L183.6 54.6152L180.774 58.8634L185.151 61.954ZM190.253 53.3196L191.284 53.1189L192.717 60.4807L191.451 60.7272L190.445 55.5593L187.373 61.5213L186.342 61.722L184.909 54.3603L186.175 54.1137L187.181 59.2817L190.253 53.3196ZM202.514 54.6457C203.331 54.8126 203.82 55.3084 203.98 56.1329C204.099 56.7414 203.99 57.2822 203.654 57.7551C203.327 58.2162 202.785 58.5204 202.029 58.6676L198.348 59.3843L196.915 52.0225L200.301 51.3632C201.037 51.2198 201.643 51.2955 202.118 51.5901C202.591 51.8749 202.886 52.3167 203.002 52.9155C203.14 53.6222 202.977 54.1989 202.514 54.6457ZM200.466 52.5231L198.39 52.9273L198.765 54.8561L200.841 54.4518C201.587 54.3066 201.896 53.9051 201.768 53.2475C201.646 52.6193 201.212 52.3778 200.466 52.5231ZM201.729 57.5188C202.102 57.4461 202.369 57.3024 202.531 57.0875C202.703 56.8706 202.757 56.6003 202.694 56.2764C202.635 55.9721 202.486 55.7566 202.247 55.6298C202.017 55.4914 201.715 55.4585 201.342 55.5311L198.986 55.9898L199.373 57.9775L201.729 57.5188ZM215.376 48.4278L216.81 55.7895L215.558 56.0332L214.518 50.6886L212.911 54.9136L212.749 54.9452L209.674 51.6318L210.714 56.9764L209.448 57.2229L208.015 49.8612L209.384 49.5946L212.421 52.8695L214.007 48.6944L215.376 48.4278ZM223.427 46.8601L224.708 46.6107L226.142 53.9725L224.861 54.2219L224.614 52.9557C224.166 54.0516 223.333 54.7181 222.115 54.9551C221.085 55.1558 220.134 54.9539 219.262 54.3493C218.389 53.7349 217.847 52.8879 217.636 51.8082C217.426 50.7284 217.612 49.7449 218.193 48.8574C218.772 47.9602 219.577 47.4112 220.607 47.2106C221.825 46.9736 222.847 47.2788 223.674 48.1264L223.427 46.8601ZM222.037 53.6868C222.783 53.5416 223.357 53.1699 223.76 52.5718C224.161 51.9639 224.289 51.287 224.144 50.541C223.999 49.795 223.627 49.2205 223.029 48.8173C222.429 48.4044 221.756 48.2705 221.01 48.4158C220.274 48.5591 219.705 48.9348 219.304 49.5427C218.901 50.1407 218.772 50.8128 218.917 51.5587C219.063 52.3047 219.435 52.8842 220.035 53.2971C220.633 53.7003 221.3 53.8302 222.037 53.6868ZM231.478 45.2925L231.719 46.5293L228.171 47.2202L229.364 53.3452L228.083 53.5946L226.649 46.2328L231.478 45.2925ZM238.41 43.9429L239.691 43.6935L241.124 51.0552L239.843 51.3046L239.597 50.0384C239.148 51.1344 238.315 51.8009 237.098 52.0379C236.067 52.2385 235.116 52.0366 234.244 51.432C233.371 50.8177 232.829 49.9706 232.619 48.8909C232.408 47.8112 232.594 46.8276 233.175 45.9402C233.754 45.0429 234.559 44.494 235.59 44.2933C236.807 44.0563 237.829 44.3616 238.656 45.2091L238.41 43.9429ZM237.019 50.7696C237.765 50.6243 238.339 50.2526 238.743 49.6546C239.144 49.0467 239.272 48.3697 239.126 47.6237C238.981 46.8778 238.61 46.3032 238.011 45.9001C237.411 45.4871 236.739 45.3533 235.993 45.4985C235.256 45.6419 234.688 46.0175 234.286 46.6254C233.883 47.2235 233.754 47.8955 233.9 48.6415C234.045 49.3875 234.417 49.9669 235.017 50.3799C235.616 50.783 236.283 50.9129 237.019 50.7696ZM246.306 46.1341C247.186 46.3091 247.707 46.8139 247.869 47.6482C247.99 48.2666 247.847 48.8395 247.44 49.367C247.031 49.8846 246.376 50.2313 245.473 50.4072C244 50.6938 242.899 50.297 242.169 49.2166L243.121 48.3742C243.562 49.1236 244.274 49.4028 245.255 49.2117C245.746 49.1161 246.104 48.9395 246.329 48.6817C246.561 48.4123 246.645 48.1107 246.58 47.777C246.523 47.4825 246.363 47.264 246.101 47.1214C245.849 46.977 245.536 46.9411 245.163 47.0137L244.089 47.223L243.862 46.0598L244.657 45.905C245.03 45.8324 245.302 45.6877 245.474 45.4709C245.644 45.2442 245.698 44.9739 245.637 44.6598C245.576 44.3457 245.404 44.1143 245.12 43.9658C244.846 43.8154 244.498 43.7812 244.076 43.8634C243.252 44.024 242.76 44.4814 242.601 45.2356L241.438 44.8355C241.748 43.6545 242.551 42.9378 243.847 42.6855C244.652 42.5288 245.325 42.6117 245.867 42.9341C246.418 43.2546 246.752 43.7143 246.869 44.313C247.014 45.059 246.826 45.666 246.306 46.1341ZM253.561 40.9927L254.592 40.792L256.025 48.1537L254.759 48.4003L253.753 43.2323L250.681 49.1944L249.65 49.3951L248.217 42.0333L249.483 41.7868L250.489 46.9547L253.561 40.9927ZM261.636 39.4204L262.917 39.171L264.351 46.5327L263.07 46.7821L262.47 43.7049L258.657 44.4474L259.256 47.5246L257.975 47.7741L256.542 40.4123L257.823 40.1629L258.419 43.2254L262.232 42.4829L261.636 39.4204ZM270.962 37.6044L272.243 37.355L273.677 44.7167L272.396 44.9662L272.149 43.6999C271.701 44.7959 270.868 45.4624 269.65 45.6994C268.62 45.9001 267.669 45.6982 266.797 45.0936C265.924 44.4792 265.382 43.6322 265.171 42.5524C264.961 41.4727 265.147 40.4892 265.728 39.6017C266.307 38.7045 267.112 38.1555 268.142 37.9549C269.36 37.7179 270.382 38.0231 271.209 38.8706L270.962 37.6044ZM269.572 44.4311C270.318 44.2858 270.892 43.9142 271.295 43.3161C271.696 42.7082 271.824 42.0313 271.679 41.2853C271.534 40.5393 271.162 39.9647 270.564 39.5616C269.964 39.1487 269.291 39.0148 268.545 39.1601C267.809 39.3034 267.24 39.6791 266.839 40.2869C266.436 40.885 266.307 41.557 266.452 42.303C266.598 43.049 266.97 43.6285 267.57 44.0414C268.168 44.4446 268.835 44.5744 269.572 44.4311ZM282.008 43.0946L280.506 43.3871L277.903 41.0057L276.368 44.1927L274.867 44.4851L276.957 40.1507L273.595 37.0918L275.112 36.7965L277.51 38.9886L278.91 36.0569L280.412 35.7644L278.456 39.8436L282.008 43.0946Z" fill="white"/>
<rect x="86.0563" y="86.916" width="271.632" height="63.8808" rx="30" transform="rotate(1.39254 86.0563 86.916)" fill="#612B8B"/>
<path d="M97.3599 116.541L97.1807 124.039L95.876 124.007L96.0255 117.754L92.1416 117.661L91.9922 123.915L90.6875 123.883L90.8667 116.386L97.3599 116.541ZM103.489 116.492C104.539 116.517 105.424 116.924 106.146 117.711C106.868 118.488 107.215 119.427 107.189 120.527C107.163 121.626 106.77 122.552 106.012 123.304C105.254 124.047 104.35 124.405 103.301 124.38C102.061 124.35 101.128 123.833 100.502 122.828L100.399 127.116L99.0949 127.085L99.3458 116.588L100.65 116.619L100.62 117.909C101.293 116.935 102.25 116.463 103.489 116.492ZM103.166 123.116C103.916 123.134 104.552 122.894 105.074 122.397C105.596 121.889 105.866 121.255 105.884 120.496C105.902 119.736 105.663 119.095 105.165 118.573C104.668 118.041 104.044 117.766 103.294 117.748C102.534 117.73 101.893 117.974 101.371 118.482C100.849 118.98 100.579 119.609 100.561 120.368C100.543 121.128 100.782 121.774 101.28 122.306C101.777 122.828 102.406 123.098 103.166 123.116ZM109.646 121.186C109.76 121.859 110.052 122.386 110.524 122.767C111.005 123.149 111.6 123.348 112.31 123.365C113.299 123.389 114.028 123.041 114.495 122.322L115.59 122.978C114.833 124.09 113.72 124.629 112.25 124.594C111.061 124.565 110.1 124.172 109.368 123.415C108.646 122.647 108.299 121.694 108.326 120.554C108.353 119.424 108.74 118.493 109.488 117.761C110.236 117.029 111.189 116.676 112.349 116.704C113.449 116.73 114.334 117.142 115.005 117.938C115.687 118.724 116.014 119.662 115.988 120.752C115.984 120.942 115.964 121.137 115.929 121.336L109.646 121.186ZM112.32 117.934C111.62 117.917 111.035 118.103 110.566 118.492C110.096 118.871 109.799 119.389 109.673 120.046L114.682 120.166C114.589 119.453 114.322 118.907 113.881 118.526C113.44 118.145 112.919 117.948 112.32 117.934ZM123.584 123.424L124.618 123.449L124.541 126.703L123.251 126.672L123.299 124.663L117.676 124.528L117.628 126.538L116.338 126.507L116.416 123.253L117.33 123.275C117.826 122.627 118.088 121.708 118.117 120.518L118.2 117.039L123.733 117.171L123.584 123.424ZM118.815 123.31L122.294 123.394L122.414 118.355L119.46 118.284L119.406 120.549C119.379 121.668 119.182 122.589 118.815 123.31ZM129.221 124.999C128.092 124.972 127.161 124.575 126.429 123.807C125.697 123.03 125.345 122.081 125.372 120.961C125.398 119.842 125.796 118.916 126.563 118.184C127.331 117.442 128.28 117.085 129.41 117.112C130.15 117.129 130.81 117.325 131.391 117.699C131.973 118.063 132.401 118.549 132.677 119.155L131.567 119.759C131.387 119.355 131.1 119.028 130.705 118.778C130.321 118.529 129.879 118.398 129.379 118.386C128.63 118.368 127.994 118.608 127.472 119.106C126.96 119.604 126.694 120.233 126.676 120.993C126.658 121.742 126.893 122.378 127.381 122.9C127.879 123.422 128.502 123.692 129.252 123.71C129.752 123.722 130.205 123.618 130.61 123.397C131.016 123.167 131.328 122.854 131.548 122.459L132.642 123.131C132.308 123.713 131.837 124.177 131.228 124.522C130.62 124.858 129.951 125.017 129.221 124.999ZM139.529 117.549L139.498 118.808L136.949 118.747L136.8 124.986L135.495 124.954L135.645 118.716L133.08 118.655L133.11 117.395L139.529 117.549ZM146.587 117.717L147.892 117.749L147.713 125.246L146.408 125.215L146.439 123.926C145.765 124.9 144.809 125.372 143.569 125.342C142.519 125.317 141.634 124.916 140.912 124.139C140.191 123.351 139.843 122.408 139.869 121.308C139.896 120.208 140.288 119.287 141.046 118.545C141.804 117.793 142.708 117.43 143.758 117.455C144.997 117.484 145.93 118.002 146.556 119.007L146.587 117.717ZM143.764 124.087C144.524 124.105 145.165 123.865 145.687 123.367C146.209 122.86 146.479 122.226 146.498 121.466C146.516 120.707 146.276 120.066 145.778 119.544C145.281 119.012 144.652 118.736 143.893 118.718C143.143 118.7 142.507 118.945 141.984 119.453C141.462 119.951 141.192 120.579 141.174 121.339C141.156 122.099 141.396 122.745 141.893 123.277C142.391 123.799 143.014 124.069 143.764 124.087ZM154.775 121.559C155.537 121.897 155.908 122.486 155.888 123.326C155.873 123.946 155.651 124.451 155.222 124.841C154.802 125.221 154.208 125.402 153.438 125.383L149.689 125.294L149.868 117.796L153.317 117.878C154.067 117.896 154.643 118.1 155.043 118.49C155.444 118.869 155.638 119.364 155.623 119.974C155.606 120.694 155.323 121.222 154.775 121.559ZM153.23 119.046L151.115 118.996L151.068 120.96L153.183 121.011C153.942 121.029 154.33 120.703 154.346 120.033C154.362 119.394 153.989 119.065 153.23 119.046ZM153.391 124.197C153.771 124.206 154.063 124.123 154.268 123.948C154.482 123.773 154.593 123.52 154.601 123.19C154.608 122.881 154.509 122.638 154.303 122.463C154.108 122.278 153.82 122.181 153.44 122.172L151.041 122.115L150.992 124.139L153.391 124.197ZM162.868 118.107L163.918 118.132L163.739 125.629L162.449 125.599L162.575 120.335L158.295 125.499L157.246 125.474L157.425 117.976L158.715 118.007L158.589 123.271L162.868 118.107ZM171.482 118.312L171.452 119.572L168.903 119.511L168.754 125.749L167.449 125.718L167.598 119.48L165.034 119.419L165.064 118.159L171.482 118.312ZM178.069 118.47L179.119 118.495L178.94 125.993L177.65 125.962L177.776 120.698L173.496 125.863L172.446 125.838L172.626 118.34L173.915 118.371L173.789 123.634L178.069 118.47ZM184.445 126.319C183.315 126.292 182.384 125.895 181.652 125.127C180.921 124.35 180.568 123.401 180.595 122.281C180.622 121.162 181.019 120.236 181.787 119.504C182.555 118.762 183.504 118.405 184.633 118.432C185.373 118.449 186.034 118.645 186.615 119.019C187.196 119.383 187.625 119.869 187.9 120.475L186.791 121.079C186.61 120.675 186.323 120.348 185.929 120.098C185.545 119.849 185.103 119.718 184.603 119.706C183.853 119.688 183.217 119.928 182.695 120.426C182.183 120.924 181.918 121.553 181.9 122.313C181.882 123.062 182.117 123.698 182.604 124.22C183.102 124.742 183.726 125.012 184.476 125.03C184.975 125.042 185.428 124.938 185.833 124.717C186.239 124.487 186.552 124.174 186.771 123.779L187.865 124.451C187.531 125.033 187.06 125.497 186.452 125.842C185.844 126.178 185.175 126.337 184.445 126.319ZM194.753 118.869L194.574 126.367L193.284 126.336L193.348 123.636L192.254 123.61L190.09 126.259L188.5 126.221L190.756 123.499C190.199 123.346 189.751 123.055 189.411 122.627C189.072 122.199 188.908 121.705 188.922 121.145C188.938 120.455 189.197 119.886 189.698 119.438C190.199 118.99 190.819 118.775 191.559 118.792L194.753 118.869ZM191.517 122.422L193.376 122.467L193.434 120.052L191.575 120.008C191.205 119.999 190.887 120.102 190.622 120.315C190.357 120.529 190.22 120.821 190.211 121.191C190.202 121.551 190.325 121.844 190.58 122.07C190.835 122.296 191.147 122.413 191.517 122.422ZM201.171 117.657C200.921 117.651 200.714 117.561 200.548 117.387C200.382 117.213 200.302 117.006 200.307 116.766C200.313 116.526 200.403 116.323 200.577 116.157C200.751 115.981 200.963 115.896 201.213 115.902C201.453 115.908 201.656 116.003 201.822 116.187C201.988 116.361 202.068 116.568 202.062 116.808C202.056 117.048 201.966 117.251 201.792 117.416C201.618 117.582 201.411 117.662 201.171 117.657ZM200.3 126.503L200.479 119.006L201.784 119.037L201.604 126.535L200.3 126.503ZM212.711 119.298L214.016 119.329L213.837 126.827L212.532 126.796L212.607 123.662L208.723 123.569L208.648 126.703L207.344 126.672L207.523 119.174L208.828 119.205L208.753 122.324L212.637 122.417L212.711 119.298ZM222.21 119.525L223.515 119.556L223.336 127.054L222.031 127.023L222.062 125.733C221.388 126.707 220.432 127.18 219.192 127.15C218.142 127.125 217.257 126.724 216.535 125.946C215.814 125.159 215.466 124.215 215.492 123.115C215.519 122.016 215.911 121.095 216.669 120.353C217.427 119.601 218.331 119.237 219.381 119.262C220.62 119.292 221.553 119.809 222.179 120.815L222.21 119.525ZM219.387 125.894C220.147 125.912 220.788 125.673 221.31 125.175C221.832 124.667 222.102 124.034 222.121 123.274C222.139 122.514 221.899 121.873 221.401 121.351C220.904 120.819 220.275 120.544 219.515 120.526C218.766 120.508 218.13 120.753 217.607 121.26C217.085 121.758 216.815 122.387 216.797 123.147C216.779 123.906 217.019 124.552 217.516 125.084C218.014 125.606 218.637 125.876 219.387 125.894ZM230.398 123.367C231.16 123.705 231.531 124.294 231.511 125.134C231.496 125.754 231.274 126.258 230.845 126.648C230.425 127.028 229.831 127.209 229.061 127.191L225.312 127.101L225.491 119.603L228.94 119.686C229.69 119.704 230.265 119.908 230.666 120.297C231.067 120.677 231.261 121.172 231.246 121.782C231.229 122.501 230.946 123.03 230.398 123.367ZM228.852 120.854L226.738 120.804L226.691 122.768L228.805 122.818C229.565 122.837 229.953 122.511 229.969 121.841C229.984 121.201 229.612 120.872 228.852 120.854ZM229.014 126.004C229.394 126.013 229.686 125.93 229.891 125.755C230.105 125.58 230.216 125.328 230.224 124.998C230.231 124.688 230.132 124.446 229.926 124.271C229.73 124.086 229.443 123.989 229.063 123.98L226.663 123.923L226.615 125.947L229.014 126.004ZM237.596 119.893L238.9 119.924L238.721 127.422L237.417 127.391L237.481 124.691C236.875 124.937 236.197 125.051 235.447 125.033C234.488 125.01 233.748 124.767 233.229 124.305C232.72 123.832 232.476 123.151 232.498 122.262L232.557 119.772L233.862 119.803L233.804 122.218C233.791 122.778 233.931 123.181 234.225 123.428C234.529 123.676 234.976 123.806 235.566 123.82C236.276 123.837 236.924 123.723 237.51 123.477L237.596 119.893ZM246.326 120.101L247.376 120.126L247.196 127.624L245.907 127.593L246.033 122.33L241.753 127.494L240.703 127.469L240.882 119.971L242.172 120.002L242.046 125.266L246.326 120.101ZM254.94 120.307L254.91 121.567L252.361 121.506L252.211 127.744L250.907 127.713L251.056 121.475L248.492 121.413L248.522 120.154L254.94 120.307ZM261.527 120.465L262.576 120.49L262.397 127.988L261.108 127.957L261.233 122.693L256.954 127.858L255.904 127.832L256.083 120.335L257.373 120.365L257.247 125.629L261.527 120.465ZM267.902 128.314C266.773 128.287 265.842 127.89 265.11 127.122C264.378 126.345 264.026 125.396 264.053 124.276C264.08 123.156 264.477 122.231 265.244 121.499C266.012 120.757 266.961 120.4 268.091 120.427C268.831 120.444 269.491 120.64 270.072 121.014C270.654 121.378 271.082 121.863 271.358 122.47L270.248 123.074C270.068 122.669 269.781 122.342 269.386 122.093C269.002 121.844 268.56 121.713 268.06 121.701C267.311 121.683 266.675 121.923 266.153 122.421C265.641 122.919 265.376 123.548 265.357 124.307C265.339 125.057 265.574 125.693 266.062 126.215C266.56 126.737 267.183 127.007 267.933 127.025C268.433 127.037 268.886 126.932 269.291 126.712C269.697 126.482 270.009 126.169 270.229 125.774L271.323 126.445C270.989 127.028 270.518 127.492 269.909 127.837C269.301 128.173 268.632 128.332 267.902 128.314ZM278.21 120.863L278.031 128.361L276.741 128.331L276.806 125.631L275.711 125.605L273.547 128.254L271.958 128.216L274.214 125.494C273.657 125.341 273.209 125.05 272.869 124.622C272.529 124.194 272.366 123.7 272.379 123.14C272.396 122.45 272.654 121.881 273.155 121.433C273.656 120.985 274.276 120.769 275.016 120.787L278.21 120.863ZM274.974 124.417L276.834 124.462L276.892 122.047L275.032 122.003C274.662 121.994 274.345 122.096 274.08 122.31C273.814 122.524 273.677 122.816 273.669 123.186C273.66 123.546 273.783 123.839 274.038 124.065C274.292 124.291 274.605 124.408 274.974 124.417ZM288.08 120.904C289.13 120.929 290.015 121.336 290.737 122.123C291.458 122.901 291.806 123.839 291.78 124.939C291.753 126.039 291.361 126.964 290.603 127.717C289.845 128.459 288.941 128.817 287.892 128.792C286.652 128.762 285.719 128.245 285.093 127.24L284.99 131.529L283.686 131.497L283.937 121L285.241 121.032L285.21 122.321C285.884 121.347 286.84 120.875 288.08 120.904ZM287.757 127.528C288.506 127.546 289.142 127.307 289.664 126.809C290.187 126.301 290.457 125.667 290.475 124.908C290.493 124.148 290.254 123.507 289.756 122.985C289.258 122.453 288.635 122.178 287.885 122.16C287.125 122.142 286.484 122.387 285.962 122.894C285.44 123.392 285.17 124.021 285.152 124.78C285.133 125.54 285.373 126.186 285.871 126.718C286.368 127.24 286.997 127.51 287.757 127.528ZM299.634 121.376L300.939 121.407L300.76 128.905L299.455 128.873L299.486 127.584C298.812 128.558 297.856 129.03 296.616 129.001C295.567 128.976 294.681 128.574 293.959 127.797C293.238 127.009 292.89 126.066 292.917 124.966C292.943 123.866 293.335 122.945 294.093 122.203C294.851 121.451 295.755 121.088 296.805 121.113C298.044 121.143 298.977 121.66 299.603 122.665L299.634 121.376ZM296.811 127.745C297.571 127.763 298.212 127.523 298.734 127.026C299.256 126.518 299.527 125.884 299.545 125.124C299.563 124.365 299.323 123.724 298.825 123.202C298.328 122.67 297.699 122.395 296.94 122.376C296.19 122.359 295.554 122.603 295.032 123.111C294.509 123.609 294.239 124.237 294.221 124.997C294.203 125.757 294.443 126.403 294.94 126.935C295.438 127.457 296.062 127.727 296.811 127.745ZM309.244 129.107L307.715 129.071L305.683 126.186L303.501 128.97L301.972 128.934L304.943 125.148L302.316 121.44L303.86 121.477L305.732 124.132L307.729 121.569L309.259 121.606L306.473 125.17L309.244 129.107ZM315.867 121.764L317.261 121.797L314.012 129.686C313.672 130.529 313.206 131.163 312.616 131.589C312.025 132.025 311.361 132.209 310.622 132.141L310.651 130.927C311.569 131.019 312.256 130.535 312.711 129.475L312.838 129.208L309.763 121.618L311.143 121.651L313.567 127.59L315.867 121.764ZM323.257 125.586C324.019 125.925 324.39 126.514 324.37 127.353C324.355 127.973 324.133 128.478 323.704 128.868C323.285 129.248 322.69 129.429 321.92 129.41L318.171 129.321L318.351 121.823L321.8 121.905C322.549 121.923 323.125 122.127 323.525 122.517C323.927 122.896 324.12 123.391 324.105 124.001C324.088 124.721 323.805 125.249 323.257 125.586ZM321.712 123.074L319.597 123.023L319.55 124.987L321.665 125.038C322.424 125.056 322.812 124.73 322.828 124.061C322.844 123.421 322.471 123.092 321.712 123.074ZM321.874 128.224C322.254 128.233 322.546 128.15 322.75 127.975C322.964 127.8 323.075 127.547 323.083 127.218C323.09 126.908 322.991 126.665 322.785 126.49C322.59 126.305 322.302 126.209 321.922 126.2L319.523 126.142L319.474 128.167L321.874 128.224ZM332.115 122.152L333.42 122.183L333.241 129.681L331.936 129.65L331.967 128.36C331.293 129.334 330.337 129.807 329.097 129.777C328.047 129.752 327.162 129.351 326.44 128.573C325.719 127.786 325.371 126.842 325.398 125.742C325.424 124.643 325.816 123.722 326.574 122.98C327.332 122.228 328.236 121.864 329.286 121.889C330.525 121.919 331.458 122.436 332.084 123.442L332.115 122.152ZM329.292 128.521C330.052 128.539 330.693 128.3 331.215 127.802C331.737 127.294 332.007 126.661 332.026 125.901C332.044 125.141 331.804 124.5 331.306 123.978C330.809 123.446 330.18 123.171 329.421 123.153C328.671 123.135 328.035 123.38 327.512 123.887C326.99 124.385 326.72 125.014 326.702 125.774C326.684 126.533 326.924 127.179 327.421 127.711C327.919 128.233 328.542 128.503 329.292 128.521ZM340.975 122.364L340.945 123.623L338.396 123.562L338.246 129.801L336.942 129.769L337.091 123.531L334.527 123.47L334.557 122.21L340.975 122.364ZM347.562 122.521L348.611 122.546L348.432 130.044L347.143 130.013L347.268 124.75L342.989 129.914L341.939 129.889L342.118 122.391L343.408 122.422L343.282 127.685L347.562 122.521Z" fill="white"/>
<rect y="184.009" width="271.632" height="63.8808" rx="30" transform="rotate(-10.609 0 184.009)" fill="#00AAFF"/>
<path d="M75.7876 207.472C75.171 208.361 74.3222 208.907 73.2411 209.11C72.1599 209.313 71.1709 209.112 70.2739 208.507C69.3867 207.9 68.8407 207.052 68.6359 205.961C68.4311 204.87 68.6321 203.881 69.2388 202.994C69.8554 202.105 70.7042 201.559 71.7853 201.356C72.8664 201.153 73.8555 201.354 74.7525 201.958C75.6495 202.563 76.2004 203.411 76.4052 204.502C76.61 205.593 76.4041 206.583 75.7876 207.472ZM73.0058 207.857C73.7429 207.719 74.3151 207.352 74.7222 206.756C75.1294 206.161 75.2628 205.49 75.1226 204.743C74.9824 203.996 74.6146 203.419 74.0192 203.012C73.4239 202.605 72.7577 202.47 72.0205 202.609C71.2933 202.745 70.726 203.111 70.3189 203.706C69.9117 204.302 69.7783 204.973 69.9185 205.72C70.0587 206.467 70.4265 207.044 71.0219 207.451C71.6172 207.858 72.2785 207.994 73.0058 207.857ZM81.9916 207.467C80.9007 207.672 79.9341 207.482 79.0917 206.898C78.2494 206.313 77.7221 205.456 77.51 204.325C77.2738 203.067 77.2739 202.065 77.5102 201.319C77.7564 200.57 78.3978 199.814 79.4346 199.05C79.6226 198.913 79.8787 198.732 80.203 198.509C80.5371 198.283 80.7803 198.115 80.9326 198.005C81.0831 197.885 81.2486 197.737 81.4292 197.561C81.6079 197.375 81.7307 197.189 81.7977 197.004C81.8726 196.806 81.9134 196.59 81.9201 196.355L83.0627 196.751C83.0628 196.914 83.0511 197.068 83.0278 197.215C83.0027 197.352 82.9529 197.494 82.8786 197.64C82.8123 197.775 82.7531 197.892 82.7009 197.994C82.6487 198.095 82.5492 198.216 82.4024 198.355C82.2636 198.483 82.1595 198.579 82.0901 198.643C82.0305 198.705 81.9019 198.805 81.7041 198.944C81.5162 199.081 81.3866 199.177 81.3153 199.231C81.252 199.273 81.1028 199.372 80.8676 199.528C80.6305 199.675 80.4852 199.768 80.4318 199.809C79.817 200.219 79.38 200.601 79.1208 200.955C78.8715 201.307 78.7205 201.722 78.6677 202.2C78.9084 201.748 79.2472 201.384 79.6839 201.109C80.1206 200.834 80.5748 200.652 81.0465 200.563C81.9704 200.39 82.8108 200.558 83.5677 201.067C84.3345 201.574 84.811 202.324 84.9974 203.317C85.1856 204.319 84.9975 205.214 84.4331 206.002C83.8669 206.78 83.0531 207.268 81.9916 207.467ZM79.9125 205.904C80.4556 206.25 81.0712 206.358 81.7592 206.229C82.4471 206.1 82.9726 205.782 83.3355 205.277C83.7083 204.769 83.8347 204.196 83.7148 203.557C83.5912 202.899 83.2744 202.404 82.7644 202.072C82.2625 201.729 81.6626 201.623 80.9648 201.754C80.3358 201.872 79.8036 202.18 79.3681 202.679C78.9407 203.166 78.7879 203.734 78.9096 204.383C79.0351 205.051 79.3694 205.558 79.9125 205.904ZM90.4255 198.055L90.6579 199.293L87.105 199.96L88.2563 206.093L86.9737 206.334L85.5899 198.962L90.4255 198.055ZM98.6931 203.172C98.0765 204.061 97.2277 204.607 96.1466 204.81C95.0655 205.013 94.0764 204.812 93.1794 204.207C92.2922 203.6 91.7462 202.752 91.5414 201.661C91.3366 200.57 91.5376 199.581 92.1443 198.694C92.7609 197.804 93.6097 197.258 94.6908 197.056C95.772 196.853 96.761 197.054 97.658 197.658C98.555 198.263 99.1059 199.111 99.3107 200.202C99.5155 201.293 99.3097 202.283 98.6931 203.172ZM95.9113 203.557C96.6485 203.419 97.2206 203.052 97.6278 202.456C98.0349 201.861 98.1684 201.19 98.0281 200.443C97.8879 199.696 97.5201 199.119 96.9248 198.712C96.3294 198.305 95.6632 198.17 94.9261 198.309C94.1988 198.445 93.6316 198.811 93.2244 199.406C92.8173 200.002 92.6838 200.673 92.824 201.42C92.9643 202.167 93.332 202.744 93.9274 203.151C94.5227 203.558 95.1841 203.693 95.9113 203.557ZM105.713 198.894C106.528 199.066 107.014 199.565 107.169 200.391C107.283 201 107.171 201.54 106.832 202.01C106.501 202.469 105.957 202.77 105.2 202.912L101.515 203.604L100.131 196.233L103.522 195.596C104.259 195.458 104.864 195.537 105.337 195.835C105.808 196.123 106.1 196.567 106.213 197.167C106.345 197.874 106.179 198.45 105.713 198.894ZM103.679 196.757L101.6 197.147L101.962 199.079L104.041 198.688C104.788 198.548 105.1 198.149 104.976 197.49C104.858 196.861 104.425 196.617 103.679 196.757ZM104.908 201.761C105.281 201.691 105.55 201.549 105.713 201.335C105.886 201.12 105.942 200.85 105.882 200.525C105.824 200.221 105.677 200.004 105.439 199.876C105.209 199.736 104.908 199.701 104.534 199.771L102.175 200.214L102.549 202.204L104.908 201.761ZM114.99 200.113C114.374 201.002 113.525 201.548 112.444 201.751C111.363 201.954 110.374 201.753 109.477 201.148C108.59 200.541 108.044 199.692 107.839 198.601C107.634 197.51 107.835 196.521 108.442 195.634C109.058 194.745 109.907 194.199 110.988 193.996C112.069 193.793 113.058 193.994 113.955 194.599C114.852 195.204 115.403 196.052 115.608 197.143C115.813 198.234 115.607 199.224 114.99 200.113ZM112.209 200.497C112.946 200.359 113.518 199.992 113.925 199.397C114.332 198.802 114.466 198.13 114.325 197.383C114.185 196.637 113.817 196.059 113.222 195.652C112.627 195.245 111.961 195.111 111.223 195.249C110.496 195.386 109.929 195.752 109.522 196.347C109.115 196.942 108.981 197.613 109.121 198.36C109.262 199.107 109.629 199.684 110.225 200.092C110.82 200.499 111.481 200.634 112.209 200.497ZM120.461 192.218C121.493 192.024 122.444 192.237 123.313 192.857C124.181 193.468 124.716 194.314 124.919 195.395C125.122 196.476 124.931 197.463 124.345 198.356C123.758 199.24 122.949 199.779 121.917 199.972C120.698 200.201 119.678 199.889 118.857 199.036L119.648 203.252L118.366 203.493L116.428 193.173L117.711 192.932L117.949 194.2C118.405 193.107 119.242 192.446 120.461 192.218ZM121.522 198.764C122.259 198.626 122.832 198.259 123.239 197.664C123.644 197.059 123.776 196.382 123.636 195.636C123.496 194.889 123.128 194.312 122.533 193.904C121.936 193.487 121.269 193.348 120.531 193.487C119.784 193.627 119.208 193.999 118.803 194.605C118.396 195.2 118.262 195.871 118.403 196.618C118.543 197.365 118.912 197.947 119.509 198.364C120.104 198.771 120.775 198.905 121.522 198.764ZM132.164 190.021C133.245 189.818 134.229 190.02 135.116 190.626C136.013 191.231 136.564 192.079 136.769 193.17C136.974 194.261 136.768 195.251 136.151 196.14C135.545 197.027 134.701 197.572 133.62 197.775C132.647 197.958 131.748 197.806 130.924 197.32C130.1 196.833 129.531 196.131 129.216 195.214L127.845 195.471L128.424 198.552L127.141 198.793L125.757 191.422L127.04 191.181L127.616 194.247L128.987 193.99C128.947 193.021 129.224 192.165 129.817 191.423C130.419 190.669 131.201 190.202 132.164 190.021ZM133.384 196.522C134.112 196.386 134.679 196.02 135.086 195.424C135.493 194.829 135.627 194.158 135.486 193.411C135.346 192.664 134.978 192.087 134.383 191.68C133.788 191.273 133.126 191.137 132.399 191.274C131.662 191.412 131.09 191.779 130.683 192.374C130.276 192.97 130.142 193.641 130.282 194.388C130.423 195.135 130.79 195.712 131.386 196.119C131.981 196.526 132.647 196.661 133.384 196.522ZM143.188 191.858C144.004 192.031 144.489 192.53 144.644 193.355C144.758 193.965 144.646 194.505 144.307 194.975C143.976 195.434 143.432 195.735 142.676 195.877L138.99 196.569L137.606 189.197L140.997 188.561C141.734 188.423 142.339 188.502 142.812 188.8C143.283 189.088 143.575 189.532 143.688 190.131C143.821 190.839 143.654 191.415 143.188 191.858ZM141.154 189.722L139.075 190.112L139.438 192.043L141.516 191.653C142.263 191.513 142.575 191.114 142.451 190.455C142.333 189.826 141.901 189.582 141.154 189.722ZM142.383 194.726C142.757 194.656 143.025 194.514 143.188 194.3C143.362 194.084 143.418 193.814 143.357 193.49C143.3 193.185 143.152 192.969 142.914 192.841C142.685 192.701 142.383 192.666 142.01 192.736L139.651 193.179L140.024 195.169L142.383 194.726ZM151.138 186.657L152.421 186.416L153.805 193.788L152.522 194.028L152.284 192.76C151.828 193.853 150.99 194.514 149.772 194.743C148.74 194.937 147.79 194.728 146.923 194.118C146.053 193.498 145.517 192.647 145.314 191.566C145.111 190.485 145.303 189.503 145.89 188.619C146.475 187.726 147.284 187.182 148.316 186.989C149.535 186.76 150.555 187.072 151.376 187.925L151.138 186.657ZM149.701 193.474C150.448 193.334 151.025 192.966 151.433 192.371C151.838 191.766 151.97 191.09 151.83 190.343C151.69 189.596 151.322 189.019 150.727 188.612C150.13 188.195 149.458 188.056 148.711 188.196C147.974 188.335 147.402 188.707 146.997 189.312C146.59 189.907 146.456 190.578 146.597 191.325C146.737 192.072 147.106 192.654 147.703 193.071C148.298 193.478 148.964 193.613 149.701 193.474ZM159.848 185.022L160.081 186.26L157.575 186.731L158.726 192.864L157.443 193.104L156.292 186.972L153.771 187.445L153.539 186.207L159.848 185.022ZM166.324 183.806L167.356 183.613L168.74 190.984L167.472 191.222L166.5 186.047L163.388 191.988L162.356 192.182L160.972 184.811L162.24 184.573L163.212 189.748L166.324 183.806ZM180.602 182.271C181.423 182.849 181.928 183.644 182.118 184.657C182.308 185.669 182.126 186.594 181.571 187.43C181.016 188.267 180.175 188.857 179.049 189.201L179.575 192.002L178.307 192.24L177.781 189.439C176.607 189.527 175.61 189.282 174.789 188.704C173.968 188.125 173.463 187.33 173.273 186.317C173.083 185.305 173.265 184.38 173.821 183.544C174.376 182.707 175.216 182.117 176.342 181.773L175.816 178.972L177.084 178.734L177.61 181.535C178.784 181.447 179.781 181.692 180.602 182.271ZM174.541 186.079C174.668 186.757 174.997 187.291 175.528 187.68C176.069 188.067 176.742 188.24 177.549 188.201L176.575 183.011C175.807 183.257 175.241 183.659 174.878 184.215C174.524 184.77 174.412 185.391 174.541 186.079ZM178.817 187.963C179.583 187.707 180.142 187.302 180.496 186.747C180.85 186.192 180.963 185.576 180.836 184.898C180.708 184.219 180.379 183.686 179.849 183.297C179.318 182.908 178.649 182.734 177.842 182.773L178.817 187.963ZM183.339 179.223C183.093 179.269 182.871 179.225 182.673 179.089C182.474 178.953 182.353 178.767 182.309 178.531C182.264 178.296 182.31 178.078 182.446 177.88C182.58 177.672 182.769 177.545 183.015 177.498C183.251 177.454 183.469 177.505 183.669 177.65C183.868 177.786 183.989 177.972 184.033 178.208C184.078 178.444 184.032 178.661 183.896 178.859C183.761 179.058 183.575 179.179 183.339 179.223ZM184.326 188.058L182.942 180.687L184.225 180.446L185.608 187.817L184.326 188.058ZM192.329 178.924L193.713 186.296L192.43 186.536L191.279 180.404L188.375 180.949L188.939 183.956C189.166 185.165 189.079 186.056 188.678 186.63C188.285 187.192 187.639 187.517 186.74 187.605L186.513 186.396C187.027 186.371 187.38 186.192 187.572 185.861C187.772 185.518 187.799 184.954 187.651 184.168L186.86 179.951L192.329 178.924ZM197.881 180.629C198.618 180.491 199.269 180.598 199.834 180.949C200.407 181.29 200.758 181.809 200.889 182.506C201.02 183.204 200.882 183.82 200.473 184.355C200.073 184.878 199.504 185.208 198.767 185.347L195.656 185.931L194.272 178.56L195.555 178.319L196.053 180.972L197.881 180.629ZM198.543 184.153C198.906 184.084 199.192 183.924 199.399 183.672C199.614 183.407 199.688 183.098 199.621 182.744C199.555 182.391 199.374 182.13 199.078 181.961C198.791 181.791 198.466 181.74 198.103 181.809L196.275 182.152L196.715 184.496L198.543 184.153ZM208.698 175.851L210.082 183.223L208.829 183.458L207.824 178.106L206.189 182.321L206.027 182.351L202.974 179.017L203.979 184.368L202.711 184.606L201.327 177.235L202.698 176.978L205.713 180.273L207.327 176.109L208.698 175.851Z" fill="white"/>
</svg>
