<svg width="1943" height="1031" viewBox="0 0 1943 1031" fill="none" xmlns="http://www.w3.org/2000/svg">
<line x1="0.5" y1="1" x2="0.5" y2="1031" stroke="white" stroke-opacity="0.5"/>
<line x1="618.5" y1="1" x2="618.5" y2="1031" stroke="white" stroke-opacity="0.5"/>
<line x1="1236.5" y1="1" x2="1236.5" y2="1031" stroke="white" stroke-opacity="0.5"/>
<line x1="103.5" y1="1" x2="103.5" y2="1031" stroke="white" stroke-opacity="0.5"/>
<line x1="721.5" y1="1" x2="721.5" y2="1031" stroke="white" stroke-opacity="0.5"/>
<line x1="1339.5" y1="1" x2="1339.5" y2="1031" stroke="white" stroke-opacity="0.5"/>
<line x1="206.5" y1="1" x2="206.5" y2="1031" stroke="white" stroke-opacity="0.5"/>
<line x1="824.5" y1="1" x2="824.5" y2="1031" stroke="white" stroke-opacity="0.5"/>
<line x1="1442.5" y1="1" x2="1442.5" y2="1031" stroke="white" stroke-opacity="0.5"/>
<line x1="309.5" y1="1" x2="309.5" y2="1031" stroke="white" stroke-opacity="0.5"/>
<line x1="927.5" y1="1" x2="927.5" y2="1031" stroke="white" stroke-opacity="0.5"/>
<line x1="1545.5" y1="1" x2="1545.5" y2="1031" stroke="white" stroke-opacity="0.5"/>
<line x1="412.5" y1="1" x2="412.5" y2="1031" stroke="white" stroke-opacity="0.5"/>
<line x1="1030.5" y1="1" x2="1030.5" y2="1031" stroke="white" stroke-opacity="0.5"/>
<line x1="1648.5" y1="1" x2="1648.5" y2="1031" stroke="white" stroke-opacity="0.5"/>
<line x1="515.5" y1="1" x2="515.5" y2="1031" stroke="white" stroke-opacity="0.5"/>
<line x1="1133.5" y1="1" x2="1133.5" y2="1031" stroke="white" stroke-opacity="0.5"/>
<line x1="1751.5" y1="1" x2="1751.5" y2="1031" stroke="white" stroke-opacity="0.5"/>
<line x1="1854.5" y1="1" x2="1854.5" y2="1031" stroke="white" stroke-opacity="0.5"/>
<line x1="52" y1="1" x2="52" y2="1031" stroke="white" stroke-opacity="0.5"/>
<line x1="670" y1="1" x2="670" y2="1031" stroke="white" stroke-opacity="0.5"/>
<line x1="1288" y1="1" x2="1288" y2="1031" stroke="white" stroke-opacity="0.5"/>
<line x1="155" y1="1" x2="155" y2="1031" stroke="white" stroke-opacity="0.5"/>
<line x1="773" y1="1" x2="773" y2="1031" stroke="white" stroke-opacity="0.5"/>
<line x1="1391" y1="1" x2="1391" y2="1031" stroke="white" stroke-opacity="0.5"/>
<line x1="258" y1="1" x2="258" y2="1031" stroke="white" stroke-opacity="0.5"/>
<line x1="876" y1="1" x2="876" y2="1031" stroke="white" stroke-opacity="0.5"/>
<line x1="1494" y1="1" x2="1494" y2="1031" stroke="white" stroke-opacity="0.5"/>
<line x1="361" y1="1" x2="361" y2="1031" stroke="white" stroke-opacity="0.5"/>
<line x1="979" y1="1" x2="979" y2="1031" stroke="white" stroke-opacity="0.5"/>
<line x1="1597" y1="1" x2="1597" y2="1031" stroke="white" stroke-opacity="0.5"/>
<line x1="464" y1="1" x2="464" y2="1031" stroke="white" stroke-opacity="0.5"/>
<line x1="1082" y1="1" x2="1082" y2="1031" stroke="white" stroke-opacity="0.5"/>
<line x1="1700" y1="1" x2="1700" y2="1031" stroke="white" stroke-opacity="0.5"/>
<line x1="567" y1="1" x2="567" y2="1031" stroke="white" stroke-opacity="0.5"/>
<line x1="1185" y1="1" x2="1185" y2="1031" stroke="white" stroke-opacity="0.5"/>
<line x1="1803" y1="1" x2="1803" y2="1031" stroke="white" stroke-opacity="0.5"/>
<line x1="1906" y1="1" x2="1906" y2="1031" stroke="white" stroke-opacity="0.5"/>
<line y1="670" x2="1942.58" y2="670" stroke="white" stroke-opacity="0.5"/>
<line y1="567" x2="1942.58" y2="567" stroke="white" stroke-opacity="0.5"/>
<line y1="464" x2="1942.58" y2="464" stroke="white" stroke-opacity="0.5"/>
<line y1="979" x2="1942.58" y2="979" stroke="white" stroke-opacity="0.5"/>
<line y1="361" x2="1942.58" y2="361" stroke="white" stroke-opacity="0.5"/>
<line y1="876" x2="1942.58" y2="876" stroke="white" stroke-opacity="0.5"/>
<line y1="258" x2="1942.58" y2="258" stroke="white" stroke-opacity="0.5"/>
<line y1="773" x2="1942.58" y2="773" stroke="white" stroke-opacity="0.5"/>
<line y1="155" x2="1942.58" y2="155" stroke="white" stroke-opacity="0.5"/>
<line y1="52" x2="1942.58" y2="52" stroke="white" stroke-opacity="0.5"/>
<line y1="618.5" x2="1942.58" y2="618.5" stroke="white" stroke-opacity="0.5"/>
<line y1="515.5" x2="1942.58" y2="515.5" stroke="white" stroke-opacity="0.5"/>
<line y1="1030.5" x2="1942.58" y2="1030.5" stroke="white" stroke-opacity="0.5"/>
<line y1="412.5" x2="1942.58" y2="412.5" stroke="white" stroke-opacity="0.5"/>
<line y1="927.5" x2="1942.58" y2="927.5" stroke="white" stroke-opacity="0.5"/>
<line y1="309.5" x2="1942.58" y2="309.5" stroke="white" stroke-opacity="0.5"/>
<line y1="824.5" x2="1942.58" y2="824.5" stroke="white" stroke-opacity="0.5"/>
<line y1="206.5" x2="1942.58" y2="206.5" stroke="white" stroke-opacity="0.5"/>
<line y1="721.5" x2="1942.58" y2="721.5" stroke="white" stroke-opacity="0.5"/>
<line y1="103.5" x2="1942.58" y2="103.5" stroke="white" stroke-opacity="0.5"/>
<line y1="0.5" x2="1942.58" y2="0.5" stroke="white" stroke-opacity="0.5"/>
</svg>
