<svg width="1054" height="379" viewBox="0 0 1054 379" fill="none" xmlns="http://www.w3.org/2000/svg">
<path d="M132.878 58.8738C131.226 58.946 129.659 59.6196 128.471 60.7683L20.8589 164.04L29.2675 163.664L170.327 156.803C171.977 156.732 173.545 156.057 174.733 154.909L269.027 64.3389L269.026 64.3396C270.39 63.046 271.163 61.2496 271.165 59.3693C271.165 57.4881 270.393 55.6917 269.028 54.3987C267.662 53.1047 265.826 52.43 263.949 52.53L132.878 58.8738Z" fill="#D7FF87"/>
<path d="M92.4854 175.422C91.3712 175.483 90.3567 176.086 89.771 177.038C89.1868 177.989 89.1049 179.167 89.5534 180.189L105.118 216.395C111.931 232.243 152.291 229.962 195.795 211.26C225.237 198.603 248.061 181.776 257.965 167.352C262.558 160.516 264.154 153.928 262.013 148.949L246.231 112.237C245.788 111.207 244.869 110.461 243.77 110.241C242.673 110.019 241.535 110.352 240.731 111.131L179.325 169.977C178.737 170.55 177.959 170.884 177.138 170.917L92.4854 175.422ZM281.955 61.7989C280.971 62.659 280.574 64.0113 280.934 65.2669L284.749 78.4967L295.754 118.931C296.012 119.887 296.672 120.683 297.564 121.112C298.456 121.542 299.489 121.561 300.397 121.169L314.495 115.108C315.4 114.717 316.092 113.953 316.391 113.014C316.69 112.076 316.568 111.053 316.057 110.211L287.126 62.573L287.124 62.5722C286.607 61.7052 285.728 61.1149 284.729 60.9651C283.731 60.8154 282.716 61.1217 281.969 61.8002L281.955 61.7989Z" fill="#D7FF87"/>
<path d="M172.94 246.2C173.06 246.32 173.18 246.26 173.3 246.02V244.94C173.42 244.46 173.54 244.1 173.66 243.86H173.12C173.36 243.38 173.48 242.72 173.48 241.88L173.66 239.72L177.26 239.54H227.3C245.18 239.54 260.66 239.66 273.74 239.9L274.46 240.98V244.76C274.46 246.32 274.34 247.58 274.1 248.54L274.28 248.72V249.26L273.92 249.62V250.16C273.92 250.88 274.04 252.08 274.28 253.76C274.52 255.32 274.64 256.52 274.64 257.36C274.64 262.88 274.58 271.28 274.46 282.56C274.34 293.84 274.28 302.3 274.28 307.94C274.28 310.94 274.16 315.56 273.92 321.8L273.56 328.82L273.38 335.84C273.38 336.68 273.44 338.24 273.56 340.52V343.76L273.74 347C273.98 352.76 273.98 356.18 273.74 357.26L273.56 356.9L273.38 358.34H273.56V358.7L273.74 358.52L274.1 359.06C273.86 361.1 273.74 363.56 273.74 366.44L273.56 370.22V374L273.02 374.18H174.38C174.02 374.18 173.6 374.06 173.12 373.82V360.5L172.76 359.96C173.12 358.88 173.3 353.78 173.3 344.66V327.56L173.12 327.02V320.72L173.3 314.24C173.42 308.96 173.3 304.7 172.94 301.46C173.3 300.14 173.48 298.58 173.48 296.78V291.92H173.3L173.48 291.56L173.66 291.38L173.48 291.02V268.7C173.48 260.18 173.3 252.74 172.94 246.38V246.2ZM225.86 256.28L222.62 256.1L219.74 256.28L216.86 256.46C216.62 257.06 216.5 258.08 216.5 259.52V261.14L216.32 262.58C216.44 262.94 216.5 263.48 216.5 264.2C216.5 265.04 216.56 265.64 216.68 266V266.18C216.8 266.42 216.86 266.9 216.86 267.62L216.68 270.32C216.56 271.52 216.56 272.48 216.68 273.2C218 273.44 219.68 273.62 221.72 273.74H226.58C230.3 273.86 233.3 275.06 235.58 277.34C238.7 280.22 240.32 283.4 240.44 286.88C240.44 287.72 240.26 288.62 239.9 289.58L239.54 289.76L239.9 290.66C239.78 290.78 239.66 290.9 239.54 291.02C239.54 291.14 239.6 291.14 239.72 291.02C239 295.22 236.54 298.04 232.34 299.48C230.78 300.08 228.86 300.5 226.58 300.74C225.02 300.86 223.04 300.92 220.64 300.92H218.84L216.86 301.1L216.68 301.28V318.38C217.52 318.62 218.84 318.74 220.64 318.74C245.48 318.74 257.9 308 257.9 286.52C257.9 282.68 257.36 278.96 256.28 275.36L256.46 275L255.92 273.92H255.56C255.08 272.12 254.42 270.8 253.58 269.96L253.76 269.78L253.4 269.06L252.86 268.7L253.22 268.52H253.04C247.16 259.88 238.94 255.74 228.38 256.1H225.86V256.28ZM192.02 262.4L191.48 355.64L191.66 356L201.2 355.82L210.56 355.46V293.72C210.56 279.44 210.5 267.26 210.38 257.18L208.94 256.28L192.74 256.82L192.38 257C192.14 259.4 192.02 261.2 192.02 262.4ZM273.74 307.94C273.74 308.06 273.92 308.24 274.28 308.48C274.28 307.76 274.16 307.22 273.92 306.86V308.12L273.74 307.76V307.94ZM275.9 356.36V357.08H275.54V356.36H275.9ZM360.174 239.18C365.694 239.18 373.974 239.3 385.014 239.54C385.374 241.34 385.554 243.14 385.554 244.94L385.374 276.98L385.194 309.2L384.834 308.66L384.654 309.2L385.194 310.46C385.194 320.9 385.074 336.56 384.834 357.44C384.714 357.32 384.654 357.38 384.654 357.62C384.534 357.74 384.474 357.86 384.474 357.98V359.06L384.654 358.88L384.294 360.5C384.294 360.38 384.474 360.44 384.834 360.68V360.32L385.014 360.5L384.834 360.86V367.34L384.654 373.82L284.754 374.36L284.214 374.18C283.974 373.1 283.854 370.88 283.854 367.52C283.734 364.04 283.794 361.94 284.034 361.22L283.674 360.68H284.214V333.5C284.214 317.66 284.094 309.56 283.854 309.2L284.034 308.84C283.914 308.48 283.854 301.7 283.854 288.5V265.64L283.314 265.1C283.554 264.98 283.674 264.86 283.674 264.74L283.494 264.56H283.314L283.854 263.66C283.734 263.54 283.674 263.6 283.674 263.84L283.494 264.2V262.76L283.854 262.22L284.034 262.04V261.68L283.854 261.32C283.734 260.96 283.614 260.84 283.494 260.96C283.734 260.48 283.854 257.18 283.854 251.06V239.54L322.014 239.36L359.994 239.18H360.174ZM384.654 255.92L385.194 257.54V257.18L384.654 256.1V255.92ZM301.314 330.44C301.314 337.76 304.374 344.12 310.494 349.52C316.374 354.8 323.034 357.44 330.474 357.44L331.734 357.26L331.914 339.98L331.374 339.44C325.974 339.44 322.434 337.28 320.754 332.96C320.034 331.28 319.674 324.26 319.674 311.9C319.674 308.06 319.734 303.38 319.854 297.86V288.68C319.854 279.2 323.754 274.46 331.554 274.46L331.734 266L331.554 257.54L330.834 257.36C325.194 257.36 319.674 259.22 314.274 262.94C308.754 266.66 305.154 271.16 303.474 276.44C302.154 280.52 301.434 289.22 301.314 302.54C301.194 306.98 301.134 312.26 301.134 318.38L301.314 321.8V330.44ZM337.854 274.82C342.534 275.54 345.774 277.28 347.574 280.04C348.894 282.32 349.554 286.04 349.554 291.2L349.194 321.08C349.194 323.6 349.134 325.64 349.014 327.2C348.774 329.6 348.294 331.58 347.574 333.14C345.894 337.34 342.714 339.44 338.034 339.44L337.854 340.16V357.44L338.214 357.62C346.374 357.5 353.454 354.32 359.454 348.08C365.334 342.08 368.274 335 368.274 326.84V320.9L368.454 317.3V313.7C368.574 307.34 368.574 302 368.454 297.68C367.854 284.36 365.874 275.36 362.514 270.68C360.114 267.2 356.934 264.2 352.974 261.68C348.654 258.92 344.574 257.6 340.734 257.72H338.214C337.974 258.68 337.854 261.44 337.854 266V274.82ZM385.194 311.72V311.54L385.014 312.08L385.194 311.72ZM393.177 362.3L393.537 362.12V362.48L393.357 363.56L393.537 364.28L393.897 363.02L394.077 361.76L393.897 360.86L393.537 361.22H393.717C393.837 361.22 393.837 361.28 393.717 361.4L393.537 361.58V361.4L393.177 361.04L393.717 359.96L393.537 324.68L393.717 323.78L393.897 323.6V323.42L394.077 323.96L394.437 323.06L393.177 324.14L392.997 323.78L393.537 322.88L393.357 322.7V322.52L393.177 323.06V322.52L393.537 321.98L393.717 322.34H394.437L393.717 321.08V317.12C393.837 315.32 393.777 314.06 393.537 313.34L393.717 312.98L393.177 301.64H393.357L393.537 301.46V301.28L393.357 301.46C393.717 299.9 393.657 297.56 393.177 294.44V292.64L393.357 293.36L393.537 293.54L393.177 293.9H393.537C393.657 293.9 393.717 293.96 393.717 294.08L393.537 294.26H393.357C393.237 294.38 393.237 294.44 393.357 294.44C393.717 294.44 393.957 294.14 394.077 293.54V291.74L393.537 291.2L393.177 270.32C392.937 261.8 392.817 254.84 392.817 249.44L393.177 245.3L393.357 241.34L393.897 240.26V239.9L418.737 239.72H475.257L495.417 239.9L495.597 240.26C495.357 247.1 495.297 255.86 495.417 266.54L495.597 279.86L495.777 293V294.08L495.597 295.16C495.477 296 495.477 296.72 495.597 297.32L495.237 297.68L495.417 298.76L495.777 298.58V299.3L495.957 299.66L495.777 330.08C495.657 341.96 495.477 352.1 495.237 360.5H495.417L495.597 363.2L495.417 363.56C495.657 364.28 495.837 365.18 495.957 366.26V368.96L495.777 370.04L495.597 370.94C495.477 371.78 495.477 372.5 495.597 373.1C495.477 373.22 495.417 373.34 495.417 373.46C495.417 373.58 495.537 373.58 495.777 373.46C493.977 373.82 491.997 374 489.837 374L483.717 374.18L455.097 374H419.817C417.897 374.12 416.217 374.18 414.777 374.18H409.377C400.137 374.18 395.037 374.06 394.077 373.82C393.957 373.1 393.897 372.26 393.897 371.3L393.717 370.22V366.8L393.177 366.98V366.62L392.997 366.08L393.537 364.82L393.177 365V364.64L393.357 363.02L393.537 362.3H393.177ZM393.357 363.02L393.537 362.48L393.357 363.02ZM415.317 277.88V303.62C415.317 315.38 415.437 333.02 415.677 356.54L416.217 356.72H452.577C453.777 356.72 455.637 356.78 458.157 356.9H463.917C468.597 356.9 472.377 356.66 475.257 356.18L475.617 355.64L475.437 350.96L475.077 346.46C474.957 346.58 474.837 346.58 474.717 346.46V346.1L475.257 345.92V342.5C475.257 341.54 475.137 340.34 474.897 338.9C473.577 338.66 471.897 338.54 469.857 338.54H464.637L464.457 338.18L464.097 338.54L434.937 339.08C434.577 338.48 434.397 337.28 434.397 335.48V333.32C434.517 332.72 434.577 332.18 434.577 331.7H434.397V286.52L434.217 263.84L434.397 263.48H434.217L433.857 257.9C433.257 257.42 432.657 257.3 432.057 257.54H423.957L415.857 257.72L415.497 258.26L415.317 277.88ZM505.2 374L504.48 373.64V362.3L503.94 360.68L504.12 359.06L504.3 357.26C504.42 357.38 504.48 357.38 504.48 357.26L504.3 332.6L504.12 307.94L503.76 307.22L504.48 306.32L503.94 305.78V304.52C504.3 304.04 504.48 301.76 504.48 297.68V268.7C504.48 262.22 504.6 252.5 504.84 239.54L520.32 239.36H535.62L535.8 239.54H606.36C606.6 244.7 606.54 249.38 606.18 253.58L606.72 253.94C606 260.54 605.7 268.76 605.82 278.6L606 291.02L606.18 303.44C606.18 303.8 606.3 304.28 606.54 304.88L606.9 306.32C606.9 306.92 606.66 307.7 606.18 308.66C606.06 314.9 606 324.26 606 336.74H605.82C605.82 336.86 605.88 336.98 606 337.1L606.18 338.54V356.72L606 373.82L505.2 374ZM525.54 272.3C525.42 273.14 525.12 274.22 524.64 275.54L523.92 277.16L523.38 278.6L523.74 278.24C523.02 282.32 522.66 285.38 522.66 287.42C522.66 295.58 525.42 302.24 530.94 307.4C536.22 312.56 542.88 315.02 550.92 314.78H552.36V310.46L552.18 303.8L552 297.14L550.38 296.78L548.76 296.42C547.44 296.06 546.36 295.64 545.52 295.16H546.06L544.26 294.62C541.26 291.98 539.76 288.8 539.76 285.08C539.76 281.72 541.02 278.96 543.54 276.8C545.94 274.76 548.88 273.74 552.36 273.74V255.56L551.82 255.38C546.54 255.02 541.38 256.58 536.34 260.06C531.78 263.18 528.18 267.32 525.54 272.48V272.3ZM558.84 273.92C559.44 274.16 560.34 274.16 561.54 273.92C567.18 273.92 570.3 276.86 570.9 282.74L589.26 282.56L589.44 281.48C589.8 275 586.86 269.06 580.62 263.66C574.5 258.38 568.14 255.74 561.54 255.74C560.34 255.74 559.5 255.8 559.02 255.92C558.54 257.96 558.36 260.9 558.48 264.74L558.66 269.42V273.74L558.84 273.92ZM557.94 297.32L558.12 305.96C558.24 309.32 558.42 312.2 558.66 314.6C562.02 314.72 564.9 315.92 567.3 318.2C569.7 320.6 570.9 323.48 570.9 326.84C570.9 330.2 569.88 332.9 567.84 334.94V334.4C566.04 337.16 562.92 338.66 558.48 338.9L558.12 339.8L558.3 341.42H558.48V348.98C558.6 351.74 558.78 354.26 559.02 356.54L558.48 356.72C559.08 356.84 559.98 356.9 561.18 356.9C568.98 356.9 575.58 353.84 580.98 347.72C586.26 341.96 588.84 335.18 588.72 327.38C588.72 321.86 587.4 316.58 584.76 311.54C581.88 306.14 578.04 302.42 573.24 300.38L572.34 299.84H572.7L572.16 299.66V299.84C572.04 299.84 571.92 299.72 571.8 299.48C571.68 299.36 571.68 299.3 571.8 299.3L568.92 298.58L566.04 297.86C563.88 297.26 561.96 297.02 560.28 297.14L558.3 297.32L557.94 297.5V297.32ZM529.86 348.8C535.62 354.56 542.16 357.26 549.48 356.9L552.54 356.54V347.54L552.36 338.72L550.38 338.54L548.4 338.18C546.96 337.82 545.82 337.16 544.98 336.2C543.66 335.6 542.64 334.52 541.92 332.96C541.32 331.88 540.84 330.44 540.48 328.64L537.6 328.46H528.42L522.12 328.64L521.58 329.18C521.46 336.62 524.22 343.16 529.86 348.8ZM615.716 239L653.516 238.82H707.696L716.156 238.64L716.336 271.76V373.82C715.736 374.18 699.836 374.36 668.636 374.36H615.896L615.176 373.82L615.716 373.28V366.8L615.536 360.32L615.176 359.42L615.896 359.96V359.78L615.716 358.7L615.536 359.06L615.896 358.34V358.16H615.536V358.34L615.356 356.54L615.536 356.18V355.82C615.536 354.74 615.476 351.14 615.356 345.02V340.88L615.176 336.38V327.02C614.936 310.58 614.996 301.76 615.356 300.56C615.116 299.48 615.056 296.24 615.176 290.84L615.356 287.78V284.72C615.476 282.56 615.536 281.12 615.536 280.4C615.296 280.4 615.176 280.28 615.176 280.04C615.296 275.24 615.236 268.82 614.996 260.78L614.816 251.06V241.52C614.816 240.44 615.056 239.6 615.536 239H615.716ZM679.436 273.56C683.636 273.56 689.936 273.44 698.336 273.2L698.516 272.48V255.92C697.916 255.56 697.076 255.38 695.996 255.38C695.156 255.26 694.256 255.26 693.296 255.38H692.036L691.316 256.1L691.676 255.38L633.176 255.74V262.76L632.996 269.78L632.816 269.96C632.936 270.2 632.996 270.56 632.996 271.04V272.12C632.996 272.96 633.296 273.44 633.896 273.56C634.856 273.68 636.176 273.74 637.856 273.74H641.816L679.616 273.56H679.436ZM656.216 347.9C656.216 351.02 656.336 353.36 656.576 354.92L665.756 354.74H674.936C675.656 349.82 675.956 343.58 675.836 336.02V326.3C675.716 322.22 675.656 319.1 675.656 316.94C675.656 311.78 675.536 305.36 675.296 297.68L674.576 278.6H656.576L656.396 313.16L656.216 347.72V347.9ZM726.081 240.44L827.421 240.26V248C827.541 252.44 827.541 254.72 827.421 254.84L827.781 255.92V295.52L827.961 296.06L827.781 297.32L827.961 297.86C827.961 331.46 828.021 356.66 828.141 373.46V373.64C802.221 374.12 773.061 374.36 740.661 374.36H726.621L726.441 374.18V346.28L726.261 318.38L726.081 290.66L726.261 282.56L726.441 274.28C726.561 267.68 726.381 262.28 725.901 258.08C726.021 257.6 726.081 254.84 726.081 249.8V240.44ZM769.641 256.28L768.921 258.26C768.201 259.82 767.841 261.08 767.841 262.04C767.841 262.76 771.861 277.04 779.901 304.88C781.221 309.56 782.781 314.9 784.581 320.9C785.181 323.06 785.901 325.58 786.741 328.46L787.821 332.06L788.721 335.48C791.721 345.8 793.461 351.8 793.941 353.48L812.661 353.3L813.021 352.94L810.501 344.66L807.981 336.56C805.581 329.24 803.841 323.78 802.761 320.18L803.121 320C803.121 319.76 802.941 319.64 802.581 319.64V319.28L798.081 303.26L793.581 287.24C789.741 273.68 786.801 262.94 784.761 255.02L782.781 254.12L776.661 254.3L770.361 254.48L769.641 256.28ZM764.601 275C763.761 278.48 762.561 282.86 761.001 288.14L759.021 294.8L757.041 301.28L756.501 301.82L756.861 301.64C755.781 306.68 754.101 313.1 751.821 320.9L748.941 330.62L746.241 340.16H746.061C746.061 341 745.581 343.22 744.621 346.82C744.261 348.02 743.841 349.46 743.361 351.14L742.821 352.76C742.701 353.36 742.581 353.78 742.461 354.02H760.641C761.961 350.42 763.161 346.1 764.241 341.06L765.141 340.52C771.261 340.52 777.381 340.34 783.501 339.98L781.521 332.96L779.541 325.94L769.281 325.4L768.921 324.86L771.621 315.14L774.501 305.42C773.541 301.34 772.221 296.48 770.541 290.84L768.201 283.46L766.041 276.26L764.601 274.82V275ZM937.64 239.54L938.18 239.72V247.82C937.82 248.9 937.64 250.04 937.64 251.24V262.58L938 273.92C938.12 284.12 938.18 291.74 938.18 296.78V302.9C938.18 305.3 938 307.4 937.64 309.2L938.18 310.1L938 359.78V373.28L937.28 373.64L937.46 373.82L886.7 374H838.46L836.84 373.64L836.48 367.16C836.36 364.64 836.3 362.54 836.3 360.86C836.3 360.38 836.42 359.78 836.66 359.06L836.48 360.32L836.84 360.5L837.02 359.24L836.12 358.16L836.66 357.44L836.12 356.18L836.3 356L836.66 355.82C836.66 338.9 836.48 322.1 836.12 305.42L836.48 305.78L836.84 305.24L836.3 304.7L836.66 304.34V294.26C836.78 289.7 836.66 283.34 836.3 275.18L836.12 265.64L835.94 256.1C835.94 255.38 836.18 254.66 836.66 253.94V240.08L836.84 239.54H937.64ZM877.34 265.46C877.46 269.3 877.4 272.18 877.16 274.1C878.24 274.22 879.62 274.28 881.3 274.28H885.26C896.18 274.28 901.64 278.84 901.64 287.96C901.64 293.6 899.36 297.44 894.8 299.48C893.12 300.2 890.9 300.74 888.14 301.1C886.46 301.34 884.06 301.46 880.94 301.46H878.06L877.7 302L878.06 319.1L889.94 337.46C894.5 344.54 898.34 350.78 901.46 356.18L922.88 355.64L911 336.38L911.18 336.2L910.46 335.66L910.64 335.3C910.04 334.94 909.44 334.22 908.84 333.14L907.94 331.88L907.22 330.62L907.4 330.26L907.22 330.08L906.14 328.1L905.96 328.28L904.7 326.12H904.52L900.02 319.82V319.1L899.48 318.74C899.48 318.62 900.62 318.02 902.9 316.94C904.1 316.34 905.18 315.74 906.14 315.14C907.46 314.42 908.72 313.58 909.92 312.62C916.64 307.1 920 299.54 920 289.94C920 283.58 918.92 278 916.76 273.2C916.52 272.6 916.04 271.76 915.32 270.68C914.6 269.6 914.12 268.76 913.88 268.16L912.98 267.62C907.46 260.18 898.34 256.46 885.62 256.46L881.66 256.64L877.52 256.82C877.4 258.74 877.34 261.62 877.34 265.46ZM869.06 256.82H863.12L858.98 257L858.26 257.72L859.16 258.62L858.8 258.8L857.54 258.08L855.92 257.54L854.3 257C853.82 257 853.34 257.24 852.86 257.72L852.68 260.6L852.5 263.66C852.5 294.5 853.04 325.34 854.12 356.18C855.8 356.06 858.02 356.06 860.78 356.18L864.2 356.36H867.44L872.12 356.18L872.3 356C872.3 353.84 872.24 347.72 872.12 337.64C872.12 326.12 872.06 314.96 871.94 304.16C871.58 273.08 871.28 257.36 871.04 257C870.44 256.88 869.78 256.82 869.06 256.82ZM947.24 239L985.04 238.82H1039.22L1047.68 238.64L1047.86 271.76V373.82C1047.26 374.18 1031.36 374.36 1000.16 374.36H947.42L946.7 373.82L947.24 373.28V366.8L947.06 360.32L946.7 359.42L947.42 359.96V359.78L947.24 358.7L947.06 359.06L947.42 358.34V358.16H947.06V358.34L946.88 356.54L947.06 356.18V355.82C947.06 354.74 947 351.14 946.88 345.02V340.88L946.7 336.38V327.02C946.46 310.58 946.52 301.76 946.88 300.56C946.64 299.48 946.58 296.24 946.7 290.84L946.88 287.78V284.72C947 282.56 947.06 281.12 947.06 280.4C946.82 280.4 946.7 280.28 946.7 280.04C946.82 275.24 946.76 268.82 946.52 260.78L946.34 251.06V241.52C946.34 240.44 946.58 239.6 947.06 239H947.24ZM1010.96 273.56C1015.16 273.56 1021.46 273.44 1029.86 273.2L1030.04 272.48V255.92C1029.44 255.56 1028.6 255.38 1027.52 255.38C1026.68 255.26 1025.78 255.26 1024.82 255.38H1023.56L1022.84 256.1L1023.2 255.38L964.7 255.74V262.76L964.52 269.78L964.34 269.96C964.46 270.2 964.52 270.56 964.52 271.04V272.12C964.52 272.96 964.82 273.44 965.42 273.56C966.38 273.68 967.7 273.74 969.38 273.74H973.34L1011.14 273.56H1010.96ZM987.74 347.9C987.74 351.02 987.86 353.36 988.1 354.92L997.28 354.74H1006.46C1007.18 349.82 1007.48 343.58 1007.36 336.02V326.3C1007.24 322.22 1007.18 319.1 1007.18 316.94C1007.18 311.78 1007.06 305.36 1006.82 297.68L1006.1 278.6H988.1L987.92 313.16L987.74 347.72V347.9Z" fill="white"/>
</svg>
