<svg width="40" height="40" viewBox="0 0 40 40" fill="none" xmlns="http://www.w3.org/2000/svg">
<g clip-path="url(#clip0_51_53)">
<path d="M20 7.93215e-05C9.02261 7.93215e-05 0.0895919 8.93341 0.000706155 19.8667C-0.0436248 25.2 2.00056 30.2667 5.77836 34.0445C9.51148 37.8667 14.5336 39.9556 19.8667 40H20.0001C30.9774 40 39.9105 31.0667 39.9993 20.1333C40.0883 9.11111 31.1552 0.0888889 20.0001 0L20 7.93215e-05ZM29.6885 26.6667L28.7998 27.5556C27.3332 29.0222 26.0887 29.3779 24.1332 28.8C22.0887 28.1778 20.2667 27.0667 18.6222 25.7333C16.2667 23.8223 13.7333 21.3332 12.0891 18.7553C10.4448 16.0885 9.91131 13.2887 12.2224 10.9775L13.1112 10.0887C13.7334 9.46652 14.7555 9.46652 15.4223 10.0887L18.0443 12.7109C18.6665 13.3331 18.6665 14.3552 18.0443 15.0221L16.4887 16.5778L16.533 16.6221C18.2663 19.2443 20.5327 21.5112 23.1551 23.2444L23.1994 23.2887L24.7551 21.733C25.3772 21.1108 26.3994 21.1108 27.0662 21.733L29.6882 24.3552C30.3554 25.0223 30.3554 26.0445 29.6885 26.6667L29.6885 26.6667Z" fill="#612B8B"/>
</g>
<defs>
<clipPath id="clip0_51_53">
<rect width="40" height="40" fill="white"/>
</clipPath>
</defs>
</svg>
