<svg width="126" height="65" viewBox="0 0 126 65" fill="none" xmlns="http://www.w3.org/2000/svg">
<path d="M0 0H126V65H0V0Z" fill="#612B8B"/>
<path d="M7.16466 36.8214C7.17996 36.8367 7.19526 36.829 7.21057 36.7986V36.6615C7.22587 36.6005 7.24117 36.5548 7.25648 36.5243H7.18761C7.21822 36.4634 7.23352 36.3796 7.23352 36.273L7.25648 35.9988L7.71559 35.9759H14.0972C16.3775 35.9759 18.3516 35.9911 20.0197 36.0216L20.1115 36.1587V36.6386C20.1115 36.8367 20.0962 36.9966 20.0656 37.1185L20.0886 37.1413V37.2099L20.0427 37.2556V37.3242C20.0427 37.4156 20.058 37.5679 20.0886 37.7812C20.1192 37.9792 20.1345 38.1316 20.1345 38.2382C20.1345 38.939 20.1268 40.0054 20.1115 41.4374C20.0962 42.8695 20.0886 43.9435 20.0886 44.6595C20.0886 45.0404 20.0733 45.6269 20.0427 46.4191L19.9968 47.3103L19.9738 48.2015C19.9738 48.3081 19.9815 48.5062 19.9968 48.7956V49.207L20.0197 49.6183C20.0503 50.3495 20.0503 50.7837 20.0197 50.9208L19.9968 50.8751L19.9738 51.0579H19.9968V51.1036L20.0197 51.0808L20.0656 51.1494C20.035 51.4083 20.0197 51.7206 20.0197 52.0863L19.9968 52.5661V53.046L19.9279 53.0689H7.3483C7.30239 53.0689 7.24883 53.0536 7.18761 53.0232V51.3322L7.1417 51.2636C7.18761 51.1265 7.21057 50.479 7.21057 49.3212V47.1503L7.18761 47.0818V46.282L7.21057 45.4593C7.22587 44.789 7.21057 44.2482 7.16466 43.8368C7.21057 43.6693 7.23352 43.4712 7.23352 43.2427V42.6257H7.21057L7.23352 42.58L7.25648 42.5572L7.23352 42.5115V39.6779C7.23352 38.5962 7.21057 37.6517 7.16466 36.8443V36.8214ZM13.9136 38.1011L13.5004 38.0783L12.7658 38.124C12.7352 38.2001 12.7199 38.3296 12.7199 38.5124V38.7181L12.6969 38.9009C12.7122 38.9466 12.7199 39.0152 12.7199 39.1066C12.7199 39.2132 12.7275 39.2894 12.7428 39.3351V39.3579C12.7581 39.3884 12.7658 39.4494 12.7658 39.5408L12.7428 39.8835C12.7275 40.0359 12.7275 40.1577 12.7428 40.2492C12.9112 40.2796 13.1254 40.3025 13.3856 40.3177H14.0054C14.4798 40.3329 14.8624 40.4853 15.1532 40.7747C15.5511 41.1404 15.7577 41.5441 15.773 41.9859C15.773 42.0925 15.75 42.2068 15.7041 42.3286L15.6582 42.3515L15.7041 42.4658C15.6888 42.481 15.6735 42.4962 15.6582 42.5115C15.6582 42.5267 15.6658 42.5267 15.6811 42.5115C15.5893 43.0447 15.2756 43.4027 14.74 43.5855C14.541 43.6617 14.2962 43.715 14.0054 43.7454C13.8064 43.7607 13.5539 43.7683 13.2479 43.7683H13.0183L12.7658 43.7911L12.7428 43.814V45.9849C12.85 46.0154 13.0183 46.0306 13.2479 46.0306C16.4157 46.0306 17.9996 44.6671 17.9996 41.9402C17.9996 41.4527 17.9308 40.9804 17.793 40.5234L17.816 40.4777L17.7471 40.3406H17.7012C17.64 40.112 17.5558 39.9445 17.4487 39.8378L17.4717 39.815L17.4257 39.7236L17.3569 39.6779L17.4028 39.655H17.3798C16.63 38.5581 15.5817 38.0326 14.2349 38.0783H13.9136V38.1011ZM9.59794 38.8781L9.52907 50.7152L9.55202 50.7609L10.7687 50.738L11.9623 50.6923V42.8542C11.9623 41.0413 11.9547 39.4951 11.9394 38.2154L11.7557 38.1011L9.68976 38.1697L9.64385 38.1925C9.61324 38.4972 9.59794 38.7257 9.59794 38.8781ZM20.0197 44.6595C20.0197 44.6747 20.0427 44.6976 20.0886 44.7281C20.0886 44.6367 20.0733 44.5681 20.0427 44.5224V44.6824L20.0197 44.6367V44.6595ZM20.2952 50.8066V50.898H20.2493V50.8066H20.2952Z" fill="white"/>
<path d="M31.0426 35.9302C31.7466 35.9302 32.8026 35.9454 34.2105 35.9759C34.2564 36.2044 34.2794 36.4329 34.2794 36.6615L34.2335 44.8195L34.1875 44.7509L34.1646 44.8195L34.2335 44.9794C34.2335 46.3048 34.2182 48.2929 34.1875 50.9437C34.1722 50.9285 34.1646 50.9361 34.1646 50.9665C34.1493 50.9818 34.1416 50.997 34.1416 51.0122V51.1494L34.1646 51.1265L34.1187 51.3322C34.1187 51.3169 34.1416 51.3245 34.1875 51.355V51.3093L34.2105 51.3322L34.1875 51.3779V52.2005L34.1646 53.0232L21.4243 53.0917L21.3554 53.0689C21.3248 52.9318 21.3095 52.6499 21.3095 52.2234C21.2942 51.7816 21.3019 51.515 21.3325 51.4236L21.2866 51.355H21.3554V47.9044C21.3554 45.8935 21.3401 44.8652 21.3095 44.8195L21.3325 44.7738C21.3172 44.7281 21.3095 43.8673 21.3095 42.1915V39.2894L21.2407 39.2208C21.2713 39.2056 21.2866 39.1904 21.2866 39.1751L21.2636 39.1523H21.2407L21.3095 39.038C21.2942 39.0228 21.2866 39.0304 21.2866 39.0609L21.2636 39.1066V38.9238L21.3095 38.8552L21.3325 38.8324V38.7867L21.3095 38.741C21.2942 38.6952 21.2789 38.68 21.2636 38.6952C21.2942 38.6343 21.3095 38.2154 21.3095 37.4384V35.9759L31.0197 35.9302H31.0426ZM34.1646 38.0554L34.2335 38.2611V38.2154L34.1646 38.0783V38.0554ZM23.5362 47.516C23.5362 48.4453 23.9265 49.2527 24.7069 49.9382C25.4568 50.6085 26.3062 50.9437 27.255 50.9437L27.4157 50.9208L27.4386 48.7271L27.3698 48.6585C26.6811 48.6585 26.2297 48.3843 26.0154 47.8359C25.9236 47.6226 25.8777 46.7314 25.8777 45.1622C25.8777 44.6747 25.8853 44.0806 25.9006 43.3798V42.2144C25.9006 41.0109 26.398 40.4091 27.3927 40.4091L27.4157 39.3351L27.3927 38.2611L27.3009 38.2382C26.5816 38.2382 25.8777 38.4743 25.189 38.9466C24.485 39.4189 24.0259 39.9902 23.8117 40.6605C23.6433 41.1785 23.5515 42.2829 23.5362 43.974C23.5209 44.5376 23.5133 45.2079 23.5133 45.9849L23.5362 46.4191V47.516ZM28.1962 40.4548C28.793 40.5462 29.2062 40.7671 29.4358 41.1175C29.6041 41.407 29.6883 41.8792 29.6883 42.5343L29.6424 46.3277C29.6424 46.6476 29.6347 46.9066 29.6194 47.1046C29.5888 47.4093 29.5276 47.6607 29.4358 47.8587C29.2215 48.3919 28.816 48.6585 28.2191 48.6585L28.1962 48.7499V50.9437L28.2421 50.9665C29.2827 50.9513 30.1856 50.5476 30.9508 49.7554C31.7007 48.9937 32.0756 48.0949 32.0756 47.0589V46.3048L32.0986 45.8478V45.3908C32.1139 44.5833 32.1139 43.9054 32.0986 43.357C32.0221 41.666 31.7696 40.5234 31.3411 39.9292C31.035 39.4874 30.6294 39.1066 30.1244 38.7867C29.5735 38.4363 29.0532 38.2687 28.5635 38.2839H28.2421C28.2115 38.4058 28.1962 38.7562 28.1962 39.3351V40.4548ZM34.2335 45.1394V45.1165L34.2105 45.1851L34.2335 45.1394Z" fill="white"/>
<path d="M35.2516 51.5607L35.2975 51.5378V51.5835L35.2745 51.7206L35.2975 51.812L35.3434 51.6521L35.3663 51.4921L35.3434 51.3779L35.2975 51.4236H35.3204C35.3357 51.4236 35.3357 51.4312 35.3204 51.4464L35.2975 51.4693V51.4464L35.2516 51.4007L35.3204 51.2636L35.2975 46.7847L35.3204 46.6704L35.3434 46.6476V46.6247L35.3663 46.6933L35.4123 46.579L35.2516 46.7161L35.2286 46.6704L35.2975 46.5562L35.2745 46.5333V46.5105L35.2516 46.579V46.5105L35.2975 46.4419L35.3204 46.4876H35.4123L35.3204 46.3277V45.8249C35.3357 45.5964 35.3281 45.4365 35.2975 45.3451L35.3204 45.2994L35.2516 43.8597H35.2745L35.2975 43.8368V43.814L35.2745 43.8368C35.3204 43.6388 35.3128 43.3417 35.2516 42.9456V42.7171L35.2745 42.8085L35.2975 42.8314L35.2516 42.8771H35.2975C35.3128 42.8771 35.3204 42.8847 35.3204 42.8999L35.2975 42.9228H35.2745C35.2592 42.938 35.2592 42.9456 35.2745 42.9456C35.3204 42.9456 35.351 42.9076 35.3663 42.8314V42.6029L35.2975 42.5343L35.2516 39.8835C35.221 38.8019 35.2057 37.9183 35.2057 37.2327L35.2516 36.7072L35.2745 36.2044L35.3434 36.0673V36.0216L38.5112 35.9988H45.7193L48.2903 36.0216L48.3132 36.0673C48.2826 36.9357 48.275 38.0478 48.2903 39.4036L48.3362 42.7628V42.8999L48.3132 43.037C48.2979 43.1437 48.2979 43.2351 48.3132 43.3113L48.2673 43.357L48.2903 43.4941L48.3362 43.4712V43.5626L48.3591 43.6083L48.3362 47.4702C48.3209 48.9785 48.2979 50.2658 48.2673 51.3322H48.2903L48.3132 51.6749L48.2903 51.7206C48.3209 51.812 48.3438 51.9263 48.3591 52.0634V52.4062L48.3362 52.5433L48.3132 52.6576C48.2979 52.7642 48.2979 52.8556 48.3132 52.9318C48.2979 52.947 48.2903 52.9622 48.2903 52.9775C48.2903 52.9927 48.3056 52.9927 48.3362 52.9775C48.1066 53.0232 47.8541 53.046 47.5787 53.046L46.7982 53.0689L43.1482 53.046H38.649C38.4041 53.0613 38.1899 53.0689 38.0062 53.0689H37.3176C36.1392 53.0689 35.4888 53.0536 35.3663 53.0232C35.351 52.9318 35.3434 52.8251 35.3434 52.7033L35.3204 52.5661V52.132L35.2516 52.1548V52.1091L35.2286 52.0406L35.2975 51.8806L35.2516 51.9035V51.8577L35.2745 51.6521L35.2975 51.5607H35.2516ZM38.0751 40.8433V44.1111C38.0751 45.604 38.0904 47.8435 38.121 50.8294L38.1899 50.8523H42.8269C42.9799 50.8523 43.2171 50.8599 43.5385 50.8751H44.2731C44.8699 50.8751 45.352 50.8447 45.7193 50.7837L45.7652 50.7152L45.7422 50.121L45.6963 49.5497C45.681 49.565 45.6657 49.565 45.6504 49.5497V49.504L45.7193 49.4812V49.047C45.7193 48.9251 45.704 48.7728 45.6733 48.59C45.505 48.5595 45.2908 48.5443 45.0306 48.5443H44.3649L44.3419 48.4986L44.296 48.5443L40.5772 48.6128C40.5313 48.5367 40.5084 48.3843 40.5084 48.1558V47.8816C40.5237 47.8054 40.5313 47.7369 40.5313 47.6759H40.5084V41.9402L40.4854 39.0609L40.5084 39.0152H40.4854L40.4395 38.3068C40.363 38.2458 40.2865 38.2306 40.2099 38.2611H39.1769L38.144 38.2839L38.098 38.3525L38.0751 40.8433Z" fill="white"/>
<path d="M49.5379 53.046L49.4461 53.0003V51.5607L49.3772 51.355L49.4002 51.1494L49.4232 50.9208C49.4385 50.9361 49.4461 50.9361 49.4461 50.9208L49.4002 44.6595L49.3543 44.5681L49.4461 44.4538L49.3772 44.3853V44.2253C49.4232 44.1644 49.4461 43.8749 49.4461 43.357V39.6779C49.4461 38.8552 49.4614 37.6212 49.492 35.9759L51.4662 35.9531H53.4174L53.4404 35.9759H62.4389C62.4695 36.631 62.4619 37.2251 62.416 37.7583L62.4848 37.804C62.393 38.6419 62.3547 39.6855 62.37 40.9347L62.416 44.0882C62.416 44.1339 62.4313 44.1949 62.4619 44.271L62.5078 44.4538C62.5078 44.53 62.4772 44.629 62.416 44.7509C62.4006 45.5431 62.393 46.7314 62.393 48.3158H62.37C62.37 48.331 62.3777 48.3462 62.393 48.3615L62.416 48.5443V50.8523L62.393 53.0232L49.5379 53.046ZM52.1319 40.1349C52.1166 40.2415 52.0783 40.3786 52.0171 40.5462L51.9253 40.7519L51.8564 40.9347L51.9023 40.889C51.8105 41.407 51.7646 41.7954 51.7646 42.0544C51.7646 43.0904 52.1166 43.9359 52.8206 44.591C53.4939 45.246 54.3433 45.5583 55.3686 45.5279H55.5523V44.9794L55.5064 43.2884L55.0932 43.197C54.9248 43.1513 54.7871 43.098 54.68 43.037H54.7488L54.5193 42.9685C54.1367 42.6333 53.9454 42.2296 53.9454 41.7574C53.9454 41.3308 54.1061 40.9804 54.4274 40.7062C54.7335 40.4472 55.1085 40.3177 55.5523 40.3177V38.0097L55.4834 37.9868C54.81 37.9411 54.152 38.1392 53.5092 38.581C52.9277 38.9771 52.4686 39.5027 52.1319 40.1578V40.1349ZM56.3787 40.3406C56.4552 40.371 56.57 40.371 56.723 40.3406C57.4423 40.3406 57.8402 40.7138 57.9167 41.4603L60.2581 41.4374L60.2811 41.3003C60.327 40.4777 59.9521 39.7236 59.1563 39.038C58.3758 38.3677 57.5647 38.0326 56.723 38.0326C56.57 38.0326 56.4628 38.0402 56.4016 38.0554C56.3404 38.3144 56.3174 38.6876 56.3328 39.1751L56.3557 39.7693V40.3177L56.3787 40.3406ZM56.2639 43.3113L56.2868 44.4081C56.3021 44.8347 56.3251 45.2003 56.3557 45.505C56.7842 45.5203 57.1515 45.6726 57.4576 45.962C57.7636 46.2667 57.9167 46.6324 57.9167 47.0589C57.9167 47.4855 57.7866 47.8283 57.5264 48.0872V48.0187C57.2969 48.3691 56.899 48.5595 56.3328 48.59L56.2868 48.7042L56.3098 48.9099H56.3328V49.8697C56.3481 50.2201 56.371 50.54 56.4016 50.8294L56.3328 50.8523C56.4093 50.8675 56.524 50.8751 56.6771 50.8751C57.6718 50.8751 58.5135 50.4867 59.2022 49.7097C59.8755 48.9785 60.2046 48.1177 60.1893 47.1275C60.1893 46.4267 60.0209 45.7564 59.6842 45.1165C59.317 44.431 58.8272 43.9587 58.2151 43.6997L58.1003 43.6312H58.1462L58.0774 43.6083V43.6312C58.0621 43.6312 58.0468 43.616 58.0315 43.5855C58.0162 43.5702 58.0162 43.5626 58.0315 43.5626L57.2969 43.3798C57.0214 43.3036 56.7766 43.2732 56.5623 43.2884L56.3098 43.3113L56.2639 43.3341V43.3113ZM52.6828 49.8468C53.4174 50.5781 54.2515 50.9208 55.185 50.8751L55.5752 50.8294V49.6869L55.5523 48.5671L55.2998 48.5443L55.0472 48.4986C54.8636 48.4529 54.7182 48.3691 54.6111 48.2472C54.4428 48.171 54.3127 48.0339 54.2208 47.8359C54.1443 47.6988 54.0831 47.5159 54.0372 47.2874L53.6699 47.2646H52.4992L51.6958 47.2874L51.6269 47.356C51.6116 48.3005 51.9636 49.1308 52.6828 49.8468Z" fill="white"/>
<path d="M63.6321 35.9074L68.4527 35.8845H75.3623L76.4412 35.8617L76.4642 40.0663V53.0232C76.3876 53.0689 74.3599 53.0917 70.381 53.0917H63.655L63.5632 53.0232L63.6321 52.9546V52.132L63.6091 51.3093L63.5632 51.1951L63.655 51.2636V51.2408L63.6321 51.1036L63.6091 51.1494L63.655 51.0579V51.0351H63.6091V51.0579L63.5861 50.8294L63.6091 50.7837V50.738C63.6091 50.6009 63.6014 50.1439 63.5861 49.3669V48.8413L63.5632 48.2701V47.0818C63.5326 44.9947 63.5402 43.8749 63.5861 43.7226C63.5555 43.5855 63.5479 43.1742 63.5632 42.4886L63.5861 42.1001V41.7117C63.6014 41.4374 63.6091 41.2546 63.6091 41.1632C63.5785 41.1632 63.5632 41.148 63.5632 41.1175C63.5785 40.5081 63.5708 39.6931 63.5402 38.6724L63.5173 37.4384V36.2273C63.5173 36.0902 63.5479 35.9835 63.6091 35.9074H63.6321ZM71.7583 40.2949C72.2939 40.2949 73.0974 40.2796 74.1686 40.2492L74.1916 40.1578V38.0554C74.1151 38.0097 74.0079 37.9868 73.8702 37.9868C73.7631 37.9716 73.6483 37.9716 73.5259 37.9868H73.3652L73.2733 38.0783L73.3193 37.9868L65.8587 38.0326V38.9238L65.8358 39.815L65.8128 39.8378C65.8281 39.8683 65.8358 39.914 65.8358 39.9749V40.112C65.8358 40.2187 65.874 40.2796 65.9506 40.2949C66.073 40.3101 66.2413 40.3177 66.4556 40.3177H66.9606L71.7812 40.2949H71.7583ZM68.797 49.7326C68.797 50.1286 68.8123 50.4257 68.8429 50.6238L70.0137 50.6009H71.1844C71.2762 49.9763 71.3145 49.1841 71.2992 48.2243V46.9904C71.2839 46.4724 71.2762 46.0763 71.2762 45.8021C71.2762 45.147 71.2609 44.332 71.2303 43.357L71.1385 40.9347H68.8429L68.797 49.7097V49.7326Z" fill="white"/>
<path d="M77.707 36.0902L90.6309 36.0673V37.0499C90.6462 37.6136 90.6462 37.9031 90.6309 37.9183L90.6768 38.0554V43.0827L90.6998 43.1513L90.6768 43.3113L90.6998 43.3798C90.6998 47.6454 90.7074 50.8447 90.7227 52.9775V53.0003C87.4171 53.0613 83.6984 53.0917 79.5664 53.0917H77.7758L77.7529 53.0689V49.5269L77.707 42.4658L77.7529 40.3863C77.7682 39.5484 77.7452 38.8628 77.684 38.3296C77.6993 38.2687 77.707 37.9183 77.707 37.2785V36.0902ZM83.2622 38.1011L83.1704 38.3525C83.0786 38.5505 83.0327 38.7105 83.0327 38.8324C83.0327 38.9238 83.5453 40.7367 84.5707 44.271C84.739 44.8652 84.938 45.5431 85.1675 46.3048C85.244 46.579 85.3358 46.899 85.443 47.2646L85.5807 47.7216L85.6955 48.1558C86.0781 49.466 86.3 50.2277 86.3612 50.441L88.7486 50.4181L88.7945 50.3724L88.4731 49.3212L88.1517 48.2929C87.8456 47.3636 87.6237 46.6704 87.486 46.2134L87.5319 46.1906C87.5319 46.1601 87.509 46.1449 87.4631 46.1449V46.0992L86.3153 42.0316C85.8256 40.3101 85.4506 38.9466 85.1905 37.9411L84.938 37.8269L83.354 37.8726L83.2622 38.1011ZM82.6195 40.4777C82.5123 40.9195 82.3593 41.4755 82.1603 42.1458L81.9078 42.9913L81.6553 43.814L81.5865 43.8826L81.6324 43.8597C81.4946 44.4995 81.2804 45.3146 80.9896 46.3048L80.6223 47.5388L80.278 48.7499H80.255C80.255 48.8566 80.1938 49.1384 80.0714 49.5954C80.0255 49.7478 79.9719 49.9306 79.9107 50.1439L79.8418 50.3495C79.8265 50.4257 79.8112 50.479 79.7959 50.5095H82.1144C82.2828 50.0525 82.4358 49.504 82.5735 48.8642L82.6883 48.7956C83.4688 48.7956 84.2493 48.7728 85.0298 48.7271L84.5248 46.9447L83.2163 46.8761L83.1704 46.8076L83.5147 45.5736L83.882 44.3396C83.7596 43.8216 83.5912 43.2046 83.377 42.4886L83.0786 41.5517L82.8031 40.6376L82.6195 40.4548V40.4777Z" fill="white"/>
<path d="M104.687 35.9759L104.756 35.9988V37.0271C104.71 37.1642 104.687 37.3089 104.687 37.4613V38.9009L104.733 40.3406C104.748 41.6355 104.756 42.6029 104.756 43.2427V44.0197C104.756 44.3244 104.733 44.591 104.687 44.8195L104.756 44.9337L104.733 51.2408V52.9546L104.641 53.0003L104.664 53.0232L98.1908 53.046H92.0387L91.8321 53.0003L91.7862 52.1777C91.7709 51.8577 91.7633 51.5911 91.7633 51.3779C91.7633 51.3169 91.7786 51.2408 91.8092 51.1494L91.7862 51.3093L91.8321 51.3322L91.8551 51.1722L91.7403 51.0351L91.8092 50.9437L91.7403 50.7837L91.7633 50.7609L91.8092 50.738C91.8092 48.59 91.7862 46.4572 91.7403 44.3396L91.7862 44.3853L91.8321 44.3167L91.7633 44.2482L91.8092 44.2025V42.9228C91.8245 42.3439 91.8092 41.5365 91.7633 40.5005L91.7174 38.0783C91.7174 37.9869 91.748 37.8954 91.8092 37.804V36.0445L91.8321 35.9759H104.687ZM96.9971 39.2665C97.0124 39.754 97.0048 40.1197 96.9742 40.3634C97.1119 40.3787 97.2879 40.3863 97.5021 40.3863H98.0071C99.3998 40.3863 100.096 40.9652 100.096 42.123C100.096 42.839 99.8053 43.3265 99.2238 43.5855C99.0095 43.6769 98.7264 43.7454 98.3744 43.7911C98.1602 43.8216 97.8541 43.8368 97.4562 43.8368H97.0889L97.043 43.9054L97.0889 46.0763L98.604 48.4072C99.1855 49.306 99.6752 50.0982 100.073 50.7837L102.805 50.7152L101.29 48.2701L101.313 48.2472L101.221 48.1786L101.244 48.1329C101.167 48.0872 101.091 47.9958 101.014 47.8587L100.9 47.6988L100.808 47.5388L100.831 47.4931L100.808 47.4702L100.67 47.2189L100.647 47.2417L100.486 46.9675H100.463L99.8895 46.1677V46.0763L99.8206 46.0306C99.8206 46.0154 99.966 45.9392 100.257 45.8021C100.41 45.7259 100.548 45.6497 100.67 45.5736C100.838 45.4822 100.999 45.3755 101.152 45.2536C102.009 44.5529 102.438 43.5931 102.438 42.3743C102.438 41.5669 102.3 40.8585 102.024 40.2492C101.994 40.173 101.933 40.0663 101.841 39.9292C101.749 39.7921 101.688 39.6855 101.657 39.6093L101.542 39.5408C100.838 38.5962 99.6752 38.124 98.0531 38.124L97.548 38.1468L97.0201 38.1697C97.0048 38.4134 96.9971 38.779 96.9971 39.2665ZM95.9412 38.1697H95.1836L94.6556 38.1925L94.5638 38.2839L94.6786 38.3982L94.6327 38.421L94.472 38.3296L94.0588 38.1925C93.9976 38.1925 93.9364 38.223 93.8752 38.2839L93.8522 38.6495L93.8293 39.038C93.8293 42.9533 93.8981 46.8685 94.0359 50.7837C94.2501 50.7685 94.5332 50.7685 94.8852 50.7837L95.3214 50.8066H95.7346L96.3314 50.7837L96.3544 50.7609C96.3544 50.4867 96.3467 49.7097 96.3314 48.43C96.3314 46.9675 96.3237 45.5507 96.3084 44.1796C96.2625 40.2339 96.2243 38.2382 96.1937 38.1925C96.1171 38.1773 96.033 38.1697 95.9412 38.1697Z" fill="white"/>
<path d="M105.911 35.9074L110.732 35.8845H117.642L118.721 35.8617L118.743 40.0663V53.0232C118.667 53.0689 116.639 53.0917 112.66 53.0917H105.934L105.842 53.0232L105.911 52.9546V52.132L105.888 51.3093L105.842 51.1951L105.934 51.2636V51.2408L105.911 51.1036L105.888 51.1494L105.934 51.0579V51.0351H105.888V51.0579L105.865 50.8294L105.888 50.7837V50.738C105.888 50.6009 105.881 50.1439 105.865 49.3669V48.8413L105.842 48.2701V47.0818C105.812 44.9947 105.82 43.8749 105.865 43.7226C105.835 43.5855 105.827 43.1742 105.842 42.4886L105.865 42.1001V41.7117C105.881 41.4374 105.888 41.2546 105.888 41.1632C105.858 41.1632 105.842 41.148 105.842 41.1175C105.858 40.5081 105.85 39.6931 105.82 38.6724L105.797 37.4384V36.2273C105.797 36.0902 105.827 35.9835 105.888 35.9074H105.911ZM114.038 40.2949C114.573 40.2949 115.377 40.2796 116.448 40.2492L116.471 40.1578V38.0554C116.394 38.0097 116.287 37.9868 116.149 37.9868C116.042 37.9716 115.928 37.9716 115.805 37.9868H115.644L115.553 38.0783L115.599 37.9868L108.138 38.0326V38.9238L108.115 39.815L108.092 39.8378C108.107 39.8683 108.115 39.914 108.115 39.9749V40.112C108.115 40.2187 108.153 40.2796 108.23 40.2949C108.352 40.3101 108.521 40.3177 108.735 40.3177H109.24L114.061 40.2949H114.038ZM111.076 49.7326C111.076 50.1286 111.092 50.4257 111.122 50.6238L112.293 50.6009H113.464C113.556 49.9763 113.594 49.1841 113.578 48.2243V46.9904C113.563 46.4724 113.556 46.0763 113.556 45.8021C113.556 45.147 113.54 44.332 113.51 43.357L113.418 40.9347H111.122L111.076 49.7097V49.7326Z" fill="white"/>
<path d="M51.6648 12.7402C51.4542 12.7494 51.2544 12.8349 51.1029 12.9807L37.379 26.0914L38.4514 26.0436L56.4407 25.1726C56.6511 25.1635 56.8511 25.0779 57.0027 24.9321L69.028 13.434L69.0278 13.4341C69.2019 13.2699 69.3005 13.0418 69.3007 12.8031C69.3006 12.5643 69.2022 12.3362 69.0282 12.1721C68.8539 12.0078 68.6198 11.9221 68.3804 11.9348L51.6648 12.7402Z" fill="#D7FF87"/>
<path d="M46.5136 27.5363C46.3715 27.5441 46.2421 27.6207 46.1674 27.7415C46.0929 27.8623 46.0825 28.0118 46.1397 28.1416L48.1247 32.738C48.9935 34.7499 54.1407 34.4604 59.6887 32.0861C63.4434 30.4793 66.3542 28.3429 67.6172 26.5119C68.203 25.6439 68.4065 24.8076 68.1336 24.1756L66.1208 19.5148C66.0643 19.384 65.9471 19.2894 65.807 19.2614C65.6671 19.2333 65.5219 19.2755 65.4194 19.3744L57.5883 26.8451C57.5133 26.9178 57.414 26.9603 57.3093 26.9645L46.5136 27.5363ZM70.6768 13.1115C70.5513 13.2207 70.5006 13.3924 70.5465 13.5518L71.033 15.2314L72.4365 20.3647C72.4694 20.486 72.5536 20.587 72.6673 20.6415C72.7811 20.6961 72.9129 20.6985 73.0287 20.6488L74.8266 19.8793C74.942 19.8297 75.0302 19.7327 75.0684 19.6135C75.1064 19.4943 75.0909 19.3645 75.0257 19.2576L71.3362 13.2098L71.3359 13.2097C71.27 13.0996 71.1579 13.0247 71.0305 13.0057C70.9032 12.9867 70.7738 13.0256 70.6785 13.1117L70.6768 13.1115Z" fill="#D7FF87"/>
</svg>
