<svg width="637" height="216" viewBox="0 0 637 216" fill="none" xmlns="http://www.w3.org/2000/svg">
<rect width="271.767" height="64.0782" rx="30" transform="matrix(0.981537 -0.191311 0.19014 0.981749 0.336914 90.1919)" fill="#97CF26"/>
<path d="M33.3583 111.877C33.0639 111.935 32.7971 111.883 32.558 111.722C32.3189 111.561 32.1719 111.339 32.117 111.056C32.0621 110.773 32.1153 110.512 32.2767 110.273C32.4357 110.022 32.6624 109.867 32.9569 109.81C33.2396 109.755 33.5016 109.814 33.743 109.987C33.9821 110.148 34.1291 110.37 34.184 110.652C34.2389 110.935 34.1856 111.196 34.0243 111.435C33.863 111.675 33.641 111.822 33.3583 111.877ZM34.6087 122.472L32.8932 113.637L34.4302 113.337L36.1457 122.172L34.6087 122.472ZM42.8876 111.686L44.4246 111.385L46.1401 120.22L44.6031 120.52L43.886 116.827L39.3104 117.721L40.0275 121.414L38.4905 121.714L36.775 112.879L38.312 112.579L39.0256 116.254L43.6013 115.361L42.8876 111.686ZM55.7915 116.814L57.0105 116.576L57.755 120.41L56.2357 120.707L55.776 118.339L49.151 119.632L49.6108 122L48.0914 122.297L47.3469 118.463L48.4246 118.252C48.8389 117.364 48.91 116.219 48.6378 114.818L47.8418 110.718L54.3608 109.445L55.7915 116.814ZM50.1736 117.911L54.2722 117.11L53.1194 111.173L49.6391 111.853L50.1572 114.521C50.4133 115.84 50.4188 116.97 50.1736 117.911ZM63.6494 107.632L64.886 107.39L66.6015 116.225L65.0822 116.522L63.8779 110.32L60.1886 117.477L58.9519 117.719L57.2364 108.884L58.7558 108.587L59.96 114.789L63.6494 107.632ZM73.9423 110.078C74.9224 110.278 75.5085 110.873 75.7006 111.863C75.8424 112.593 75.7117 113.242 75.3086 113.81C74.9149 114.363 74.2646 114.729 73.3577 114.906L68.9411 115.768L67.2256 106.933L71.2889 106.14C72.1722 105.968 72.8988 106.058 73.4686 106.411C74.0361 106.753 74.3896 107.283 74.5292 108.002C74.6939 108.85 74.4982 109.542 73.9423 110.078ZM71.4859 107.532L68.9949 108.018L69.4443 110.333L71.9353 109.847C72.8304 109.672 73.2013 109.19 73.0481 108.401C72.9017 107.647 72.381 107.357 71.4859 107.532ZM72.9984 113.527C73.4459 113.44 73.7669 113.267 73.9613 113.009C74.1674 112.749 74.2328 112.424 74.1573 112.036C74.0864 111.67 73.9078 111.412 73.6216 111.26C73.3449 111.094 72.9827 111.054 72.5352 111.142L69.7085 111.694L70.1717 114.079L72.9984 113.527ZM76.593 103.435C76.2985 103.493 76.0318 103.441 75.7927 103.28C75.5536 103.119 75.4066 102.897 75.3517 102.614C75.2968 102.331 75.35 102.07 75.5113 101.831C75.6704 101.58 75.8971 101.426 76.1916 101.368C76.4742 101.313 76.7363 101.372 76.9776 101.545C77.2167 101.706 77.3637 101.928 77.4186 102.211C77.4735 102.493 77.4203 102.754 77.259 102.994C77.0976 103.233 76.8756 103.38 76.593 103.435ZM77.8434 114.03L76.1279 105.195L77.6649 104.895L79.3804 113.73L77.8434 114.03ZM89.037 110.322L90.256 110.084L91.0005 113.919L89.4812 114.215L89.0215 111.847L82.3965 113.141L82.8563 115.509L81.3369 115.805L80.5924 111.971L81.6701 111.761C82.0844 110.873 82.1555 109.728 81.8833 108.326L81.0873 104.227L87.6063 102.954L89.037 110.322ZM83.4191 111.419L87.5177 110.619L86.3649 104.682L82.8846 105.361L83.4027 108.03C83.6588 109.349 83.6643 110.479 83.4191 111.419ZM96.3025 101.256L97.9455 100.935L96.1634 111.022C95.9809 112.096 95.5984 112.96 95.016 113.611C94.4358 114.275 93.7042 114.662 92.8212 114.774L92.5433 113.342C93.6429 113.213 94.3235 112.469 94.5852 111.11L94.6648 110.764L89.1122 102.66L90.7375 102.343L95.1035 108.679L96.3025 101.256ZM106.198 99.3238L107.735 99.0237L109.45 107.859L107.913 108.159L107.618 106.639C107.079 107.955 106.079 108.755 104.619 109.04C103.382 109.282 102.241 109.04 101.196 108.315C100.148 107.578 99.4986 106.562 99.247 105.266C98.9954 103.97 99.2184 102.79 99.9161 101.724C100.612 100.647 101.578 99.9875 102.814 99.7461C104.275 99.4609 105.501 99.8267 106.493 100.843L106.198 99.3238ZM104.525 107.518C105.42 107.343 106.11 106.897 106.594 106.179C107.075 105.449 107.229 104.637 107.056 103.741C106.882 102.846 106.436 102.157 105.719 101.673C104.999 101.178 104.192 101.018 103.297 101.192C102.413 101.365 101.731 101.816 101.249 102.546C100.765 103.264 100.61 104.071 100.784 104.966C100.958 105.861 101.405 106.556 102.124 107.052C102.841 107.535 103.642 107.691 104.525 107.518ZM117.43 97.1306L119.146 105.965L117.609 106.266L116.182 98.915L112.701 99.5945L113.401 103.199C113.683 104.648 113.585 105.719 113.108 106.411C112.641 107.089 111.868 107.484 110.79 107.597L110.508 106.148C111.125 106.113 111.547 105.896 111.775 105.497C112.013 105.084 112.04 104.406 111.857 103.464L110.876 98.4103L117.43 97.1306ZM124.105 99.1286C124.988 98.9561 125.77 99.0786 126.45 99.496C127.139 99.8993 127.565 100.519 127.728 101.356C127.89 102.192 127.728 102.933 127.242 103.578C126.766 104.209 126.086 104.61 125.202 104.783L121.475 105.511L119.759 96.6758L121.296 96.3757L121.914 99.5563L124.105 99.1286ZM124.925 103.352C125.36 103.267 125.701 103.072 125.948 102.767C126.204 102.448 126.291 102.076 126.208 101.652C126.126 101.228 125.906 100.916 125.55 100.717C125.205 100.515 124.815 100.457 124.379 100.542L122.188 100.97L122.734 103.779L124.925 103.352ZM134.326 93.8317L135.863 93.5316L137.578 102.366L136.041 102.667L135.324 98.9736L130.748 99.867L131.466 103.56L129.929 103.86L128.213 95.0252L129.75 94.7251L130.464 98.4004L135.039 97.507L134.326 93.8317ZM138.667 91.315C138.373 91.3725 138.106 91.3207 137.867 91.1595C137.628 90.9983 137.481 90.7764 137.426 90.4937C137.371 90.211 137.424 89.9499 137.586 89.7106C137.745 89.4594 137.971 89.3051 138.266 89.2476C138.549 89.1924 138.811 89.2513 139.052 89.4243C139.291 89.5854 139.438 89.8074 139.493 90.0901C139.548 90.3728 139.495 90.6338 139.333 90.8732C139.172 91.1125 138.95 91.2598 138.667 91.315ZM139.918 101.91L138.202 93.0747L139.739 92.7746L141.455 101.61L139.918 101.91ZM155.689 98.8302L153.781 99.2028L148.94 95.8015L149.753 99.9892L148.216 100.289L146.501 91.4544L148.038 91.1543L148.796 95.0594L151.854 90.4092L153.832 90.0229L150.44 95.1234L155.689 98.8302ZM163.547 96.1406C162.814 97.2129 161.799 97.8756 160.504 98.1285C159.208 98.3815 158.02 98.1489 156.939 97.4307C155.87 96.7102 155.209 95.6961 154.955 94.3886C154.701 93.081 154.935 91.8922 155.656 90.8221C156.389 89.7498 157.404 89.0871 158.699 88.8342C159.995 88.5812 161.183 88.8138 162.264 89.532C163.344 90.2502 164.012 91.2631 164.265 92.5707C164.519 93.8783 164.28 95.0682 163.547 96.1406ZM160.212 96.6266C161.096 96.4541 161.779 96.0088 162.263 95.2908C162.747 94.5727 162.902 93.7661 162.728 92.8708C162.555 91.9755 162.109 91.2861 161.392 90.8026C160.674 90.3192 159.874 90.1636 158.991 90.3361C158.119 90.5063 157.441 90.9504 156.957 91.6685C156.473 92.3865 156.318 93.1932 156.492 94.0885C156.666 94.9837 157.112 95.6731 157.829 96.1566C158.546 96.6401 159.341 96.7968 160.212 96.6266ZM171.332 86.6059L172.869 86.3058L174.585 95.1407L173.048 95.4408L172.331 91.7478L167.755 92.6413L168.472 96.3342L166.935 96.6344L165.22 87.7994L166.757 87.4993L167.47 91.1747L172.046 90.2812L171.332 86.6059ZM181.121 94.103C179.79 94.3628 178.597 94.1373 177.542 93.4262C176.485 92.7035 175.828 91.6824 175.572 90.363C175.316 89.0437 175.543 87.856 176.255 86.8001C176.965 85.7323 177.985 85.0685 179.316 84.8086C180.187 84.6385 181.012 84.6976 181.789 84.986C182.564 85.2626 183.191 85.7209 183.67 86.3611L182.524 87.355C182.209 86.9275 181.788 86.6184 181.262 86.4277C180.748 86.2346 180.196 86.1956 179.607 86.3106C178.724 86.4831 178.04 86.9283 177.556 87.6464C177.084 88.3621 176.935 89.1677 177.109 90.0629C177.28 90.9464 177.719 91.6311 178.424 92.1168C179.142 92.6003 179.942 92.7558 180.825 92.5834C181.414 92.4684 181.918 92.2294 182.337 91.8665C182.753 91.4918 183.039 91.0447 183.195 90.5252L184.649 91.0298C184.408 91.7984 183.974 92.4637 183.35 93.0258C182.723 93.576 181.98 93.9351 181.121 94.103ZM190.691 82.826L192.334 82.5052L190.552 92.5916C190.369 93.6665 189.987 94.5298 189.404 95.1815C188.824 95.845 188.092 96.2323 187.209 96.3436L186.932 94.9124C188.031 94.7832 188.712 94.039 188.973 92.6797L189.053 92.334L183.5 84.23L185.126 83.9126L189.492 90.2493L190.691 82.826ZM200.432 80.924L202.148 89.7589L200.611 90.059L199.183 82.7084L195.703 83.3879L196.403 86.9926C196.684 88.4415 196.586 89.512 196.11 90.2042C195.642 90.8824 194.87 91.2778 193.791 91.3905L193.51 89.9416C194.127 89.9068 194.549 89.6898 194.777 89.2907C195.015 88.8775 195.042 88.1997 194.859 87.2573L193.878 82.2038L200.432 80.924ZM207.106 82.922C207.989 82.7495 208.771 82.872 209.451 83.2894C210.141 83.6927 210.567 84.3126 210.729 85.1489C210.892 85.9853 210.73 86.726 210.244 87.3711C209.767 88.0021 209.087 88.4038 208.204 88.5763L204.476 89.3042L202.761 80.4692L204.298 80.1691L204.916 83.3497L207.106 82.922ZM207.926 87.1451C208.362 87.06 208.703 86.865 208.949 86.5601C209.205 86.2412 209.292 85.8697 209.21 85.4456C209.127 85.0215 208.908 84.7098 208.551 84.5104C208.207 84.3088 207.816 84.2505 207.381 84.3356L205.19 84.7633L205.736 87.5728L207.926 87.1451ZM216.769 77.7341L217.057 79.2184L214.054 79.8048L215.481 87.1555L213.944 87.4556L212.517 80.1049L209.496 80.6948L209.207 79.2105L216.769 77.7341ZM225.085 76.1104L226.622 75.8103L228.337 84.6452L226.8 84.9453L226.505 83.4257C225.966 84.7414 224.966 85.5418 223.506 85.827C222.269 86.0685 221.128 85.8267 220.083 85.1016C219.035 84.3647 218.385 83.3484 218.134 82.0526C217.882 80.7568 218.105 79.5762 218.803 78.5107C219.498 77.4335 220.464 76.7741 221.701 76.5327C223.161 76.2475 224.388 76.6133 225.38 77.63L225.085 76.1104ZM223.412 84.3048C224.307 84.13 224.996 83.6836 225.48 82.9655C225.962 82.2357 226.116 81.4232 225.942 80.5279C225.768 79.6326 225.323 78.9432 224.606 78.4597C223.886 77.9645 223.079 77.8042 222.183 77.979C221.3 78.1515 220.618 78.6026 220.136 79.3325C219.652 80.0505 219.497 80.8572 219.671 81.7525C219.845 82.6477 220.291 83.343 221.011 83.8383C221.728 84.3218 222.528 84.4773 223.412 84.3048ZM237.801 81.2752L239.25 80.9923L239.994 84.8267L238.475 85.1233L238.015 82.7556L230.666 84.1905L228.95 75.3556L230.487 75.0555L231.918 82.4238L236.264 81.5753L234.833 74.2069L236.37 73.9068L237.801 81.2752ZM239.922 71.5444C239.628 71.6019 239.361 71.55 239.122 71.3889C238.883 71.2277 238.736 71.0058 238.681 70.7231C238.626 70.4403 238.679 70.1793 238.84 69.9399C238.999 69.6888 239.226 69.5345 239.521 69.477C239.803 69.4218 240.065 69.4807 240.307 69.6536C240.546 69.8148 240.693 70.0367 240.748 70.3195C240.803 70.6022 240.749 70.8632 240.588 71.1026C240.427 71.3419 240.205 71.4892 239.922 71.5444ZM241.172 82.139L239.457 73.3041L240.994 73.004L242.709 81.8389L241.172 82.139ZM242.814 71.1632C242.671 71.3744 242.47 71.5053 242.211 71.5559C241.952 71.6065 241.717 71.5607 241.506 71.4185C241.281 71.2668 241.143 71.0614 241.093 70.8022C241.043 70.543 241.095 70.3067 241.249 70.0932C241.391 69.882 241.592 69.7511 241.851 69.7006C242.11 69.65 242.345 69.6958 242.556 69.838C242.767 69.9802 242.898 70.1809 242.948 70.44C242.998 70.6992 242.954 70.9402 242.814 71.1632ZM246.17 70.5078C246.028 70.719 245.827 70.8499 245.568 70.9005C245.309 70.9511 245.068 70.9064 244.845 70.7665C244.632 70.6125 244.5 70.406 244.45 70.1468C244.399 69.8876 244.445 69.6525 244.588 69.4413C244.742 69.2278 244.949 69.0957 245.208 69.0451C245.467 68.9946 245.702 69.0404 245.913 69.1826C246.124 69.3248 246.254 69.5254 246.305 69.7846C246.355 70.0438 246.31 70.2848 246.17 70.5078ZM245.054 81.3811L243.339 72.5462L244.876 72.2461L246.591 81.081L245.054 81.3811Z" fill="white"/>
<rect width="271.798" height="64.071" rx="30" transform="matrix(0.999499 0.0243624 -0.0242418 0.99991 223.147 96.2409)" fill="#612B8B"/>
<path d="M288.493 135.334C287.548 136.224 286.415 136.653 285.096 136.621C283.777 136.59 282.666 136.107 281.764 135.173C280.874 134.239 280.445 133.106 280.477 131.774C280.509 130.442 280.991 129.331 281.925 128.441C282.87 127.551 284.002 127.122 285.322 127.154C286.641 127.186 287.752 127.668 288.653 128.602C289.555 129.537 289.99 130.67 289.958 132.001C289.927 133.333 289.438 134.444 288.493 135.334ZM285.132 135.091C286.032 135.113 286.795 134.825 287.421 134.228C288.047 133.63 288.372 132.876 288.393 131.964C288.415 131.052 288.127 130.283 287.53 129.656C286.933 129.029 286.185 128.705 285.285 128.684C284.398 128.663 283.641 128.951 283.014 129.548C282.388 130.145 282.064 130.9 282.042 131.812C282.021 132.724 282.308 133.493 282.905 134.119C283.503 134.746 284.245 135.07 285.132 135.091ZM299.701 127.733L299.487 136.732L297.921 136.694L298.1 129.189L293.441 129.077L293.262 136.583L291.696 136.545L291.911 127.546L299.701 127.733ZM302.914 126.171C302.614 126.164 302.365 126.056 302.166 125.847C301.967 125.638 301.871 125.39 301.878 125.102C301.885 124.814 301.992 124.57 302.201 124.371C302.41 124.16 302.665 124.058 302.965 124.065C303.252 124.072 303.496 124.186 303.694 124.407C303.893 124.616 303.99 124.864 303.983 125.152C303.976 125.44 303.868 125.684 303.659 125.883C303.45 126.082 303.202 126.178 302.914 126.171ZM301.869 136.789L302.084 127.79L303.649 127.827L303.434 136.827L301.869 136.789ZM313.433 137.066L311.489 137.02L307.489 132.656L307.388 136.921L305.822 136.884L306.037 127.885L307.602 127.922L307.507 131.9L311.488 128.015L313.503 128.064L309.099 132.316L313.433 137.066ZM321.725 128.261L323.29 128.298L323.076 137.297L321.511 137.26L321.548 135.712C320.74 136.881 319.592 137.448 318.105 137.412C316.845 137.382 315.783 136.9 314.917 135.967C314.051 135.022 313.634 133.89 313.666 132.57C313.697 131.25 314.168 130.144 315.077 129.254C315.987 128.351 317.071 127.915 318.33 127.945C319.818 127.981 320.937 128.602 321.688 129.808L321.725 128.261ZM318.339 135.905C319.25 135.927 320.019 135.639 320.645 135.042C321.272 134.433 321.596 133.672 321.618 132.76C321.64 131.848 321.352 131.079 320.755 130.452C320.158 129.814 319.404 129.484 318.492 129.462C317.593 129.44 316.83 129.734 316.203 130.343C315.577 130.941 315.253 131.695 315.231 132.607C315.209 133.519 315.497 134.294 316.094 134.933C316.691 135.56 317.439 135.884 318.339 135.905ZM336.385 128.612L337.95 128.649L337.735 137.649L336.17 137.611L336.26 133.85L331.6 133.738L331.51 137.5L329.945 137.462L330.16 128.463L331.725 128.5L331.636 132.244L336.295 132.356L336.385 128.612ZM341.305 133.952C341.442 134.76 341.793 135.393 342.358 135.851C342.935 136.309 343.65 136.548 344.501 136.568C345.689 136.597 346.563 136.18 347.123 135.317L348.437 136.104C347.529 137.439 346.193 138.086 344.43 138.043C343.003 138.009 341.85 137.537 340.972 136.628C340.106 135.707 339.689 134.562 339.721 133.194C339.754 131.838 340.218 130.721 341.115 129.842C342.012 128.963 343.157 128.54 344.548 128.574C345.867 128.605 346.93 129.099 347.735 130.055C348.552 130.999 348.946 132.125 348.914 133.433C348.909 133.66 348.885 133.894 348.844 134.133L341.305 133.952ZM344.513 130.049C343.673 130.029 342.972 130.253 342.409 130.719C341.846 131.174 341.489 131.796 341.338 132.585L347.347 132.729C347.235 131.874 346.915 131.218 346.386 130.761C345.857 130.304 345.232 130.067 344.513 130.049ZM358.612 129.145L358.397 138.144L356.832 138.106L357.011 130.601L352.351 130.489L352.172 137.995L350.607 137.957L350.821 128.958L358.612 129.145ZM368.399 137.249C367.454 138.139 366.321 138.568 365.002 138.536C363.683 138.505 362.572 138.022 361.67 137.088C360.78 136.154 360.351 135.021 360.383 133.689C360.415 132.358 360.897 131.247 361.831 130.356C362.776 129.467 363.908 129.038 365.228 129.069C366.547 129.101 367.658 129.584 368.559 130.518C369.461 131.452 369.896 132.585 369.864 133.917C369.833 135.249 369.344 136.359 368.399 137.249ZM365.038 137.007C365.938 137.028 366.701 136.74 367.327 136.143C367.953 135.546 368.277 134.791 368.299 133.879C368.321 132.967 368.033 132.198 367.436 131.571C366.839 130.945 366.091 130.621 365.191 130.599C364.304 130.578 363.547 130.866 362.92 131.463C362.294 132.06 361.97 132.815 361.948 133.727C361.927 134.639 362.214 135.408 362.811 136.035C363.409 136.661 364.151 136.985 365.038 137.007ZM377.704 133.978C378.618 134.385 379.063 135.092 379.039 136.1C379.022 136.843 378.755 137.449 378.24 137.917C377.737 138.373 377.024 138.59 376.1 138.568L371.602 138.461L371.817 129.461L375.955 129.56C376.854 129.582 377.545 129.827 378.026 130.294C378.507 130.75 378.739 131.344 378.721 132.076C378.701 132.94 378.361 133.574 377.704 133.978ZM375.849 130.963L373.313 130.902L373.256 133.26L375.793 133.32C376.705 133.342 377.17 132.951 377.189 132.147C377.208 131.379 376.761 130.984 375.849 130.963ZM376.044 137.144C376.5 137.155 376.85 137.056 377.095 136.845C377.352 136.635 377.486 136.332 377.495 135.936C377.504 135.564 377.385 135.273 377.138 135.063C376.903 134.842 376.558 134.725 376.102 134.714L373.223 134.645L373.166 137.075L376.044 137.144ZM387.108 129.828L388.673 129.865L388.458 138.865L386.893 138.827L386.983 135.065L382.323 134.954L382.233 138.715L380.668 138.678L380.883 129.679L382.448 129.716L382.359 133.46L387.018 133.571L387.108 129.828ZM398.46 137.97C397.515 138.859 396.383 139.289 395.063 139.257C393.744 139.225 392.633 138.742 391.732 137.808C390.842 136.875 390.413 135.742 390.444 134.41C390.476 133.078 390.959 131.967 391.892 131.077C392.837 130.187 393.97 129.758 395.289 129.79C396.608 129.821 397.719 130.304 398.621 131.238C399.523 132.172 399.958 133.305 399.926 134.637C399.894 135.969 399.406 137.08 398.46 137.97ZM395.1 137.727C395.999 137.749 396.762 137.461 397.389 136.863C398.015 136.266 398.339 135.512 398.361 134.6C398.382 133.688 398.095 132.918 397.498 132.292C396.9 131.665 396.152 131.341 395.253 131.32C394.365 131.298 393.608 131.586 392.982 132.184C392.355 132.781 392.031 133.536 392.01 134.447C391.988 135.359 392.276 136.129 392.873 136.755C393.47 137.382 394.212 137.706 395.1 137.727ZM409.064 130.354L408.85 139.353L407.285 139.316L407.463 131.828L403.919 131.743L403.831 135.415C403.796 136.891 403.472 137.916 402.858 138.489C402.257 139.051 401.417 139.271 400.34 139.149L400.375 137.673C400.985 137.772 401.444 137.651 401.752 137.31C402.072 136.958 402.244 136.302 402.267 135.342L402.39 130.194L409.064 130.354ZM412.267 128.792C411.967 128.785 411.717 128.677 411.518 128.468C411.319 128.259 411.223 128.011 411.23 127.723C411.237 127.435 411.345 127.191 411.554 126.992C411.763 126.781 412.017 126.679 412.317 126.686C412.605 126.693 412.848 126.807 413.047 127.028C413.246 127.237 413.342 127.485 413.335 127.773C413.328 128.061 413.22 128.305 413.012 128.504C412.803 128.703 412.555 128.799 412.267 128.792ZM411.222 139.41L411.436 130.411L413.001 130.448L412.787 139.448L411.222 139.41ZM422.082 130.666L422.046 132.178L418.987 132.105L418.809 139.592L417.244 139.554L417.422 132.067L414.346 131.993L414.382 130.481L422.082 130.666ZM429.679 130.848L431.244 130.886L431.029 139.885L429.464 139.847L429.554 136.086L424.894 135.974L424.804 139.736L423.239 139.698L423.454 130.699L425.019 130.736L424.93 134.48L429.589 134.592L429.679 130.848ZM434.457 129.324C434.157 129.317 433.908 129.209 433.709 129C433.51 128.791 433.414 128.542 433.42 128.254C433.427 127.966 433.535 127.723 433.744 127.524C433.953 127.313 434.207 127.211 434.507 127.218C434.795 127.225 435.038 127.339 435.237 127.56C435.436 127.769 435.532 128.017 435.525 128.305C435.518 128.593 435.411 128.836 435.202 129.036C434.993 129.235 434.745 129.331 434.457 129.324ZM433.412 139.942L433.626 130.943L435.192 130.98L434.977 139.98L433.412 139.942ZM445.173 140.224L443.338 140.18L440.9 136.718L438.282 140.059L436.447 140.015L440.012 135.472L436.86 131.02L438.713 131.065L440.959 134.252L443.355 131.176L445.19 131.22L441.847 135.498L445.173 140.224Z" fill="white"/>
<rect width="271.767" height="64.0781" rx="30" transform="matrix(0.9828 -0.184672 0.183542 0.983012 358.146 50.188)" fill="#00AAFF"/>
<path d="M381.633 75.4207L383.29 84.267L381.751 84.5567L380.369 77.1789L375.788 78.0414L377.169 85.4192L375.63 85.7089L373.974 76.8626L381.633 75.4207ZM388.815 73.8306C390.053 73.5975 391.194 73.8529 392.237 74.5969C393.277 75.329 393.919 76.3438 394.162 77.6413C394.405 78.9387 394.175 80.1237 393.472 81.1962C392.767 82.2569 391.796 82.9038 390.557 83.1369C389.095 83.4122 387.871 83.0382 386.886 82.0147L387.834 87.0748L386.295 87.3646L383.976 74.9797L385.515 74.69L385.8 76.2116C386.348 74.8995 387.353 74.1059 388.815 73.8306ZM390.085 81.6874C390.969 81.5209 391.656 81.0802 392.145 80.3655C392.631 79.6389 392.791 78.8274 392.623 77.931C392.455 77.0346 392.014 76.3422 391.3 75.8539C390.584 75.3537 389.783 75.1869 388.899 75.3534C388.003 75.5221 387.311 75.9698 386.825 76.6964C386.336 77.4111 386.175 78.2167 386.343 79.1132C386.511 80.0096 386.953 80.7079 387.669 81.208C388.383 81.6963 389.188 81.8561 390.085 81.6874ZM404.082 79.1988C403.342 80.2662 402.323 80.922 401.026 81.1662C399.729 81.4104 398.542 81.1697 397.467 80.4443C396.402 79.7165 395.748 78.6981 395.503 77.3888C395.258 76.0796 395.499 74.8924 396.228 73.8272C396.968 72.7598 397.987 72.104 399.284 71.8598C400.581 71.6156 401.768 71.8563 402.844 72.5818C403.919 73.3072 404.58 74.3246 404.825 75.6339C405.07 76.9431 404.823 78.1314 404.082 79.1988ZM400.745 79.6623C401.629 79.4958 402.316 79.0552 402.805 78.3404C403.293 77.6256 403.454 76.82 403.286 75.9236C403.118 75.0272 402.677 74.3348 401.963 73.8465C401.249 73.3581 400.45 73.1972 399.565 73.3637C398.693 73.528 398.012 73.9675 397.523 74.6823C397.034 75.3971 396.874 76.2027 397.042 77.0991C397.21 77.9955 397.65 78.6879 398.365 79.1762C399.079 79.6646 399.872 79.8266 400.745 79.6623ZM414.94 70.5244C415.924 71.2183 416.53 72.1727 416.758 73.3875C416.985 74.6024 416.765 75.7122 416.099 76.7169C415.432 77.7215 414.424 78.4304 413.073 78.8435L413.702 82.2051L412.181 82.4914L411.551 79.1298C410.143 79.2362 408.946 78.9425 407.962 78.2487C406.977 77.5548 406.371 76.6005 406.144 75.3856C405.917 74.1707 406.136 73.0609 406.803 72.0563C407.469 71.0516 408.478 70.3427 409.829 69.9297L409.2 66.5681L410.721 66.2817L411.35 69.6433C412.759 69.5369 413.955 69.8306 414.94 70.5244ZM407.665 75.0992C407.818 75.9131 408.212 76.5531 408.849 77.0194C409.497 77.4834 410.305 77.6915 411.273 77.6437L410.107 71.4158C409.186 71.7114 408.507 72.1933 408.07 72.8616C407.646 73.5277 407.511 74.2735 407.665 75.0992ZM412.794 77.3573C413.713 77.0499 414.385 76.5632 414.81 75.8972C415.235 75.2311 415.371 74.4911 415.219 73.6773C415.066 72.8634 414.672 72.2233 414.035 71.7571C413.398 71.2908 412.596 71.0816 411.628 71.1295L412.794 77.3573ZM419.788 73.5498C420.089 74.3112 420.563 74.8568 421.211 75.1867C421.871 75.5143 422.619 75.5993 423.456 75.4417C424.624 75.2219 425.392 74.6315 425.762 73.6706L427.21 74.1673C426.599 75.6622 425.426 76.5728 423.693 76.8992C422.289 77.1633 421.064 76.9423 420.016 76.2359C418.978 75.5156 418.333 74.4831 418.081 73.1384C417.831 71.8056 418.054 70.6158 418.749 69.5691C419.445 68.5224 420.476 67.8703 421.844 67.6128C423.141 67.3686 424.283 67.6299 425.269 68.3968C426.265 69.1496 426.883 70.1688 427.123 71.4545C427.165 71.6786 427.191 71.9119 427.199 72.1545L419.788 73.5498ZM422.116 69.0636C421.29 69.219 420.651 69.5837 420.196 70.1576C419.74 70.7197 419.52 71.4022 419.536 72.2051L425.444 71.0929C425.158 70.2799 424.708 69.7051 424.096 69.3686C423.483 69.0321 422.823 68.9304 422.116 69.0636ZM433.9 74.9776C432.567 75.2285 431.376 74.9948 430.326 74.2767C429.274 73.5468 428.624 72.5213 428.377 71.2002C428.129 69.8792 428.365 68.6931 429.084 67.642C429.8 66.579 430.825 65.9221 432.158 65.6713C433.03 65.507 433.854 65.5717 434.63 65.8653C435.403 66.1472 436.026 66.6097 436.501 67.2531L435.349 68.2393C435.036 67.8096 434.618 67.4977 434.093 67.3034C433.58 67.1069 433.029 67.0642 432.439 67.1752C431.555 67.3417 430.868 67.7823 430.379 68.4971C429.902 69.2096 429.748 70.0141 429.915 70.9105C430.081 71.7952 430.515 72.4828 431.217 72.9733C431.931 73.4616 432.731 73.6225 433.615 73.456C434.205 73.345 434.71 73.1095 435.131 72.7494C435.55 72.3775 435.839 71.9324 435.998 71.4139L437.449 71.9283C437.202 72.6953 436.765 73.3576 436.137 73.9155C435.506 74.4615 434.761 74.8155 433.9 74.9776ZM438.177 63.1094C437.882 63.1649 437.616 63.1113 437.378 62.9485C437.14 62.7857 436.994 62.5628 436.941 62.2797C436.888 61.9966 436.943 61.736 437.106 61.4977C437.267 61.2477 437.495 61.0949 437.79 61.0394C438.073 60.9861 438.334 61.0468 438.575 61.2213C438.813 61.3841 438.958 61.607 439.011 61.8901C439.064 62.1732 439.009 62.4339 438.846 62.6721C438.683 62.9104 438.46 63.0561 438.177 63.1094ZM439.356 73.7123L437.7 64.866L439.239 64.5763L440.895 73.4226L439.356 73.7123ZM442.789 62.5343L442.537 61.1896L447.314 60.2905L447.565 61.6351L442.789 62.5343ZM448.008 62.9255L449.247 62.6924L450.903 71.5387L449.381 71.8251L448.219 65.615L444.481 72.7475L443.243 72.9806L441.587 64.1343L443.108 63.8479L444.271 70.058L448.008 62.9255ZM457.71 61.0992L459.249 60.8095L460.905 69.6558L459.366 69.9455L458.674 66.2477L454.092 67.1102L454.784 70.808L453.245 71.0977L451.589 62.2514L453.128 61.9617L453.817 65.6417L458.399 64.7792L457.71 61.0992ZM468.915 58.9898L470.454 58.7001L472.11 67.5464L470.571 67.8361L470.286 66.3146C469.738 67.6266 468.733 68.4202 467.27 68.6955C466.032 68.9286 464.893 68.6791 463.852 67.947C462.81 67.203 462.167 66.1823 461.924 64.8849C461.681 63.5874 461.912 62.4083 462.617 61.3476C463.32 60.2751 464.29 59.6223 465.528 59.3892C466.991 59.1139 468.214 59.488 469.199 60.5114L468.915 58.9898ZM467.187 67.1727C468.083 67.004 468.776 66.5622 469.264 65.8475C469.751 65.1209 469.91 64.3094 469.743 63.413C469.575 62.5165 469.134 61.8242 468.42 61.3358C467.704 60.8357 466.897 60.67 466.001 60.8387C465.117 61.0052 464.431 61.4518 463.944 62.1783C463.456 62.8931 463.295 63.6987 463.463 64.5951C463.631 65.4916 464.073 66.1898 464.789 66.69C465.503 67.1783 466.302 67.3392 467.187 67.1727ZM486.052 55.7636L487.708 64.6099L486.205 64.893L485.002 58.4706L483.038 63.5294L482.843 63.566L479.183 59.5662L480.385 65.9886L478.864 66.275L477.208 57.4286L478.853 57.119L482.468 61.0724L484.407 56.0733L486.052 55.7636ZM497.314 61.6477C496.574 62.7151 495.555 63.3709 494.258 63.6151C492.96 63.8593 491.774 63.6187 490.698 62.8932C489.634 62.1655 488.979 61.147 488.734 59.8377C488.489 58.5285 488.731 57.3413 489.459 56.2761C490.2 55.2088 491.218 54.553 492.515 54.3088C493.813 54.0646 494.999 54.3052 496.075 55.0307C497.151 55.7562 497.811 56.7736 498.057 58.0828C498.302 59.3921 498.054 60.5804 497.314 61.6477ZM493.976 62.1112C494.861 61.9447 495.547 61.5041 496.036 60.7893C496.525 60.0746 496.685 59.269 496.518 58.3725C496.35 57.4761 495.909 56.7837 495.195 56.2954C494.481 55.8071 493.681 55.6462 492.797 55.8127C491.924 55.9769 491.244 56.4165 490.755 57.1312C490.266 57.846 490.105 58.6516 490.273 59.548C490.441 60.4445 490.882 61.1368 491.596 61.6252C492.31 62.1135 493.103 62.2755 493.976 62.1112ZM505.738 56.5085C506.717 56.715 507.299 57.3137 507.484 58.3044C507.621 59.0357 507.486 59.6839 507.079 60.249C506.682 60.8 506.029 61.161 505.121 61.3319L500.699 62.1644L499.043 53.3181L503.111 52.5522C503.996 52.3857 504.722 52.481 505.289 52.8382C505.854 53.1836 506.204 53.7161 506.339 54.4356C506.498 55.2848 506.298 55.9758 505.738 56.5085ZM503.299 53.9455L500.805 54.4151L501.239 56.7328L503.733 56.2633C504.629 56.0946 505.003 55.6151 504.855 54.8248C504.714 54.0699 504.195 53.7768 503.299 53.9455ZM504.771 59.9508C505.219 59.8665 505.541 59.696 505.737 59.4392C505.945 59.1803 506.013 58.8562 505.94 58.467C505.872 58.1013 505.695 57.8416 505.409 57.6877C505.134 57.5198 504.772 57.478 504.324 57.5623L501.494 58.0952L501.941 60.4837L504.771 59.9508ZM514.077 50.4879L515.616 50.1982L517.272 59.0445L515.733 59.3342L515.041 55.6364L510.459 56.4989L511.152 60.1967L509.613 60.4864L507.956 51.6401L509.495 51.3504L510.184 55.0304L514.766 54.1679L514.077 50.4879ZM525.282 48.3785L526.821 48.0888L528.477 56.9351L526.938 57.2248L526.653 55.7033C526.105 57.0153 525.1 57.8089 523.638 58.0842C522.4 58.3173 521.26 58.0678 520.22 57.3357C519.177 56.5917 518.534 55.571 518.291 54.2736C518.048 52.9761 518.279 51.797 518.984 50.7363C519.687 49.6638 520.657 49.011 521.896 48.7779C523.358 48.5026 524.582 48.8767 525.567 49.9001L525.282 48.3785ZM523.554 56.5614C524.45 56.3927 525.143 55.9509 525.632 55.2362C526.118 54.5096 526.278 53.6981 526.11 52.8017C525.942 51.9053 525.501 51.2129 524.787 50.7246C524.071 50.2244 523.265 50.0587 522.368 50.2275C521.484 50.394 520.798 50.8405 520.312 51.5671C519.823 52.2818 519.662 53.0874 519.83 53.9839C519.998 54.8803 520.44 55.5786 521.156 56.0787C521.87 56.567 522.67 56.7279 523.554 56.5614ZM541.234 45.3754L542.89 54.2218L541.351 54.5115L539.97 47.1336L535.389 47.9961L536.77 55.374L535.231 55.6637L533.575 46.8174L541.234 45.3754ZM544.054 43.1779C543.759 43.2334 543.493 43.1798 543.255 43.017C543.017 42.8542 542.871 42.6313 542.818 42.3482C542.765 42.0651 542.82 41.8044 542.983 41.5662C543.144 41.3161 543.371 41.1634 543.666 41.1079C543.949 41.0546 544.211 41.1152 544.451 41.2898C544.689 41.4526 544.835 41.6755 544.888 41.9586C544.941 42.2417 544.886 42.5023 544.723 42.7406C544.56 42.9788 544.337 43.1246 544.054 43.1779ZM545.233 53.7808L543.577 44.9344L545.116 44.6447L546.772 53.4911L545.233 53.7808ZM556.451 50.1487L557.672 49.9189L558.391 53.7582L556.869 54.0446L556.425 51.6738L549.792 52.9225L550.236 55.2933L548.715 55.5797L547.996 51.7404L549.075 51.5373C549.495 50.6522 549.574 49.5079 549.311 48.1043L548.543 43.9996L555.07 42.7708L556.451 50.1487ZM550.826 51.2076L554.93 50.435L553.817 44.4903L550.332 45.1463L550.832 47.8179C551.08 49.139 551.078 50.2689 550.826 51.2076ZM563.752 41.1365L564.03 42.6227L559.767 43.4252L561.144 50.7854L559.606 51.0751L557.949 42.2288L563.752 41.1365ZM573.668 47.2739C572.928 48.3413 571.909 48.997 570.612 49.2413C569.315 49.4855 568.128 49.2448 567.052 48.5193C565.988 47.7916 565.334 46.7731 565.088 45.4639C564.843 44.1546 565.085 42.9674 565.813 41.9023C566.554 40.8349 567.572 40.1791 568.87 39.9349C570.167 39.6907 571.353 39.9314 572.429 40.6568C573.505 41.3823 574.166 42.3997 574.411 43.709C574.656 45.0182 574.408 46.2065 573.668 47.2739ZM570.33 47.7374C571.215 47.5709 571.901 47.1302 572.39 46.4155C572.879 45.7007 573.04 44.8951 572.872 43.9987C572.704 43.1022 572.263 42.4099 571.549 41.9215C570.835 41.4332 570.036 41.2723 569.151 41.4388C568.278 41.6031 567.598 42.0426 567.109 42.7574C566.62 43.4722 566.46 44.2777 566.627 45.1742C566.795 46.0706 567.236 46.763 567.95 47.2513C568.664 47.7396 569.458 47.9017 570.33 47.7374ZM581.632 37.7705L581.91 39.2567L578.903 39.8228L580.281 47.1829L578.742 47.4727L577.364 40.1125L574.339 40.682L574.061 39.1958L581.632 37.7705ZM591.547 43.9081C590.807 44.9754 589.788 45.6312 588.491 45.8754C587.194 46.1196 586.007 45.879 584.931 45.1535C583.867 44.4258 583.213 43.4073 582.968 42.0981C582.723 40.7888 582.964 39.6016 583.693 38.5365C584.433 37.4691 585.452 36.8133 586.749 36.5691C588.046 36.3249 589.233 36.5655 590.309 37.291C591.384 38.0165 592.045 39.0339 592.29 40.3431C592.535 41.6524 592.288 42.8407 591.547 43.9081ZM588.21 44.3716C589.094 44.205 589.781 43.7644 590.269 43.0496C590.758 42.3349 590.919 41.5293 590.751 40.6328C590.583 39.7364 590.142 39.044 589.428 38.5557C588.714 38.0674 587.915 37.9065 587.03 38.073C586.158 38.2373 585.477 38.6768 584.988 39.3916C584.499 40.1063 584.339 40.9119 584.507 41.8084C584.675 42.7048 585.115 43.3972 585.829 43.8855C586.544 44.3738 587.337 44.5358 588.21 44.3716ZM599.972 38.7688C600.95 38.9753 601.532 39.574 601.718 40.5648C601.855 41.2961 601.72 41.9442 601.313 42.5093C600.915 43.0603 600.263 43.4213 599.355 43.5922L594.932 44.4248L593.276 35.5784L597.345 34.8125C598.229 34.646 598.955 34.7414 599.523 35.0986C600.088 35.444 600.438 35.9764 600.572 36.6959C600.731 37.5451 600.531 38.2361 599.972 38.7688ZM597.532 36.2059L595.038 36.6754L595.472 38.9931L597.966 38.5236C598.862 38.3549 599.237 37.8754 599.089 37.0851C598.947 36.3302 598.429 36.0371 597.532 36.2059ZM599.004 42.2112C599.453 42.1268 599.775 41.9563 599.971 41.6996C600.179 41.4406 600.246 41.1165 600.173 40.7273C600.105 40.3617 599.928 40.1019 599.643 39.948C599.367 39.7801 599.005 39.7383 598.557 39.8227L595.727 40.3555L596.174 42.744L599.004 42.2112ZM611.329 41.3381L609.418 41.6978L604.6 38.2638L605.385 42.457L603.846 42.7467L602.19 33.9004L603.729 33.6107L604.461 37.5208L607.55 32.8914L609.531 32.5184L606.105 37.5959L611.329 41.3381ZM617.615 30.9966L619.154 30.7069L620.81 39.5532L619.271 39.8429L618.986 38.3213C618.438 39.6333 617.433 40.427 615.971 40.7023C614.733 40.9354 613.593 40.6859 612.553 39.9537C611.51 39.2098 610.867 38.1891 610.624 36.8916C610.382 35.5941 610.613 34.4151 611.317 33.3544C612.02 32.2818 612.991 31.629 614.229 31.3959C615.691 31.1207 616.915 31.4947 617.9 32.5181L617.615 30.9966ZM615.887 39.1795C616.784 39.0107 617.476 38.569 617.965 37.8542C618.452 37.1276 618.611 36.3162 618.443 35.4197C618.275 34.5233 617.834 33.8309 617.12 33.3426C616.404 32.8425 615.598 32.6768 614.702 32.8455C613.817 33.012 613.132 33.4585 612.645 34.1851C612.156 34.8999 611.996 35.7055 612.163 36.6019C612.331 37.4983 612.773 38.1966 613.49 38.6967C614.204 39.185 615.003 39.346 615.887 39.1795Z" fill="white"/>
</svg>
