<svg width="447" height="224" viewBox="0 0 447 224" fill="none" xmlns="http://www.w3.org/2000/svg">
<rect x="0.33696" y="51.8862" width="271.632" height="63.8808" rx="30" transform="rotate(-10.9951 0.33696 51.8862)" fill="#97CF26"/>
<path d="M33.3506 73.5248C33.0561 73.5821 32.7892 73.5302 32.55 73.3689C32.3108 73.2077 32.1636 72.9857 32.1086 72.703C32.0536 72.4203 32.1067 72.1594 32.2679 71.9201C32.4269 71.6691 32.6536 71.515 32.948 71.4576C33.2307 71.4026 33.4928 71.4616 33.7344 71.6346C33.9736 71.7959 34.1207 72.0178 34.1758 72.3005C34.2308 72.5832 34.1777 72.8442 34.0165 73.0834C33.8552 73.3226 33.6332 73.4698 33.3506 73.5248ZM34.6063 84.1181L32.8862 75.284L34.4234 74.9847L36.1435 83.8188L34.6063 84.1181ZM42.8816 73.3377L44.4187 73.0384L46.1388 81.8725L44.6017 82.1718L43.8827 78.4792L39.3066 79.3702L40.0256 83.0629L38.4885 83.3622L36.7684 74.5281L38.3055 74.2288L39.0211 77.9037L43.5971 77.0127L42.8816 73.3377ZM55.7904 78.4712L57.0095 78.2338L57.756 82.0678L56.2366 82.3637L55.7756 79.9961L49.15 81.2862L49.611 83.6538L48.0915 83.9496L47.345 80.1156L48.4228 79.9058C48.8368 79.0183 48.9073 77.8737 48.6344 76.472L47.8363 72.373L54.3558 71.1036L55.7904 78.4712ZM50.1719 79.5652L54.2709 78.767L53.115 72.8305L49.6344 73.5083L50.1539 76.1762C50.4107 77.4954 50.4168 78.6251 50.1719 79.5652ZM63.6453 69.2948L64.8821 69.054L66.6022 77.888L65.0827 78.1839L63.8752 71.9824L60.1886 79.1369L58.9519 79.3777L57.2317 70.5436L58.7512 70.2477L59.9587 76.4492L63.6453 69.2948ZM73.9413 71.7461C74.9217 71.9465 75.5082 72.5413 75.7009 73.5307C75.843 74.261 75.7127 74.9099 75.3097 75.4774C74.9162 76.0308 74.266 76.3958 73.359 76.5724L68.942 77.4325L67.2219 68.5984L71.2855 67.8071C72.1689 67.6351 72.8957 67.7259 73.4658 68.0794C74.0336 68.4212 74.3874 68.9514 74.5273 69.6699C74.6924 70.5179 74.4971 71.21 73.9413 71.7461ZM71.4832 69.199L68.992 69.6841L69.4427 71.9986L71.9339 71.5135C72.8291 71.3392 73.1998 70.8575 73.0462 70.0683C72.8994 69.3145 72.3784 69.0247 71.4832 69.199ZM72.9989 75.1938C73.4465 75.1067 73.7674 74.9341 73.9617 74.6763C74.1678 74.4161 74.233 74.0916 74.1573 73.7029C74.0862 73.3378 73.9075 73.0792 73.6211 72.9271C73.3443 72.761 72.9821 72.7215 72.5345 72.8086L69.7076 73.359L70.172 75.7442L72.9989 75.1938ZM76.5893 65.1056C76.2948 65.163 76.028 65.111 75.7888 64.9498C75.5495 64.7885 75.4024 64.5665 75.3473 64.2838C75.2923 64.0012 75.3454 63.7402 75.5067 63.501C75.6656 63.25 75.8923 63.0958 76.1868 63.0385C76.4695 62.9834 76.7316 63.0424 76.9731 63.2154C77.2123 63.3767 77.3595 63.5987 77.4145 63.8813C77.4696 64.164 77.4165 64.425 77.2552 64.6642C77.094 64.9035 76.872 65.0506 76.5893 65.1056ZM77.8451 75.6989L76.125 66.8648L77.6621 66.5655L79.3822 75.3996L77.8451 75.6989ZM89.039 71.9972L90.2581 71.7599L91.0047 75.5938L89.4852 75.8897L89.0242 73.5222L82.3986 74.8123L82.8596 77.1798L81.3402 77.4757L80.5936 73.6417L81.6714 73.4318C82.0854 72.5443 82.1559 71.3997 81.883 69.9981L81.0849 65.899L87.6044 64.6296L89.039 71.9972ZM83.4205 73.0912L87.5196 72.2931L86.3636 66.3566L82.883 67.0343L83.4025 69.7022C83.6594 71.0214 83.6654 72.1511 83.4205 73.0912ZM96.3015 62.9362L97.9446 62.6162L96.1671 72.6998C95.9851 73.7744 95.603 74.6374 95.0207 75.2887C94.4408 75.9517 93.7092 76.3387 92.8261 76.4495L92.5475 75.0184C93.6472 74.8898 94.3276 74.1461 94.5887 72.7871L94.6681 72.4416L89.1105 64.3363L90.736 64.0198L95.1058 70.3575L96.3015 62.9362ZM106.198 61.0092L107.735 60.7099L109.455 69.544L107.918 69.8433L107.622 68.3239C107.083 69.639 106.084 70.4388 104.623 70.7232C103.387 70.964 102.245 70.7217 101.199 69.9962C100.151 69.259 99.5007 68.2425 99.2485 66.9469C98.9962 65.6512 99.2187 64.4709 99.916 63.406C100.611 62.3293 101.577 61.6706 102.814 61.4297C104.274 61.1454 105.501 61.5117 106.494 62.5287L106.198 61.0092ZM104.529 69.2012C105.424 69.0269 106.113 68.5809 106.597 67.8633C107.079 67.1338 107.232 66.3215 107.058 65.4263C106.883 64.5311 106.437 63.8416 105.72 63.3579C105 62.8623 104.192 62.7017 103.297 62.876C102.414 63.048 101.731 63.4988 101.25 64.2282C100.766 64.9459 100.611 65.7524 100.786 66.6476C100.96 67.5427 101.407 68.2381 102.127 68.7336C102.845 69.2174 103.645 69.3733 104.529 69.2012ZM117.431 58.8219L119.152 67.656L117.614 67.9553L116.183 60.6053L112.703 61.283L113.404 64.8873C113.687 66.3361 113.589 67.4065 113.113 68.0983C112.646 68.7761 111.873 69.171 110.794 69.2832L110.512 67.8344C111.129 67.7999 111.551 67.5832 111.779 67.1843C112.017 66.7713 112.044 66.0936 111.86 65.1513L110.876 60.0982L117.431 58.8219ZM124.108 60.8227C124.991 60.6507 125.773 60.7736 126.453 61.1912C127.143 61.5948 127.57 62.2148 127.732 63.0511C127.895 63.8874 127.734 64.6279 127.248 65.2726C126.772 65.9032 126.092 66.3046 125.209 66.4766L121.481 67.2025L119.761 58.3684L121.298 58.0691L121.917 61.2493L124.108 60.8227ZM124.93 65.0454C125.366 64.9606 125.707 64.7658 125.953 64.4611C126.209 64.1424 126.296 63.771 126.213 63.3469C126.13 62.9229 125.911 62.6111 125.554 62.4116C125.209 62.2098 124.819 62.1513 124.383 62.2362L122.192 62.6628L122.739 65.472L124.93 65.0454ZM134.328 55.5318L135.865 55.2325L137.585 64.0666L136.048 64.3659L135.329 60.6733L130.753 61.5643L131.472 65.257L129.935 65.5563L128.215 56.7222L129.752 56.4229L130.468 60.0978L135.044 59.2068L134.328 55.5318ZM138.67 53.0178C138.375 53.0751 138.108 53.0232 137.869 52.8619C137.63 52.7007 137.483 52.4787 137.428 52.196C137.373 51.9133 137.426 51.6523 137.587 51.4131C137.746 51.1621 137.973 51.0079 138.267 50.9506C138.55 50.8956 138.812 50.9545 139.053 51.1276C139.293 51.2888 139.44 51.5108 139.495 51.7935C139.55 52.0762 139.497 52.3371 139.335 52.5764C139.174 52.8156 138.952 52.9627 138.67 53.0178ZM139.925 63.611L138.205 54.7769L139.742 54.4776L141.462 63.3117L139.925 63.611ZM155.698 60.5398L153.79 60.9114L148.946 57.5084L149.762 61.6958L148.224 61.9951L146.504 53.161L148.042 52.8617L148.802 56.7663L151.858 52.1186L153.837 51.7333L150.447 56.8312L155.698 60.5398ZM163.556 57.8545C162.823 58.9263 161.809 59.5884 160.513 59.8406C159.218 60.0929 158.029 59.8598 156.948 59.1412C155.879 58.4203 155.216 57.4061 154.962 56.0987C154.707 54.7912 154.94 53.6028 155.661 52.5333C156.394 51.4615 157.408 50.7995 158.704 50.5472C160 50.2949 161.188 50.528 162.269 51.2466C163.351 51.9652 164.018 52.9782 164.273 54.2857C164.528 55.5931 164.289 56.7828 163.556 57.8545ZM160.221 58.3388C161.104 58.1668 161.788 57.722 162.272 57.0043C162.755 56.2866 162.91 55.4802 162.736 54.585C162.562 53.6898 162.116 53.0003 161.398 52.5166C160.68 52.0328 159.88 51.877 158.996 52.049C158.125 52.2187 157.447 52.6624 156.963 53.3801C156.479 54.0978 156.325 54.9042 156.499 55.7994C156.673 56.6946 157.119 57.3841 157.837 57.8678C158.555 58.3516 159.349 58.5086 160.221 58.3388ZM171.338 48.3255L172.875 48.0262L174.596 56.8603L173.058 57.1596L172.339 53.4669L167.763 54.3579L168.482 58.0506L166.945 58.3499L165.225 49.5158L166.762 49.2165L167.478 52.8915L172.054 52.0005L171.338 48.3255ZM181.132 55.8259C179.801 56.0851 178.608 55.859 177.552 55.1476C176.495 54.4244 175.837 53.4032 175.581 52.084C175.324 50.7647 175.551 49.5774 176.262 48.522C176.971 47.4548 177.991 46.7916 179.322 46.5325C180.194 46.3627 181.019 46.4222 181.796 46.711C182.571 46.9879 183.199 47.4465 183.678 48.0867L182.533 49.0799C182.217 48.6523 181.796 48.3431 181.27 48.1521C180.756 47.9589 180.204 47.9196 179.615 48.0342C178.731 48.2063 178.048 48.6511 177.564 49.3688C177.092 50.0842 176.943 50.8895 177.118 51.7847C177.29 52.6681 177.729 53.3528 178.435 53.8388C179.152 54.3226 179.953 54.4785 180.836 54.3065C181.425 54.1918 181.929 53.9531 182.347 53.5905C182.763 53.216 183.049 52.7692 183.205 52.2498L184.66 52.755C184.419 53.5233 183.986 54.1883 183.362 54.75C182.735 55.2998 181.992 55.6585 181.132 55.8259ZM190.699 44.5558L192.342 44.2358L190.564 54.3194C190.382 55.394 190 56.257 189.418 56.9083C188.838 57.5713 188.106 57.9583 187.223 58.0691L186.945 56.638C188.044 56.5094 188.725 55.7657 188.986 54.4067L189.065 54.0612L183.508 45.9559L185.133 45.6394L189.503 51.9771L190.699 44.5558ZM200.441 42.6588L202.161 51.4929L200.624 51.7922L199.193 44.4423L195.712 45.12L196.414 48.7243C196.696 50.1731 196.599 51.2434 196.122 51.9352C195.655 52.613 194.882 53.008 193.804 53.1201L193.522 51.6714C194.139 51.6368 194.561 51.4201 194.789 51.0212C195.026 50.6082 195.053 49.9306 194.87 48.9883L193.886 43.9352L200.441 42.6588ZM207.117 44.6597C208.001 44.4877 208.782 44.6105 209.463 45.0282C210.153 45.4318 210.579 46.0517 210.742 46.888C210.905 47.7243 210.743 48.4648 210.258 49.1095C209.781 49.7402 209.101 50.1415 208.218 50.3135L204.49 51.0394L202.77 42.2053L204.307 41.906L204.926 45.0863L207.117 44.6597ZM207.939 48.8824C208.375 48.7975 208.716 48.6027 208.963 48.2981C209.218 47.9793 209.305 47.6079 209.222 47.1839C209.14 46.7598 208.92 46.448 208.564 46.2485C208.219 46.0468 207.828 45.9883 207.392 46.0731L205.202 46.4997L205.749 49.309L207.939 48.8824ZM216.779 39.4775L217.068 40.9617L214.064 41.5465L215.496 48.8965L213.958 49.1958L212.527 41.8458L209.506 42.4341L209.217 40.95L216.779 39.4775ZM225.096 37.8582L226.633 37.5589L228.353 46.393L226.816 46.6923L226.52 45.1728C225.981 46.488 224.982 47.2878 223.521 47.5722C222.284 47.813 221.143 47.5707 220.097 46.8452C219.049 46.1079 218.399 45.0915 218.146 43.7958C217.894 42.5002 218.117 41.3199 218.814 40.255C219.509 39.1783 220.475 38.5195 221.712 38.2787C223.172 37.9943 224.399 38.3606 225.392 39.3777L225.096 37.8582ZM223.427 46.0502C224.322 45.8759 225.011 45.4299 225.495 44.7122C225.976 43.9827 226.13 43.1704 225.956 42.2752C225.781 41.38 225.335 40.6906 224.618 40.2068C223.898 39.7113 223.09 39.5507 222.195 39.725C221.312 39.897 220.629 40.3477 220.148 41.0772C219.664 41.7949 219.509 42.6013 219.683 43.4965C219.858 44.3917 220.305 45.0871 221.025 45.5826C221.743 46.0663 222.543 46.2222 223.427 46.0502ZM237.817 43.0282L239.266 42.7461L240.012 46.5801L238.493 46.8759L238.032 44.5084L230.682 45.9395L228.962 37.1054L230.499 36.8061L231.933 44.1738L236.28 43.3275L234.845 35.9598L236.382 35.6605L237.817 43.0282ZM239.934 33.3002C239.639 33.3576 239.372 33.3056 239.133 33.1444C238.894 32.9831 238.747 32.7612 238.692 32.4785C238.637 32.1958 238.69 31.9348 238.851 31.6956C239.01 31.4446 239.237 31.2904 239.531 31.2331C239.814 31.178 240.076 31.237 240.318 31.41C240.557 31.5713 240.704 31.7933 240.759 32.076C240.814 32.3586 240.761 32.6196 240.6 32.8588C240.438 33.0981 240.216 33.2452 239.934 33.3002ZM241.19 43.8935L239.469 35.0594L241.007 34.7601L242.727 43.5942L241.19 43.8935ZM242.826 32.9206C242.683 33.1316 242.483 33.2624 242.223 33.3129C241.964 33.3633 241.729 33.3174 241.518 33.1751C241.293 33.0234 241.155 32.8179 241.105 32.5588C241.054 32.2996 241.106 32.0634 241.26 31.85C241.402 31.6389 241.603 31.5082 241.862 31.4577C242.121 31.4072 242.356 31.4532 242.568 31.5954C242.779 31.7377 242.909 31.9384 242.96 32.1976C243.01 32.4567 242.966 32.6977 242.826 32.9206ZM246.183 32.2669C246.04 32.478 245.84 32.6088 245.58 32.6592C245.321 32.7097 245.08 32.6649 244.857 32.5249C244.644 32.3709 244.512 32.1643 244.462 31.9051C244.411 31.646 244.457 31.4109 244.599 31.1998C244.753 30.9864 244.96 30.8545 245.219 30.8041C245.478 30.7536 245.713 30.7995 245.924 30.9418C246.136 31.0841 246.266 31.2848 246.317 31.5439C246.367 31.803 246.322 32.044 246.183 32.2669ZM245.072 43.1376L243.352 34.3035L244.889 34.0042L246.609 42.8383L245.072 43.1376Z" fill="white"/>
<rect x="163.056" y="61.916" width="271.632" height="63.8808" rx="30" transform="rotate(1.39254 163.056 61.916)" fill="#612B8B"/>
<path d="M228.378 100.935C227.433 101.825 226.3 102.254 224.981 102.222C223.661 102.191 222.55 101.708 221.648 100.774C220.758 99.8408 220.329 98.7082 220.361 97.3766C220.393 96.0449 220.876 94.9342 221.809 94.0442C222.755 93.1546 223.887 92.7255 225.207 92.757C226.527 92.7886 227.637 93.2713 228.539 94.2051C229.441 95.1389 229.876 96.2716 229.844 97.6032C229.813 98.9349 229.324 100.045 228.378 100.935ZM225.017 100.693C225.917 100.714 226.68 100.426 227.307 99.8292C227.933 99.232 228.257 98.4776 228.279 97.5658C228.301 96.6541 228.013 95.885 227.416 95.2585C226.819 94.6321 226.07 94.3081 225.17 94.2866C224.283 94.2654 223.526 94.5534 222.899 95.1506C222.273 95.7478 221.949 96.5022 221.927 97.414C221.905 98.3257 222.193 99.0948 222.79 99.7213C223.387 100.348 224.13 100.672 225.017 100.693ZM239.589 93.3349L239.374 102.332L237.809 102.295L237.988 94.791L233.327 94.6796L233.148 102.183L231.583 102.146L231.798 93.1486L239.589 93.3349ZM242.803 91.7732C242.503 91.7661 242.254 91.6581 242.055 91.4493C241.856 91.2404 241.76 90.9921 241.767 90.7042C241.774 90.4162 241.881 90.1727 242.09 89.9737C242.299 89.7626 242.554 89.6607 242.854 89.6678C243.142 89.6747 243.385 89.7886 243.584 90.0094C243.783 90.2182 243.879 90.4666 243.872 90.7545C243.865 91.0424 243.757 91.2859 243.548 91.485C243.34 91.684 243.091 91.7801 242.803 91.7732ZM241.757 102.389L241.972 93.3918L243.538 93.4293L243.323 102.427L241.757 102.389ZM253.323 102.666L251.38 102.619L247.379 98.2564L247.277 102.521L245.711 102.484L245.926 93.4863L247.492 93.5238L247.397 97.5006L251.379 93.6167L253.394 93.6648L248.989 97.9168L253.323 102.666ZM261.618 93.8614L263.184 93.8988L262.969 102.896L261.403 102.859L261.44 101.311C260.632 102.48 259.484 103.047 257.996 103.011C256.737 102.981 255.674 102.5 254.808 101.567C253.942 100.622 253.525 99.4896 253.557 98.17C253.588 96.8504 254.059 95.7453 254.968 94.8548C255.878 93.9523 256.963 93.5161 258.223 93.5462C259.71 93.5817 260.83 94.2027 261.581 95.409L261.618 93.8614ZM258.23 101.505C259.142 101.526 259.911 101.239 260.538 100.642C261.164 100.032 261.489 99.2719 261.511 98.3601C261.532 97.4484 261.245 96.6793 260.647 96.0528C260.051 95.4144 259.296 95.0843 258.384 95.0625C257.485 95.041 256.721 95.3348 256.095 95.944C255.468 96.5412 255.144 97.2957 255.122 98.2074C255.101 99.1192 255.388 99.8943 255.985 100.533C256.582 101.159 257.331 101.483 258.23 101.505ZM276.28 94.2119L277.846 94.2493L277.631 103.247L276.065 103.209L276.155 99.4484L271.495 99.337L271.405 103.098L269.839 103.06L270.054 94.0631L271.62 94.1005L271.53 97.8434L276.191 97.9548L276.28 94.2119ZM281.202 99.551C281.339 100.359 281.69 100.991 282.255 101.449C282.832 101.907 283.547 102.146 284.398 102.166C285.586 102.195 286.46 101.777 287.021 100.914L288.335 101.702C287.427 103.037 286.091 103.683 284.327 103.641C282.9 103.607 281.747 103.135 280.868 102.226C280.002 101.305 279.585 100.161 279.618 98.7929C279.65 97.4373 280.115 96.3201 281.012 95.4413C281.909 94.5625 283.054 94.1397 284.445 94.173C285.765 94.2045 286.828 94.698 287.633 95.6536C288.451 96.5974 288.844 97.7231 288.813 99.0307C288.807 99.2587 288.784 99.4922 288.742 99.7312L281.202 99.551ZM284.41 95.6486C283.57 95.6285 282.869 95.8518 282.306 96.3185C281.743 96.7731 281.386 97.3948 281.235 98.1834L287.245 98.3271C287.133 97.4721 286.813 96.8163 286.284 96.3595C285.755 95.9027 285.13 95.6658 284.41 95.6486ZM298.512 94.7433L298.297 103.741L296.731 103.703L296.911 96.1994L292.25 96.088L292.071 103.592L290.505 103.554L290.72 94.557L298.512 94.7433ZM308.301 102.845C307.355 103.735 306.223 104.164 304.903 104.133C303.584 104.101 302.473 103.618 301.571 102.685C300.681 101.751 300.252 100.619 300.284 99.2869C300.316 97.9553 300.798 96.8445 301.732 95.9545C302.677 95.0649 303.81 94.6358 305.129 94.6674C306.449 94.6989 307.56 95.1816 308.462 96.1154C309.364 97.0492 309.799 98.182 309.767 99.5136C309.735 100.845 309.246 101.956 308.301 102.845ZM304.94 102.603C305.84 102.625 306.603 102.337 307.229 101.74C307.856 101.142 308.18 100.388 308.201 99.4762C308.223 98.5644 307.936 97.7953 307.338 97.1689C306.741 96.5424 305.993 96.2184 305.093 96.1969C304.205 96.1757 303.448 96.4637 302.822 97.0609C302.195 97.6581 301.871 98.4126 301.849 99.3243C301.827 100.236 302.115 101.005 302.712 101.632C303.31 102.258 304.052 102.582 304.94 102.603ZM317.608 99.575C318.522 99.9809 318.968 100.688 318.944 101.695C318.926 102.439 318.659 103.045 318.144 103.513C317.641 103.969 316.928 104.186 316.004 104.164L311.505 104.056L311.72 95.059L315.859 95.1579C316.759 95.1794 317.449 95.424 317.93 95.8916C318.411 96.3472 318.643 96.9409 318.626 97.6727C318.605 98.5365 318.266 99.1706 317.608 99.575ZM315.753 96.5598L313.216 96.4991L313.16 98.8565L315.697 98.9171C316.609 98.9389 317.074 98.5479 317.093 97.7441C317.112 96.9764 316.665 96.5816 315.753 96.5598ZM315.948 102.74C316.404 102.751 316.754 102.651 316.999 102.441C317.256 102.231 317.39 101.928 317.399 101.533C317.408 101.161 317.289 100.87 317.042 100.66C316.807 100.438 316.462 100.322 316.006 100.311L313.127 100.242L313.069 102.671L315.948 102.74ZM327.014 95.4245L328.58 95.462L328.365 104.459L326.799 104.422L326.889 100.661L322.228 100.55L322.138 104.311L320.573 104.273L320.788 95.2757L322.353 95.3131L322.264 99.0561L326.925 99.1675L327.014 95.4245ZM338.369 103.564C337.423 104.454 336.29 104.883 334.971 104.851C333.651 104.82 332.54 104.337 331.638 103.403C330.749 102.47 330.319 101.337 330.351 100.006C330.383 98.674 330.866 97.5632 331.799 96.6732C332.745 95.7836 333.877 95.3545 335.197 95.3861C336.517 95.4176 337.627 95.9003 338.529 96.8341C339.431 97.7679 339.866 98.9006 339.835 100.232C339.803 101.564 339.314 102.675 338.369 103.564ZM335.007 103.322C335.907 103.343 336.67 103.055 337.297 102.458C337.923 101.861 338.247 101.107 338.269 100.195C338.291 99.2831 338.003 98.514 337.406 97.8876C336.809 97.2611 336.06 96.9371 335.16 96.9156C334.273 96.8944 333.516 97.1824 332.889 97.7796C332.263 98.3768 331.939 99.1313 331.917 100.043C331.895 100.955 332.183 101.724 332.78 102.35C333.377 102.977 334.12 103.301 335.007 103.322ZM348.975 95.9495L348.76 104.947L347.195 104.909L347.374 97.4236L343.829 97.3389L343.741 101.01C343.706 102.485 343.381 103.51 342.767 104.083C342.165 104.645 341.326 104.865 340.249 104.743L340.284 103.268C340.894 103.366 341.353 103.245 341.661 102.905C341.981 102.552 342.153 101.896 342.176 100.936L342.299 95.7899L348.975 95.9495ZM352.178 94.3875C351.878 94.3804 351.629 94.2724 351.43 94.0636C351.231 93.8548 351.135 93.6064 351.142 93.3185C351.149 93.0306 351.256 92.7871 351.465 92.588C351.674 92.3769 351.929 92.275 352.229 92.2822C352.517 92.289 352.76 92.4029 352.959 92.6237C353.158 92.8325 353.254 93.0809 353.247 93.3688C353.24 93.6567 353.132 93.9002 352.923 94.0993C352.715 94.2983 352.466 94.3944 352.178 94.3875ZM351.132 105.004L351.347 96.0062L352.913 96.0436L352.698 105.041L351.132 105.004ZM361.995 96.2607L361.959 97.7722L358.9 97.6991L358.721 105.185L357.156 105.148L357.335 97.6617L354.258 97.5881L354.294 96.0766L361.995 96.2607ZM369.594 96.4423L371.159 96.4797L370.944 105.477L369.379 105.44L369.469 101.679L364.808 101.567L364.718 105.328L363.152 105.291L363.367 96.2935L364.933 96.3309L364.844 100.074L369.504 100.185L369.594 96.4423ZM374.373 94.9181C374.073 94.9109 373.824 94.8029 373.625 94.5941C373.426 94.3853 373.33 94.1369 373.336 93.849C373.343 93.5611 373.451 93.3176 373.66 93.1185C373.869 92.9074 374.124 92.8055 374.424 92.8127C374.711 92.8195 374.955 92.9334 375.154 93.1542C375.353 93.363 375.449 93.6114 375.442 93.8993C375.435 94.1872 375.327 94.4307 375.118 94.6298C374.909 94.8288 374.661 94.9249 374.373 94.9181ZM373.327 105.534L373.542 96.5367L375.108 96.5741L374.893 105.572L373.327 105.534ZM385.091 105.815L383.255 105.771L380.817 102.31L378.199 105.651L376.363 105.607L379.929 101.065L376.776 96.614L378.63 96.6583L380.876 99.8449L383.273 96.7692L385.108 96.8131L381.765 101.09L385.091 105.815Z" fill="white"/>
<rect x="159" y="161.009" width="271.632" height="63.8808" rx="30" transform="rotate(-10.609 159 161.009)" fill="#00AAFF"/>
<path d="M182.488 186.188L184.149 195.034L182.61 195.323L181.225 187.946L176.643 188.806L178.028 196.183L176.489 196.472L174.828 187.626L182.488 186.188ZM189.671 184.602C190.909 184.369 192.05 184.625 193.093 185.37C194.134 186.102 194.776 187.117 195.02 188.414C195.264 189.712 195.034 190.896 194.332 191.968C193.627 193.028 192.656 193.675 191.418 193.907C189.955 194.182 188.731 193.807 187.745 192.784L188.695 197.843L187.156 198.132L184.831 185.748L186.37 185.46L186.656 186.981C187.203 185.669 188.208 184.876 189.671 184.602ZM190.944 192.458C191.829 192.292 192.515 191.852 193.004 191.137C193.49 190.411 193.649 189.6 193.481 188.703C193.313 187.807 192.871 187.114 192.157 186.626C191.44 186.126 190.64 185.958 189.755 186.124C188.859 186.293 188.167 186.74 187.681 187.466C187.192 188.181 187.032 188.986 187.201 189.882C187.369 190.779 187.811 191.477 188.528 191.977C189.242 192.466 190.048 192.626 190.944 192.458ZM204.943 189.976C204.203 191.043 203.185 191.698 201.887 191.942C200.59 192.185 199.403 191.944 198.327 191.218C197.262 190.49 196.607 189.472 196.361 188.163C196.115 186.853 196.357 185.667 197.085 184.602C197.824 183.535 198.843 182.88 200.14 182.636C201.438 182.393 202.625 182.634 203.701 183.36C204.777 184.086 205.439 185.103 205.684 186.412C205.93 187.721 205.683 188.909 204.943 189.976ZM201.605 190.438C202.49 190.272 203.176 189.832 203.665 189.117C204.153 188.403 204.313 187.598 204.145 186.701C203.977 185.805 203.536 185.112 202.821 184.624C202.107 184.135 201.307 183.974 200.423 184.14C199.55 184.304 198.869 184.743 198.381 185.457C197.892 186.172 197.732 186.977 197.9 187.874C198.069 188.77 198.51 189.462 199.224 189.951C199.939 190.44 200.732 190.602 201.605 190.438ZM215.798 181.309C216.783 182.003 217.39 182.957 217.618 184.172C217.846 185.387 217.627 186.496 216.961 187.5C216.295 188.505 215.286 189.213 213.935 189.625L214.566 192.986L213.044 193.272L212.413 189.911C211.005 190.017 209.808 189.722 208.823 189.028C207.838 188.334 207.231 187.379 207.003 186.165C206.775 184.95 206.994 183.84 207.661 182.836C208.327 181.832 209.335 181.124 210.686 180.712L210.055 177.35L211.577 177.065L212.208 180.426C213.617 180.32 214.813 180.614 215.798 181.309ZM208.525 185.879C208.678 186.693 209.072 187.333 209.709 187.799C210.358 188.264 211.167 188.472 212.134 188.425L210.965 182.198C210.044 182.493 209.365 182.974 208.929 183.642C208.505 184.308 208.37 185.054 208.525 185.879ZM213.656 188.139C214.575 187.832 215.247 187.346 215.671 186.68C216.096 186.015 216.232 185.275 216.079 184.461C215.926 183.647 215.531 183.007 214.894 182.541C214.257 182.074 213.455 181.865 212.487 181.912L213.656 188.139ZM220.649 184.336C220.95 185.097 221.425 185.643 222.073 185.973C222.733 186.301 223.482 186.386 224.319 186.229C225.487 186.01 226.255 185.42 226.624 184.459L228.073 184.957C227.462 186.451 226.29 187.361 224.556 187.686C223.152 187.95 221.927 187.728 220.878 187.021C219.839 186.301 219.194 185.268 218.941 183.924C218.691 182.591 218.913 181.401 219.608 180.355C220.303 179.309 221.335 178.658 222.703 178.401C224 178.157 225.142 178.419 226.129 179.186C227.125 179.939 227.743 180.959 227.985 182.244C228.027 182.468 228.052 182.702 228.061 182.944L220.649 184.336ZM222.975 179.851C222.15 180.006 221.51 180.371 221.056 180.944C220.6 181.506 220.38 182.188 220.396 182.991L226.305 181.882C226.018 181.069 225.568 180.494 224.956 180.157C224.343 179.821 223.683 179.719 222.975 179.851ZM234.764 185.77C233.431 186.02 232.24 185.786 231.189 185.067C230.136 184.337 229.486 183.312 229.238 181.991C228.99 180.67 229.225 179.484 229.944 178.433C230.66 177.371 231.685 176.715 233.017 176.464C233.89 176.301 234.714 176.366 235.49 176.66C236.263 176.942 236.887 177.405 237.362 178.048L236.21 179.033C235.897 178.604 235.479 178.292 234.954 178.097C234.441 177.9 233.889 177.857 233.3 177.968C232.415 178.134 231.728 178.574 231.24 179.289C230.763 180.001 230.609 180.805 230.777 181.702C230.943 182.586 231.378 183.274 232.08 183.765C232.795 184.253 233.594 184.415 234.479 184.248C235.068 184.138 235.574 183.902 235.994 183.543C236.413 183.171 236.702 182.726 236.861 182.208L238.313 182.723C238.066 183.49 237.629 184.152 237.001 184.709C236.371 185.255 235.625 185.608 234.764 185.77ZM239.037 173.906C238.742 173.961 238.475 173.907 238.237 173.745C237.999 173.582 237.853 173.359 237.8 173.076C237.747 172.793 237.802 172.532 237.965 172.294C238.126 172.044 238.353 171.891 238.648 171.836C238.931 171.783 239.193 171.844 239.433 172.018C239.671 172.181 239.817 172.404 239.87 172.687C239.923 172.97 239.868 173.231 239.706 173.469C239.543 173.707 239.32 173.853 239.037 173.906ZM240.221 184.507L238.561 175.662L240.1 175.373L241.76 184.218L240.221 184.507ZM243.649 173.333L243.397 171.988L248.173 171.092L248.426 172.436L243.649 173.333ZM248.87 173.727L250.108 173.494L251.768 182.34L250.247 182.625L249.081 176.416L245.347 183.545L244.108 183.778L242.448 174.932L243.969 174.647L245.135 180.856L248.87 173.727ZM258.572 171.905L260.111 171.616L261.771 180.462L260.232 180.751L259.538 177.053L254.956 177.913L255.65 181.611L254.111 181.9L252.451 173.054L253.99 172.765L254.681 176.445L259.263 175.585L258.572 171.905ZM269.778 169.802L271.317 169.513L272.977 178.358L271.438 178.647L271.153 177.126C270.605 178.437 269.6 179.23 268.138 179.505C266.9 179.737 265.76 179.487 264.719 178.755C263.676 178.01 263.032 176.99 262.789 175.692C262.545 174.395 262.776 173.216 263.48 172.156C264.182 171.084 265.153 170.432 266.391 170.199C267.853 169.925 269.078 170.299 270.063 171.323L269.778 169.802ZM268.054 177.982C268.95 177.814 269.642 177.372 270.131 176.658C270.617 175.932 270.776 175.121 270.608 174.224C270.44 173.328 269.998 172.635 269.284 172.147C268.567 171.647 267.761 171.48 266.865 171.649C265.98 171.815 265.295 172.261 264.808 172.987C264.32 173.702 264.159 174.507 264.328 175.403C264.496 176.3 264.938 176.998 265.655 177.498C266.37 177.987 267.169 178.148 268.054 177.982ZM286.917 166.584L288.578 175.429L287.074 175.712L285.868 169.29L283.906 174.347L283.711 174.383L280.048 170.383L281.253 176.804L279.732 177.09L278.072 168.245L279.717 167.936L283.335 171.89L285.272 166.893L286.917 166.584ZM298.183 172.472C297.444 173.539 296.425 174.194 295.128 174.438C293.83 174.681 292.643 174.44 291.567 173.714C290.502 172.986 289.847 171.968 289.602 170.659C289.356 169.349 289.597 168.163 290.325 167.098C291.065 166.031 292.083 165.376 293.381 165.132C294.678 164.889 295.865 165.13 296.941 165.856C298.018 166.582 298.679 167.599 298.925 168.908C299.17 170.218 298.923 171.406 298.183 172.472ZM294.845 172.934C295.73 172.768 296.417 172.328 296.905 171.613C297.394 170.899 297.554 170.094 297.386 169.197C297.217 168.301 296.776 167.609 296.062 167.12C295.347 166.631 294.548 166.47 293.663 166.636C292.79 166.8 292.11 167.239 291.621 167.954C291.133 168.668 290.972 169.473 291.141 170.37C291.309 171.266 291.75 171.958 292.465 172.447C293.179 172.936 293.973 173.098 294.845 172.934ZM306.607 167.338C307.586 167.545 308.168 168.144 308.354 169.134C308.492 169.866 308.357 170.514 307.95 171.078C307.553 171.629 306.9 171.99 305.992 172.16L301.569 172.991L299.909 164.145L303.978 163.381C304.862 163.215 305.588 163.311 306.156 163.668C306.722 164.014 307.072 164.546 307.207 165.266C307.366 166.115 307.166 166.806 306.607 167.338ZM304.166 164.774L301.672 165.243L302.107 167.56L304.601 167.092C305.497 166.924 305.871 166.444 305.723 165.654C305.581 164.899 305.062 164.606 304.166 164.774ZM305.641 170.779C306.089 170.695 306.412 170.525 306.608 170.268C306.815 170.009 306.883 169.685 306.81 169.296C306.741 168.931 306.564 168.671 306.279 168.517C306.003 168.349 305.641 168.307 305.193 168.391L302.362 168.922L302.811 171.311L305.641 170.779ZM314.944 161.322L316.484 161.033L318.144 169.879L316.605 170.168L315.911 166.47L311.329 167.331L312.023 171.028L310.484 171.317L308.823 162.472L310.363 162.183L311.053 165.862L315.635 165.002L314.944 161.322ZM326.15 159.219L327.69 158.93L329.35 167.775L327.811 168.064L327.525 166.543C326.978 167.854 325.973 168.647 324.511 168.922C323.272 169.154 322.133 168.904 321.091 168.172C320.048 167.428 319.405 166.407 319.161 165.109C318.918 163.812 319.148 162.633 319.853 161.573C320.555 160.501 321.525 159.849 322.764 159.616C324.226 159.342 325.45 159.716 326.436 160.74L326.15 159.219ZM324.426 167.399C325.323 167.231 326.015 166.79 326.504 166.075C326.99 165.349 327.149 164.538 326.981 163.641C326.812 162.745 326.371 162.053 325.657 161.564C324.94 161.064 324.134 160.898 323.237 161.066C322.353 161.232 321.667 161.678 321.181 162.404C320.692 163.119 320.532 163.924 320.7 164.82C320.869 165.717 321.311 166.415 322.028 166.916C322.742 167.404 323.542 167.565 324.426 167.399ZM342.104 156.224L343.765 165.069L342.226 165.358L340.841 157.981L336.259 158.841L337.644 166.218L336.105 166.507L334.444 157.662L342.104 156.224ZM344.923 154.028C344.629 154.083 344.362 154.029 344.124 153.867C343.886 153.704 343.74 153.481 343.687 153.198C343.634 152.915 343.689 152.654 343.852 152.416C344.012 152.166 344.24 152.013 344.535 151.958C344.818 151.905 345.08 151.966 345.32 152.14C345.558 152.303 345.704 152.526 345.757 152.809C345.81 153.092 345.755 153.353 345.592 153.591C345.429 153.829 345.206 153.975 344.923 154.028ZM346.108 164.629L344.447 155.784L345.986 155.495L347.647 164.34L346.108 164.629ZM357.326 161.003L358.547 160.774L359.268 164.613L357.746 164.899L357.301 162.528L350.667 163.773L351.112 166.144L349.591 166.43L348.87 162.591L349.949 162.388C350.369 161.503 350.447 160.359 350.184 158.956L349.414 154.852L355.941 153.626L357.326 161.003ZM351.701 162.059L355.805 161.289L354.689 155.345L351.204 155.999L351.705 158.67C351.953 159.991 351.952 161.121 351.701 162.059ZM364.624 151.996L364.903 153.482L360.639 154.283L362.021 161.642L360.482 161.931L358.821 153.085L364.624 151.996ZM374.545 158.137C373.805 159.204 372.786 159.859 371.489 160.103C370.192 160.346 369.005 160.105 367.928 159.379C366.864 158.651 366.209 157.632 365.963 156.323C365.717 155.014 365.958 153.827 366.686 152.763C367.426 151.696 368.445 151.041 369.742 150.797C371.04 150.554 372.226 150.795 373.303 151.521C374.379 152.247 375.04 153.264 375.286 154.573C375.532 155.882 375.285 157.07 374.545 158.137ZM371.207 158.599C372.091 158.433 372.778 157.993 373.266 157.278C373.755 156.564 373.915 155.758 373.747 154.862C373.579 153.966 373.137 153.273 372.423 152.785C371.708 152.296 370.909 152.135 370.024 152.301C369.152 152.465 368.471 152.904 367.982 153.618C367.494 154.333 367.334 155.138 367.502 156.034C367.67 156.931 368.112 157.623 368.826 158.112C369.54 158.6 370.334 158.763 371.207 158.599ZM382.506 148.639L382.785 150.125L379.777 150.69L381.159 158.049L379.62 158.338L378.238 150.979L375.213 151.547L374.934 150.061L382.506 148.639ZM392.426 154.78C391.686 155.847 390.667 156.502 389.37 156.746C388.073 156.989 386.886 156.748 385.809 156.022C384.745 155.294 384.09 154.276 383.844 152.967C383.598 151.657 383.839 150.471 384.567 149.406C385.307 148.339 386.326 147.684 387.623 147.44C388.921 147.197 390.107 147.438 391.184 148.164C392.26 148.89 392.921 149.907 393.167 151.216C393.413 152.525 393.166 153.713 392.426 154.78ZM389.088 155.242C389.972 155.076 390.659 154.636 391.147 153.921C391.636 153.207 391.796 152.402 391.628 151.505C391.46 150.609 391.018 149.916 390.304 149.428C389.59 148.939 388.79 148.778 387.905 148.944C387.033 149.108 386.352 149.547 385.863 150.262C385.375 150.976 385.215 151.781 385.383 152.678C385.551 153.574 385.993 154.266 386.707 154.755C387.421 155.244 388.215 155.406 389.088 155.242ZM400.849 149.646C401.828 149.853 402.411 150.452 402.597 151.442C402.734 152.174 402.599 152.822 402.193 153.386C401.795 153.937 401.143 154.298 400.234 154.468L395.812 155.298L394.151 146.453L398.22 145.689C399.105 145.523 399.831 145.619 400.398 145.976C400.964 146.322 401.314 146.854 401.449 147.574C401.609 148.423 401.409 149.114 400.849 149.646ZM398.408 147.082L395.914 147.551L396.349 149.868L398.843 149.4C399.74 149.232 400.114 148.752 399.965 147.962C399.824 147.207 399.305 146.914 398.408 147.082ZM399.884 153.087C400.332 153.003 400.654 152.833 400.85 152.576C401.058 152.317 401.125 151.993 401.052 151.604C400.983 151.239 400.806 150.979 400.521 150.825C400.245 150.657 399.883 150.615 399.435 150.699L396.605 151.23L397.053 153.619L399.884 153.087ZM412.21 152.22L410.299 152.579L405.478 149.143L406.265 153.336L404.726 153.625L403.066 144.779L404.605 144.491L405.339 148.4L408.426 143.773L410.408 143.401L406.983 148.476L412.21 152.22ZM418.492 141.883L420.032 141.594L421.692 150.44L420.153 150.729L419.867 149.207C419.32 150.519 418.315 151.312 416.853 151.587C415.614 151.819 414.475 151.569 413.433 150.837C412.39 150.092 411.747 149.071 411.503 147.774C411.26 146.477 411.49 145.298 412.195 144.238C412.897 143.166 413.867 142.514 415.106 142.281C416.568 142.007 417.792 142.381 418.778 143.405L418.492 141.883ZM416.768 150.064C417.665 149.896 418.357 149.454 418.846 148.74C419.332 148.014 419.491 147.203 419.323 146.306C419.154 145.41 418.713 144.717 417.999 144.229C417.282 143.728 416.476 143.562 415.579 143.731C414.695 143.897 414.009 144.343 413.523 145.069C413.034 145.783 412.874 146.589 413.042 147.485C413.211 148.382 413.653 149.08 414.37 149.58C415.084 150.069 415.884 150.23 416.768 150.064Z" fill="white"/>
</svg>
